{"glyphs":{"0":{"ha":854,"x_min":79,"x_max":775,"o":"m 428 992 q 613 930 536 992 q 733 755 690 868 q 775 486 775 642 q 733 217 775 331 q 613 42 690 104 q 428 -19 536 -19 q 242 42 319 -19 q 122 217 164 104 q 79 486 79 331 q 122 755 79 642 q 242 930 164 868 q 428 992 319 992 m 428 944 q 272 824 328 944 q 217 486 217 703 q 272 149 217 269 q 428 28 328 28 q 582 149 526 28 q 638 486 638 269 q 582 824 638 703 q 428 944 526 944 z "},"1":{"ha":500,"x_min":75,"x_max":425,"o":"m 425 0 l 425 14 l 396 14 q 342 35 365 14 q 319 88 319 57 l 319 992 l 306 992 q 253 952 282 968 q 194 927 225 936 q 133 913 164 918 q 75 903 103 907 l 75 889 l 122 889 q 174 871 156 889 q 192 815 192 853 l 192 89 q 169 36 192 58 q 115 14 147 14 l 86 14 l 85 0 l 425 0 z "},"2":{"ha":797,"x_min":76,"x_max":749,"o":"m 129 722 l 90 897 q 165 947 119 926 q 262 980 210 968 q 363 992 314 992 q 531 958 458 992 q 644 863 604 925 q 685 715 685 801 q 654 574 685 644 q 574 438 624 504 q 468 313 525 372 q 356 202 411 253 q 260 111 301 151 l 567 111 q 637 124 608 111 q 688 163 665 136 q 735 235 711 190 l 749 235 l 678 0 l 76 0 l 76 14 q 190 131 128 64 q 313 272 251 197 q 427 424 375 346 q 510 576 479 501 q 542 717 542 651 q 490 886 542 824 q 346 944 438 949 q 197 885 251 942 q 143 722 142 828 l 129 722 z "},"3":{"ha":726,"x_min":76,"x_max":638,"o":"m 319 989 q 473 965 408 992 q 573 889 538 938 q 608 775 608 840 q 586 678 608 724 q 528 602 564 633 q 450 558 492 571 q 371 554 408 544 q 462 539 415 554 q 549 492 508 524 q 613 410 589 460 q 638 296 638 361 q 607 162 638 224 q 523 53 576 100 q 398 -22 469 7 q 244 -58 326 -51 q 78 -44 163 -64 l 81 -31 q 238 -8 164 -32 q 370 59 313 15 q 461 165 428 103 q 494 303 494 228 q 457 434 494 383 q 356 509 419 485 q 215 533 293 533 l 218 547 q 339 576 281 547 q 434 657 397 604 q 467 785 471 710 q 444 864 464 828 q 388 922 425 900 q 296 942 351 943 q 165 885 210 940 q 125 739 121 831 l 111 739 l 76 890 q 172 958 114 929 q 319 989 231 986 z "},"4":{"ha":826,"x_min":40,"x_max":757,"o":"m 475 821 l 590 992 l 604 992 l 604 1 l 475 1 l 475 821 m 590 992 l 604 931 l 171 419 l 664 419 q 717 428 703 419 q 743 453 731 436 l 757 453 l 725 329 l 40 329 l 40 343 l 590 992 m 604 89 q 627 36 604 58 q 681 14 650 14 l 696 14 l 696 0 l 382 0 l 383 14 l 397 14 q 452 35 429 14 q 475 89 475 57 l 604 89 z "},"5":{"ha":718,"x_min":58,"x_max":625,"o":"m 565 840 l 218 817 l 163 619 q 344 635 260 643 q 492 591 428 628 q 590 490 556 554 q 621 336 625 426 q 572 163 617 235 q 458 44 526 90 q 314 -26 390 -3 q 169 -53 238 -50 q 58 -43 101 -56 l 61 -29 q 147 -18 96 -31 q 253 22 197 -6 q 357 92 308 50 q 438 191 406 133 q 476 322 471 249 q 432 469 483 414 q 291 535 381 524 q 90 508 201 547 l 78 514 l 188 922 l 490 946 q 560 965 535 946 q 600 1015 585 985 l 614 1015 l 565 840 z "},"6":{"ha":810,"x_min":82,"x_max":742,"o":"m 601 1019 l 607 1010 q 426 914 499 975 q 310 772 353 853 q 248 592 267 690 q 229 383 229 493 q 250 198 229 278 q 313 74 271 118 q 422 29 356 29 q 524 66 486 29 q 581 161 563 103 q 597 285 599 219 q 577 407 596 357 q 522 484 558 457 q 433 513 486 511 q 355 499 393 515 q 290 451 317 482 l 282 464 q 359 534 314 507 q 455 570 404 561 q 553 568 506 579 q 642 525 601 557 q 709 438 683 493 q 738 304 735 383 q 706 147 742 221 q 598 27 669 74 q 424 -21 526 -19 q 244 25 322 -22 q 124 165 167 72 q 83 390 82 257 q 116 616 85 507 q 211 814 147 725 q 372 958 275 903 q 601 1019 469 1013 z "},"7":{"ha":717,"x_min":40,"x_max":671,"o":"m 40 779 l 54 779 q 93 842 69 821 q 158 863 117 863 l 561 863 l 449 575 q 406 473 431 531 q 355 350 382 415 q 299 221 328 285 q 247 100 271 157 q 203 0 222 43 l 329 0 q 358 106 339 44 q 399 234 376 167 q 443 367 421 301 q 485 485 465 432 q 515 568 504 538 l 671 972 l 79 969 l 40 779 z "},"8":{"ha":790,"x_min":71,"x_max":717,"o":"m 125 747 q 158 874 125 819 q 252 959 192 928 q 394 992 313 990 q 531 965 471 993 q 627 883 592 936 q 663 757 663 831 q 635 645 663 694 q 559 563 608 596 q 444 518 510 531 l 404 535 q 482 603 454 564 q 522 685 510 642 q 533 771 533 729 q 496 896 533 849 q 394 944 458 943 q 292 897 328 944 q 256 783 256 849 q 272 701 256 739 q 324 631 289 663 q 411 569 358 599 q 508 519 456 544 q 608 458 561 493 q 686 374 656 424 q 717 250 717 325 q 676 108 717 168 q 563 14 636 47 q 389 -19 489 -19 q 263 -2 322 -19 q 161 49 204 15 q 94 133 118 83 q 74 246 71 182 q 89 324 75 289 q 126 387 103 358 q 179 438 149 415 q 246 479 210 461 q 319 513 282 497 l 360 494 q 251 399 296 460 q 204 243 206 338 q 253 87 203 144 q 393 28 304 29 q 498 53 457 26 q 560 122 539 79 q 582 213 582 164 q 565 293 582 260 q 518 351 547 326 q 452 395 489 375 q 376 435 415 415 q 283 491 328 461 q 202 559 238 521 q 146 644 167 597 q 125 747 125 692 z "},"9":{"ha":810,"x_min":72,"x_max":726,"o":"m 208 -51 l 204 -42 q 385 49 313 -11 q 501 192 458 110 q 562 372 543 275 q 581 576 581 469 q 560 771 581 689 q 499 896 540 853 q 389 939 457 939 q 287 903 326 939 q 230 809 247 867 q 214 683 213 751 q 234 563 215 614 q 290 483 253 511 q 378 456 326 456 q 456 469 418 454 q 521 517 494 485 l 528 504 q 451 433 496 460 q 356 399 407 407 q 255 402 304 390 q 165 447 206 414 q 99 533 124 479 q 74 664 75 588 q 110 833 72 761 q 220 947 149 906 q 388 989 292 988 q 635 885 544 992 q 726 576 726 779 q 695 354 726 464 q 600 154 664 244 q 439 8 536 64 q 208 -51 342 -47 z "},"A":{"ha":992,"x_min":-22,"x_max":1014,"o":"m 496 994 l 922 8 l 760 8 l 450 817 l 496 994 m 197 101 q 194 54 188 74 q 217 24 201 35 q 250 14 233 14 l 263 14 l 263 0 l -22 0 l -22 14 q -16 14 -22 14 q -10 14 -10 14 q 56 34 22 14 q 113 101 90 54 l 197 101 m 496 994 l 507 874 l 160 4 l 69 4 l 426 839 q 437 860 428 842 q 456 906 446 879 q 475 957 467 932 q 483 994 483 982 l 496 994 m 675 363 l 675 315 l 250 315 l 250 363 l 675 363 m 724 101 l 881 101 q 937 34 903 54 q 1003 14 971 14 q 1008 14 1003 14 q 1014 14 1014 14 l 1014 0 l 658 0 l 658 14 l 671 14 q 719 37 699 14 q 724 101 740 60 z "},"Á":{"ha":992,"x_min":-22,"x_max":1014,"o":"m 496 994 l 922 8 l 760 8 l 450 817 l 496 994 m 197 101 q 194 54 188 74 q 217 24 201 35 q 250 14 233 14 l 263 14 l 263 0 l -22 0 l -22 14 q -16 14 -22 14 q -10 14 -10 14 q 56 34 22 14 q 113 101 90 54 l 197 101 m 496 994 l 507 874 l 160 4 l 69 4 l 426 839 q 437 860 428 842 q 456 906 446 879 q 475 957 467 932 q 483 994 483 982 l 496 994 m 675 363 l 675 315 l 250 315 l 250 363 l 675 363 m 724 101 l 881 101 q 937 34 903 54 q 1003 14 971 14 q 1008 14 1003 14 q 1014 14 1014 14 l 1014 0 l 658 0 l 658 14 l 671 14 q 719 37 699 14 q 724 101 740 60 z "},"Ă":{"ha":992,"x_min":-22,"x_max":1014,"o":"m 496 994 l 922 8 l 760 8 l 450 817 l 496 994 m 197 101 q 194 54 188 74 q 217 24 201 35 q 250 14 233 14 l 263 14 l 263 0 l -22 0 l -22 14 q -16 14 -22 14 q -10 14 -10 14 q 56 34 22 14 q 113 101 90 54 l 197 101 m 496 994 l 507 874 l 160 4 l 69 4 l 426 839 q 437 860 428 842 q 456 906 446 879 q 475 957 467 932 q 483 994 483 982 l 496 994 m 675 363 l 675 315 l 250 315 l 250 363 l 675 363 m 724 101 l 881 101 q 937 34 903 54 q 1003 14 971 14 q 1008 14 1003 14 q 1014 14 1014 14 l 1014 0 l 658 0 l 658 14 l 671 14 q 719 37 699 14 q 724 101 740 60 z "},"Â":{"ha":992,"x_min":-22,"x_max":1014,"o":"m 496 994 l 922 8 l 760 8 l 450 817 l 496 994 m 197 101 q 194 54 188 74 q 217 24 201 35 q 250 14 233 14 l 263 14 l 263 0 l -22 0 l -22 14 q -16 14 -22 14 q -10 14 -10 14 q 56 34 22 14 q 113 101 90 54 l 197 101 m 496 994 l 507 874 l 160 4 l 69 4 l 426 839 q 437 860 428 842 q 456 906 446 879 q 475 957 467 932 q 483 994 483 982 l 496 994 m 675 363 l 675 315 l 250 315 l 250 363 l 675 363 m 724 101 l 881 101 q 937 34 903 54 q 1003 14 971 14 q 1008 14 1003 14 q 1014 14 1014 14 l 1014 0 l 658 0 l 658 14 l 671 14 q 719 37 699 14 q 724 101 740 60 z "},"Ä":{"ha":992,"x_min":-22,"x_max":1014,"o":"m 496 994 l 922 8 l 760 8 l 450 817 l 496 994 m 197 101 q 194 54 188 74 q 217 24 201 35 q 250 14 233 14 l 263 14 l 263 0 l -22 0 l -22 14 q -16 14 -22 14 q -10 14 -10 14 q 56 34 22 14 q 113 101 90 54 l 197 101 m 496 994 l 507 874 l 160 4 l 69 4 l 426 839 q 437 860 428 842 q 456 906 446 879 q 475 957 467 932 q 483 994 483 982 l 496 994 m 675 363 l 675 315 l 250 315 l 250 363 l 675 363 m 724 101 l 881 101 q 937 34 903 54 q 1003 14 971 14 q 1008 14 1003 14 q 1014 14 1014 14 l 1014 0 l 658 0 l 658 14 l 671 14 q 719 37 699 14 q 724 101 740 60 z "},"À":{"ha":992,"x_min":-22,"x_max":1014,"o":"m 496 994 l 922 8 l 760 8 l 450 817 l 496 994 m 197 101 q 194 54 188 74 q 217 24 201 35 q 250 14 233 14 l 263 14 l 263 0 l -22 0 l -22 14 q -16 14 -22 14 q -10 14 -10 14 q 56 34 22 14 q 113 101 90 54 l 197 101 m 496 994 l 507 874 l 160 4 l 69 4 l 426 839 q 437 860 428 842 q 456 906 446 879 q 475 957 467 932 q 483 994 483 982 l 496 994 m 675 363 l 675 315 l 250 315 l 250 363 l 675 363 m 724 101 l 881 101 q 937 34 903 54 q 1003 14 971 14 q 1008 14 1003 14 q 1014 14 1014 14 l 1014 0 l 658 0 l 658 14 l 671 14 q 719 37 699 14 q 724 101 740 60 z "},"Ā":{"ha":992,"x_min":-22,"x_max":1014,"o":"m 496 994 l 922 8 l 760 8 l 450 817 l 496 994 m 197 101 q 194 54 188 74 q 217 24 201 35 q 250 14 233 14 l 263 14 l 263 0 l -22 0 l -22 14 q -16 14 -22 14 q -10 14 -10 14 q 56 34 22 14 q 113 101 90 54 l 197 101 m 496 994 l 507 874 l 160 4 l 69 4 l 426 839 q 437 860 428 842 q 456 906 446 879 q 475 957 467 932 q 483 994 483 982 l 496 994 m 675 363 l 675 315 l 250 315 l 250 363 l 675 363 m 724 101 l 881 101 q 937 34 903 54 q 1003 14 971 14 q 1008 14 1003 14 q 1014 14 1014 14 l 1014 0 l 658 0 l 658 14 l 671 14 q 719 37 699 14 q 724 101 740 60 z "},"Ą":{"ha":1019,"x_min":-22,"x_max":1042,"o":"m 513 992 l 949 17 l 789 8 l 465 814 l 513 992 m 513 992 l 522 871 l 158 4 l 69 4 l 442 836 q 453 858 444 839 q 472 903 461 876 q 491 954 483 929 q 500 992 499 979 l 513 992 m 690 363 l 690 315 l 265 315 l 265 363 l 690 363 m 197 101 q 194 54 188 74 q 217 24 201 35 q 250 14 233 14 l 263 14 l 263 0 l -22 0 l -22 14 q -16 14 -22 14 q -10 14 -10 14 q 56 34 22 14 q 113 101 90 54 l 197 101 m 819 0 q 753 -37 774 -8 q 732 -99 732 -67 q 761 -165 733 -139 q 828 -190 789 -190 q 901 -157 867 -190 l 910 -165 q 869 -226 899 -206 q 803 -252 840 -247 q 733 -243 767 -257 q 676 -198 699 -229 q 656 -117 654 -167 q 679 -51 657 -78 q 729 -8 701 -25 q 763 32 758 7 q 751 100 768 57 l 914 96 q 966 33 933 51 q 1031 14 999 15 q 1036 13 1031 14 q 1042 13 1042 13 l 1042 0 q 975 2 1006 0 q 919 5 944 4 q 869 6 893 6 q 819 0 844 6 z "},"Å":{"ha":992,"x_min":-22,"x_max":1014,"o":"m 496 992 l 922 8 l 760 8 l 450 814 l 496 992 m 197 101 q 194 54 188 74 q 217 24 201 35 q 250 14 233 14 l 263 14 l 263 0 l -22 0 l -22 14 q -16 14 -22 14 q -10 14 -10 14 q 56 34 22 14 q 113 101 90 54 l 197 101 m 496 992 l 507 871 l 160 4 l 69 4 l 426 836 q 437 858 428 839 q 456 903 446 876 q 475 954 467 929 q 483 992 483 979 l 496 992 m 675 363 l 675 315 l 250 315 l 250 363 l 675 363 m 724 101 l 881 101 q 937 34 903 54 q 1003 14 971 14 q 1008 14 1003 14 q 1014 14 1014 14 l 1014 0 l 658 0 l 658 14 l 671 14 q 719 37 699 14 q 724 101 740 60 m 492 1164 q 578 1138 543 1164 q 614 1068 614 1113 q 578 999 614 1026 q 492 971 543 971 q 405 999 440 971 q 371 1068 369 1026 q 405 1138 369 1111 q 492 1164 440 1164 m 492 1142 q 448 1122 465 1142 q 431 1068 431 1103 q 448 1015 431 1033 q 492 996 465 996 q 535 1015 518 996 q 553 1068 553 1033 q 535 1122 553 1103 q 492 1142 518 1142 z "},"Ã":{"ha":992,"x_min":-22,"x_max":1014,"o":"m 496 994 l 922 8 l 760 8 l 450 817 l 496 994 m 197 101 q 194 54 188 74 q 217 24 201 35 q 250 14 233 14 l 263 14 l 263 0 l -22 0 l -22 14 q -16 14 -22 14 q -10 14 -10 14 q 56 34 22 14 q 113 101 90 54 l 197 101 m 496 994 l 507 874 l 160 4 l 69 4 l 426 839 q 437 860 428 842 q 456 906 446 879 q 475 957 467 932 q 483 994 483 982 l 496 994 m 675 363 l 675 315 l 250 315 l 250 363 l 675 363 m 724 101 l 881 101 q 937 34 903 54 q 1003 14 971 14 q 1008 14 1003 14 q 1014 14 1014 14 l 1014 0 l 658 0 l 658 14 l 671 14 q 719 37 699 14 q 724 101 740 60 z "},"Æ":{"ha":1285,"x_min":-21,"x_max":1232,"o":"m 214 94 q 203 56 201 74 q 219 26 206 38 q 253 14 233 14 l 267 14 l 267 0 l -21 0 l -21 14 q -15 14 -21 14 q -10 14 -10 14 q 58 39 24 14 q 117 99 93 64 l 214 94 m 776 972 l 776 0 l 647 0 l 647 908 l 776 972 m 650 81 l 650 0 l 564 0 l 565 14 q 572 14 565 14 q 578 14 578 14 q 626 34 606 14 q 647 81 646 54 l 650 81 m 1151 49 l 1151 0 l 772 0 l 772 49 l 1151 49 m 1089 490 l 1089 443 l 407 443 l 414 490 l 1089 490 m 1150 972 l 1150 924 l 699 924 l 678 874 l 160 4 l 56 4 l 640 906 q 642 942 651 926 q 611 958 632 958 l 606 958 l 606 972 l 1150 972 m 1232 219 l 1160 0 l 944 0 l 988 49 q 1132 96 1075 49 q 1218 219 1189 143 l 1232 219 m 1089 447 l 1089 340 l 1075 340 l 1075 358 q 1051 419 1075 394 q 992 443 1028 443 l 992 447 l 1089 447 m 1089 594 l 1089 488 l 992 488 l 992 490 q 1051 517 1028 492 q 1075 576 1075 542 l 1075 594 l 1089 594 m 1150 928 l 1150 814 l 1136 814 l 1138 833 q 1113 898 1140 872 q 1047 924 1086 924 l 1047 928 l 1150 928 m 1150 997 l 1150 957 l 982 972 q 1047 976 1013 972 q 1109 986 1081 981 q 1150 997 1138 992 z "},"B":{"ha":854,"x_min":75,"x_max":793,"o":"m 215 972 l 393 972 q 563 944 492 972 q 673 865 635 917 q 711 739 711 813 q 688 634 711 678 q 629 565 665 590 q 553 529 593 539 q 680 483 625 519 q 764 392 735 447 q 793 264 793 336 q 752 124 793 183 q 633 32 711 64 q 447 0 556 0 l 299 0 q 299 14 299 0 q 300 41 300 28 q 300 54 300 54 l 424 54 q 542 79 493 54 q 618 154 592 104 q 644 276 644 204 q 618 395 644 349 q 550 467 592 442 q 458 503 508 493 q 358 514 407 514 l 358 526 q 426 535 390 526 q 495 564 463 543 q 548 624 528 585 q 568 726 568 664 q 546 835 568 792 q 480 901 524 879 q 374 922 436 922 l 229 922 q 226 935 229 924 q 219 960 222 947 q 215 972 215 972 m 311 972 l 311 0 l 182 0 l 182 972 l 311 972 m 186 101 l 186 0 l 75 0 l 76 14 q 85 14 79 14 q 93 14 92 14 q 156 40 129 14 q 182 101 182 65 l 186 101 m 186 871 l 182 871 q 156 933 182 907 q 93 958 129 958 q 85 958 92 958 q 76 958 79 958 l 75 972 l 186 972 l 186 871 z "},"C":{"ha":1065,"x_min":76,"x_max":992,"o":"m 992 406 l 985 181 q 897 78 950 124 q 768 7 843 33 q 594 -19 693 -19 q 324 44 442 -18 q 142 219 207 106 q 76 488 76 332 q 141 753 76 640 q 323 929 206 867 q 601 992 440 992 q 792 966 707 992 q 936 903 876 940 l 956 693 l 943 693 q 819 883 910 821 q 607 944 728 944 q 401 888 488 944 q 268 730 315 832 q 221 489 221 628 q 267 249 221 351 q 398 88 314 146 q 594 28 482 31 q 776 64 696 28 q 910 183 857 100 q 981 406 963 265 l 992 406 z "},"Ć":{"ha":1065,"x_min":76,"x_max":992,"o":"m 992 406 l 985 181 q 897 78 950 124 q 768 7 843 33 q 594 -19 693 -19 q 324 44 442 -18 q 142 219 207 106 q 76 488 76 332 q 141 753 76 640 q 323 929 206 867 q 601 992 440 992 q 792 966 707 992 q 936 903 876 940 l 956 693 l 943 693 q 819 883 910 821 q 607 944 728 944 q 401 888 488 944 q 268 730 315 832 q 221 489 221 628 q 267 249 221 351 q 398 88 314 146 q 594 28 482 31 q 776 64 696 28 q 910 183 857 100 q 981 406 963 265 l 992 406 z "},"Č":{"ha":1065,"x_min":76,"x_max":992,"o":"m 992 406 l 985 181 q 897 78 950 124 q 768 7 843 33 q 594 -19 693 -19 q 324 44 442 -18 q 142 219 207 106 q 76 488 76 332 q 141 753 76 640 q 323 929 206 867 q 601 992 440 992 q 792 966 707 992 q 936 903 876 940 l 956 693 l 943 693 q 819 883 910 821 q 607 944 728 944 q 401 888 488 944 q 268 730 315 832 q 221 489 221 628 q 267 249 221 351 q 398 88 314 146 q 594 28 482 31 q 776 64 696 28 q 910 183 857 100 q 981 406 963 265 l 992 406 z "},"Ç":{"ha":1065,"x_min":76,"x_max":992,"o":"m 992 406 l 985 181 q 897 78 950 124 q 768 7 843 33 q 594 -19 693 -19 q 324 44 442 -18 q 142 219 207 106 q 76 488 76 332 q 141 753 76 640 q 323 929 206 867 q 601 992 440 992 q 792 966 707 992 q 936 903 876 940 l 956 693 l 943 693 q 819 883 910 821 q 607 944 728 944 q 401 888 488 944 q 268 730 315 832 q 221 489 221 628 q 267 249 221 351 q 398 88 314 146 q 594 28 482 31 q 776 64 696 28 q 910 183 857 100 q 981 406 963 265 l 992 406 z "},"Ċ":{"ha":1065,"x_min":76,"x_max":992,"o":"m 992 406 l 985 181 q 897 78 950 124 q 768 7 843 33 q 594 -19 693 -19 q 324 44 442 -18 q 142 219 207 106 q 76 488 76 332 q 141 753 76 640 q 323 929 206 867 q 601 992 440 992 q 792 966 707 992 q 936 903 876 940 l 956 693 l 943 693 q 819 883 910 821 q 607 944 728 944 q 401 888 488 944 q 268 730 315 832 q 221 489 221 628 q 267 249 221 351 q 398 88 314 146 q 594 28 482 31 q 776 64 696 28 q 910 183 857 100 q 981 406 963 265 l 992 406 z "},"D":{"ha":1131,"x_min":75,"x_max":1067,"o":"m 557 972 q 825 913 711 972 q 1003 743 939 853 q 1067 486 1067 633 q 1003 230 1067 339 q 825 60 939 121 q 557 0 711 0 l 249 0 l 247 47 q 295 47 261 47 q 374 47 329 47 q 458 47 418 47 q 525 47 499 47 q 551 47 551 47 q 747 101 664 47 q 876 254 831 156 q 922 486 922 353 q 876 718 922 619 q 747 871 831 817 q 551 925 664 925 q 524 925 551 925 q 453 925 496 925 q 366 925 411 925 q 284 925 321 925 q 233 925 247 925 l 233 972 l 557 972 m 311 972 l 311 0 l 182 0 l 182 972 l 311 972 m 186 101 l 186 0 l 75 0 l 75 14 q 84 14 75 14 q 93 14 93 14 q 155 40 129 14 q 182 101 181 65 l 186 101 m 186 871 l 182 871 q 156 933 182 907 q 93 958 129 958 q 85 958 93 958 q 76 958 76 958 l 75 972 l 186 972 l 186 871 z "},"Ð":{"ha":1131,"x_min":75,"x_max":1067,"o":"m 75 510 l 528 510 l 528 463 l 75 463 l 75 510 m 561 972 q 829 913 715 972 q 1005 743 943 853 q 1067 486 1067 633 q 1005 230 1067 339 q 829 60 943 121 q 561 0 715 0 l 254 0 l 253 47 q 301 47 267 47 q 378 47 335 47 q 463 47 422 47 q 529 47 503 47 q 556 47 556 47 q 753 101 669 47 q 883 254 836 156 q 929 486 929 353 q 883 718 929 619 q 753 871 836 817 q 556 925 669 925 q 528 925 556 925 q 458 925 500 925 q 370 925 415 925 q 289 925 325 925 q 239 925 253 925 l 239 972 l 561 972 m 317 972 l 317 0 l 188 0 l 188 972 l 317 972 m 192 101 l 192 0 l 81 0 l 81 14 q 90 14 81 14 q 99 14 99 14 q 160 40 135 14 q 188 101 186 65 l 192 101 m 192 871 l 188 871 q 160 933 186 907 q 99 958 135 958 q 90 958 99 958 q 81 958 82 958 l 81 972 l 192 972 l 192 871 z "},"Ď":{"ha":1131,"x_min":75,"x_max":1067,"o":"m 557 972 q 825 913 711 972 q 1003 743 939 853 q 1067 486 1067 633 q 1003 230 1067 339 q 825 60 939 121 q 557 0 711 0 l 249 0 l 247 47 q 295 47 261 47 q 374 47 329 47 q 458 47 418 47 q 525 47 499 47 q 551 47 551 47 q 747 101 664 47 q 876 254 831 156 q 922 486 922 353 q 876 718 922 619 q 747 871 831 817 q 551 925 664 925 q 524 925 551 925 q 453 925 496 925 q 366 925 411 925 q 284 925 321 925 q 233 925 247 925 l 233 972 l 557 972 m 311 972 l 311 0 l 182 0 l 182 972 l 311 972 m 186 101 l 186 0 l 75 0 l 75 14 q 84 14 75 14 q 93 14 93 14 q 155 40 129 14 q 182 101 181 65 l 186 101 m 186 871 l 182 871 q 156 933 182 907 q 93 958 129 958 q 85 958 93 958 q 76 958 76 958 l 75 972 l 186 972 l 186 871 z "},"Đ":{"ha":1131,"x_min":75,"x_max":1067,"o":"m 557 972 q 825 913 711 972 q 1003 743 939 853 q 1067 486 1067 633 q 1003 230 1067 339 q 825 60 939 121 q 557 0 711 0 l 249 0 l 247 47 q 295 47 261 47 q 374 47 329 47 q 458 47 418 47 q 525 47 499 47 q 551 47 551 47 q 747 101 664 47 q 876 254 831 156 q 922 486 922 353 q 876 718 922 619 q 747 871 831 817 q 551 925 664 925 q 524 925 551 925 q 453 925 496 925 q 366 925 411 925 q 284 925 321 925 q 233 925 247 925 l 233 972 l 557 972 m 311 972 l 311 0 l 182 0 l 182 972 l 311 972 m 186 101 l 186 0 l 75 0 l 75 14 q 84 14 75 14 q 93 14 93 14 q 155 40 129 14 q 182 101 181 65 l 186 101 m 186 871 l 182 871 q 156 933 182 907 q 93 958 129 958 q 85 958 93 958 q 76 958 76 958 l 75 972 l 186 972 l 186 871 z "},"E":{"ha":826,"x_min":75,"x_max":774,"o":"m 311 972 l 311 0 l 182 0 l 182 972 l 311 972 m 683 49 l 694 0 l 307 0 l 307 49 l 683 49 m 626 503 l 626 456 l 307 456 l 307 503 l 626 503 m 689 972 l 689 924 l 307 924 l 307 972 l 689 972 m 774 244 l 699 0 l 454 0 l 504 49 q 625 73 576 49 q 706 142 674 97 q 760 244 738 186 l 774 244 m 626 458 l 626 353 l 613 353 l 613 371 q 589 431 613 406 q 529 456 565 456 l 529 458 l 626 458 m 626 606 l 626 500 l 529 500 l 529 503 q 589 529 565 504 q 613 589 613 554 l 613 606 l 626 606 m 689 928 l 689 800 l 675 800 l 675 822 q 647 894 675 865 q 574 925 618 924 l 574 928 l 689 928 m 689 997 l 689 957 l 519 972 q 584 976 550 972 q 647 986 618 981 q 689 997 676 992 m 186 101 l 186 0 l 75 0 l 75 14 q 84 14 75 14 q 93 14 93 14 q 155 40 129 14 q 182 101 181 65 l 186 101 m 186 871 l 182 871 q 156 933 182 907 q 93 958 129 958 q 85 958 93 958 q 76 958 76 958 l 75 972 l 186 972 l 186 871 z "},"É":{"ha":826,"x_min":75,"x_max":774,"o":"m 311 972 l 311 0 l 182 0 l 182 972 l 311 972 m 683 49 l 694 0 l 307 0 l 307 49 l 683 49 m 626 503 l 626 456 l 307 456 l 307 503 l 626 503 m 689 972 l 689 924 l 307 924 l 307 972 l 689 972 m 774 244 l 699 0 l 454 0 l 504 49 q 625 73 576 49 q 706 142 674 97 q 760 244 738 186 l 774 244 m 626 458 l 626 353 l 613 353 l 613 371 q 589 431 613 406 q 529 456 565 456 l 529 458 l 626 458 m 626 606 l 626 500 l 529 500 l 529 503 q 589 529 565 504 q 613 589 613 554 l 613 606 l 626 606 m 689 928 l 689 800 l 675 800 l 675 822 q 647 894 675 865 q 574 925 618 924 l 574 928 l 689 928 m 689 997 l 689 957 l 519 972 q 584 976 550 972 q 647 986 618 981 q 689 997 676 992 m 186 101 l 186 0 l 75 0 l 75 14 q 84 14 75 14 q 93 14 93 14 q 155 40 129 14 q 182 101 181 65 l 186 101 m 186 871 l 182 871 q 156 933 182 907 q 93 958 129 958 q 85 958 93 958 q 76 958 76 958 l 75 972 l 186 972 l 186 871 z "},"Ě":{"ha":826,"x_min":75,"x_max":774,"o":"m 311 972 l 311 0 l 182 0 l 182 972 l 311 972 m 683 49 l 694 0 l 307 0 l 307 49 l 683 49 m 626 503 l 626 456 l 307 456 l 307 503 l 626 503 m 689 972 l 689 924 l 307 924 l 307 972 l 689 972 m 774 244 l 699 0 l 454 0 l 504 49 q 625 73 576 49 q 706 142 674 97 q 760 244 738 186 l 774 244 m 626 458 l 626 353 l 613 353 l 613 371 q 589 431 613 406 q 529 456 565 456 l 529 458 l 626 458 m 626 606 l 626 500 l 529 500 l 529 503 q 589 529 565 504 q 613 589 613 554 l 613 606 l 626 606 m 689 928 l 689 800 l 675 800 l 675 822 q 647 894 675 865 q 574 925 618 924 l 574 928 l 689 928 m 689 997 l 689 957 l 519 972 q 584 976 550 972 q 647 986 618 981 q 689 997 676 992 m 186 101 l 186 0 l 75 0 l 75 14 q 84 14 75 14 q 93 14 93 14 q 155 40 129 14 q 182 101 181 65 l 186 101 m 186 871 l 182 871 q 156 933 182 907 q 93 958 129 958 q 85 958 93 958 q 76 958 76 958 l 75 972 l 186 972 l 186 871 z "},"Ê":{"ha":826,"x_min":75,"x_max":774,"o":"m 311 972 l 311 0 l 182 0 l 182 972 l 311 972 m 683 49 l 694 0 l 307 0 l 307 49 l 683 49 m 626 503 l 626 456 l 307 456 l 307 503 l 626 503 m 689 972 l 689 924 l 307 924 l 307 972 l 689 972 m 774 244 l 699 0 l 454 0 l 504 49 q 625 73 576 49 q 706 142 674 97 q 760 244 738 186 l 774 244 m 626 458 l 626 353 l 613 353 l 613 371 q 589 431 613 406 q 529 456 565 456 l 529 458 l 626 458 m 626 606 l 626 500 l 529 500 l 529 503 q 589 529 565 504 q 613 589 613 554 l 613 606 l 626 606 m 689 928 l 689 800 l 675 800 l 675 822 q 647 894 675 865 q 574 925 618 924 l 574 928 l 689 928 m 689 997 l 689 957 l 519 972 q 584 976 550 972 q 647 986 618 981 q 689 997 676 992 m 186 101 l 186 0 l 75 0 l 75 14 q 84 14 75 14 q 93 14 93 14 q 155 40 129 14 q 182 101 181 65 l 186 101 m 186 871 l 182 871 q 156 933 182 907 q 93 958 129 958 q 85 958 93 958 q 76 958 76 958 l 75 972 l 186 972 l 186 871 z "},"Ë":{"ha":826,"x_min":75,"x_max":774,"o":"m 311 972 l 311 0 l 182 0 l 182 972 l 311 972 m 683 49 l 694 0 l 307 0 l 307 49 l 683 49 m 626 503 l 626 456 l 307 456 l 307 503 l 626 503 m 689 972 l 689 924 l 307 924 l 307 972 l 689 972 m 774 244 l 699 0 l 454 0 l 504 49 q 625 73 576 49 q 706 142 674 97 q 760 244 738 186 l 774 244 m 626 458 l 626 353 l 613 353 l 613 371 q 589 431 613 406 q 529 456 565 456 l 529 458 l 626 458 m 626 606 l 626 500 l 529 500 l 529 503 q 589 529 565 504 q 613 589 613 554 l 613 606 l 626 606 m 689 928 l 689 800 l 675 800 l 675 822 q 647 894 675 865 q 574 925 618 924 l 574 928 l 689 928 m 689 997 l 689 957 l 519 972 q 584 976 550 972 q 647 986 618 981 q 689 997 676 992 m 186 101 l 186 0 l 75 0 l 75 14 q 84 14 75 14 q 93 14 93 14 q 155 40 129 14 q 182 101 181 65 l 186 101 m 186 871 l 182 871 q 156 933 182 907 q 93 958 129 958 q 85 958 93 958 q 76 958 76 958 l 75 972 l 186 972 l 186 871 z "},"Ė":{"ha":826,"x_min":75,"x_max":774,"o":"m 311 972 l 311 0 l 182 0 l 182 972 l 311 972 m 683 49 l 694 0 l 307 0 l 307 49 l 683 49 m 626 503 l 626 456 l 307 456 l 307 503 l 626 503 m 689 972 l 689 924 l 307 924 l 307 972 l 689 972 m 774 244 l 699 0 l 454 0 l 504 49 q 625 73 576 49 q 706 142 674 97 q 760 244 738 186 l 774 244 m 626 458 l 626 353 l 613 353 l 613 371 q 589 431 613 406 q 529 456 565 456 l 529 458 l 626 458 m 626 606 l 626 500 l 529 500 l 529 503 q 589 529 565 504 q 613 589 613 554 l 613 606 l 626 606 m 689 928 l 689 800 l 675 800 l 675 822 q 647 894 675 865 q 574 925 618 924 l 574 928 l 689 928 m 689 997 l 689 957 l 519 972 q 584 976 550 972 q 647 986 618 981 q 689 997 676 992 m 186 101 l 186 0 l 75 0 l 75 14 q 84 14 75 14 q 93 14 93 14 q 155 40 129 14 q 182 101 181 65 l 186 101 m 186 871 l 182 871 q 156 933 182 907 q 93 958 129 958 q 85 958 93 958 q 76 958 76 958 l 75 972 l 186 972 l 186 871 z "},"È":{"ha":826,"x_min":75,"x_max":774,"o":"m 311 972 l 311 0 l 182 0 l 182 972 l 311 972 m 683 49 l 694 0 l 307 0 l 307 49 l 683 49 m 626 503 l 626 456 l 307 456 l 307 503 l 626 503 m 689 972 l 689 924 l 307 924 l 307 972 l 689 972 m 774 244 l 699 0 l 454 0 l 504 49 q 625 73 576 49 q 706 142 674 97 q 760 244 738 186 l 774 244 m 626 458 l 626 353 l 613 353 l 613 371 q 589 431 613 406 q 529 456 565 456 l 529 458 l 626 458 m 626 606 l 626 500 l 529 500 l 529 503 q 589 529 565 504 q 613 589 613 554 l 613 606 l 626 606 m 689 928 l 689 800 l 675 800 l 675 822 q 647 894 675 865 q 574 925 618 924 l 574 928 l 689 928 m 689 997 l 689 957 l 519 972 q 584 976 550 972 q 647 986 618 981 q 689 997 676 992 m 186 101 l 186 0 l 75 0 l 75 14 q 84 14 75 14 q 93 14 93 14 q 155 40 129 14 q 182 101 181 65 l 186 101 m 186 871 l 182 871 q 156 933 182 907 q 93 958 129 958 q 85 958 93 958 q 76 958 76 958 l 75 972 l 186 972 l 186 871 z "},"Ē":{"ha":826,"x_min":75,"x_max":774,"o":"m 311 972 l 311 0 l 182 0 l 182 972 l 311 972 m 683 49 l 694 0 l 307 0 l 307 49 l 683 49 m 626 503 l 626 456 l 307 456 l 307 503 l 626 503 m 689 972 l 689 924 l 307 924 l 307 972 l 689 972 m 774 244 l 699 0 l 454 0 l 504 49 q 625 73 576 49 q 706 142 674 97 q 760 244 738 186 l 774 244 m 626 458 l 626 353 l 613 353 l 613 371 q 589 431 613 406 q 529 456 565 456 l 529 458 l 626 458 m 626 606 l 626 500 l 529 500 l 529 503 q 589 529 565 504 q 613 589 613 554 l 613 606 l 626 606 m 689 928 l 689 800 l 675 800 l 675 822 q 647 894 675 865 q 574 925 618 924 l 574 928 l 689 928 m 689 997 l 689 957 l 519 972 q 584 976 550 972 q 647 986 618 981 q 689 997 676 992 m 186 101 l 186 0 l 75 0 l 75 14 q 84 14 75 14 q 93 14 93 14 q 155 40 129 14 q 182 101 181 65 l 186 101 m 186 871 l 182 871 q 156 933 182 907 q 93 958 129 958 q 85 958 93 958 q 76 958 76 958 l 75 972 l 186 972 l 186 871 z "},"Ę":{"ha":826,"x_min":75,"x_max":774,"o":"m 311 972 l 311 0 l 182 0 l 182 972 l 311 972 m 683 49 l 694 0 l 307 0 l 307 49 l 683 49 m 626 503 l 626 456 l 307 456 l 307 503 l 626 503 m 689 972 l 689 924 l 307 924 l 307 972 l 689 972 m 774 244 l 699 0 l 454 0 l 504 49 q 625 73 576 49 q 706 142 674 97 q 760 244 738 186 l 774 244 m 626 458 l 626 353 l 613 353 l 613 371 q 589 431 613 406 q 529 456 565 456 l 529 458 l 626 458 m 626 606 l 626 500 l 529 500 l 529 503 q 589 529 565 504 q 613 589 613 554 l 613 606 l 626 606 m 689 928 l 689 800 l 675 800 l 675 822 q 647 894 675 865 q 574 925 618 924 l 574 928 l 689 928 m 689 997 l 689 957 l 519 972 q 584 976 550 972 q 647 986 618 981 q 689 997 676 992 m 186 101 l 186 0 l 75 0 l 75 14 q 84 14 75 14 q 93 14 93 14 q 155 40 129 14 q 182 101 181 65 l 186 101 m 186 871 l 182 871 q 156 933 182 907 q 93 958 129 958 q 85 958 93 958 q 76 958 76 958 l 75 972 l 186 972 l 186 871 z "},"F":{"ha":776,"x_min":75,"x_max":689,"o":"m 311 972 l 311 0 l 182 0 l 182 972 l 311 972 m 626 503 l 626 456 l 307 456 l 307 503 l 626 503 m 689 972 l 689 924 l 307 924 l 307 972 l 689 972 m 626 458 l 626 353 l 613 353 l 613 371 q 589 431 613 406 q 529 456 565 456 l 529 458 l 626 458 m 626 606 l 626 500 l 529 500 l 529 503 q 589 529 565 504 q 613 589 613 554 l 613 606 l 626 606 m 689 928 l 689 814 l 675 814 l 675 833 q 649 898 675 872 q 585 924 624 924 l 585 928 l 689 928 m 689 997 l 689 957 l 519 972 q 584 976 550 972 q 647 986 618 981 q 689 997 676 992 m 186 101 l 186 0 l 75 0 l 75 14 q 84 14 75 14 q 93 14 93 14 q 155 40 129 14 q 182 101 181 65 l 186 101 m 186 871 l 182 871 q 156 933 182 907 q 93 958 129 958 q 85 958 93 958 q 76 958 76 958 l 75 972 l 186 972 l 186 871 m 307 101 l 311 101 q 338 40 313 65 q 400 14 364 14 q 408 14 400 14 q 418 14 417 14 l 418 0 l 307 0 l 307 101 z "},"G":{"ha":1126,"x_min":76,"x_max":1096,"o":"m 1006 389 l 1006 160 q 915 76 974 118 q 774 8 857 35 q 583 -19 692 -19 q 319 44 433 -18 q 140 220 204 107 q 76 486 76 333 q 140 753 76 639 q 319 929 204 867 q 586 992 433 992 q 728 980 663 992 q 846 948 793 968 q 939 903 899 928 l 958 693 l 946 693 q 875 834 924 779 q 756 917 826 889 q 600 944 686 944 q 399 888 485 944 q 267 727 314 831 q 221 483 221 624 q 267 244 221 347 q 395 85 313 142 q 590 28 478 29 q 701 43 647 28 q 800 86 754 58 q 876 154 846 114 l 878 389 q 807 451 878 451 l 785 451 l 785 465 l 1096 465 l 1096 451 l 1075 451 q 1006 389 1003 451 z "},"Ğ":{"ha":1126,"x_min":76,"x_max":1096,"o":"m 1006 389 l 1006 160 q 915 76 974 118 q 774 8 857 35 q 583 -19 692 -19 q 319 44 433 -18 q 140 220 204 107 q 76 486 76 333 q 140 753 76 639 q 319 929 204 867 q 586 992 433 992 q 728 980 663 992 q 846 948 793 968 q 939 903 899 928 l 958 693 l 946 693 q 875 834 924 779 q 756 917 826 889 q 600 944 686 944 q 399 888 485 944 q 267 727 314 831 q 221 483 221 624 q 267 244 221 347 q 395 85 313 142 q 590 28 478 29 q 701 43 647 28 q 800 86 754 58 q 876 154 846 114 l 878 389 q 807 451 878 451 l 785 451 l 785 465 l 1096 465 l 1096 451 l 1075 451 q 1006 389 1003 451 z "},"Ģ":{"ha":1126,"x_min":76,"x_max":1096,"o":"m 1006 389 l 1006 160 q 915 76 974 118 q 774 8 857 35 q 583 -19 692 -19 q 319 44 433 -18 q 140 220 204 107 q 76 486 76 333 q 140 753 76 639 q 319 929 204 867 q 586 992 433 992 q 728 980 663 992 q 846 948 793 968 q 939 903 899 928 l 958 693 l 946 693 q 875 834 924 779 q 756 917 826 889 q 600 944 686 944 q 399 888 485 944 q 267 727 314 831 q 221 483 221 624 q 267 244 221 347 q 395 85 313 142 q 590 28 478 29 q 701 43 647 28 q 800 86 754 58 q 876 154 846 114 l 878 389 q 807 451 878 451 l 785 451 l 785 465 l 1096 465 l 1096 451 l 1075 451 q 1006 389 1003 451 m 538 -137 q 553 -101 538 -114 q 589 -89 568 -89 q 640 -120 624 -89 q 656 -183 656 -151 q 620 -271 656 -236 q 535 -308 585 -306 l 532 -297 q 571 -271 558 -287 q 583 -236 583 -254 q 578 -212 583 -224 q 565 -190 574 -200 q 547 -166 556 -179 q 538 -137 538 -153 z "},"Ġ":{"ha":1126,"x_min":76,"x_max":1096,"o":"m 1006 389 l 1006 160 q 915 76 974 118 q 774 8 857 35 q 583 -19 692 -19 q 319 44 433 -18 q 140 220 204 107 q 76 486 76 333 q 140 753 76 639 q 319 929 204 867 q 586 992 433 992 q 728 980 663 992 q 846 948 793 968 q 939 903 899 928 l 958 693 l 946 693 q 875 834 924 779 q 756 917 826 889 q 600 944 686 944 q 399 888 485 944 q 267 727 314 831 q 221 483 221 624 q 267 244 221 347 q 395 85 313 142 q 590 28 478 29 q 701 43 647 28 q 800 86 754 58 q 876 154 846 114 l 878 389 q 807 451 878 451 l 785 451 l 785 465 l 1096 465 l 1096 451 l 1075 451 q 1006 389 1003 451 z "},"H":{"ha":1151,"x_min":75,"x_max":1076,"o":"m 969 972 l 969 0 l 840 0 l 840 972 l 969 972 m 311 972 l 311 0 l 182 0 l 182 972 l 311 972 m 853 506 l 853 458 l 297 458 l 297 506 l 853 506 m 186 101 l 186 0 l 75 0 l 75 14 q 84 14 75 14 q 93 14 93 14 q 155 40 129 14 q 182 101 181 65 l 186 101 m 186 871 l 182 871 q 155 933 181 907 q 93 958 129 958 q 84 958 93 958 q 75 958 75 958 l 75 972 l 186 972 l 186 871 m 307 101 l 311 101 q 338 40 313 65 q 400 14 364 14 q 408 14 400 14 q 418 14 417 14 l 418 0 l 307 0 l 307 101 m 307 871 l 307 972 l 418 972 l 418 958 q 408 958 417 958 q 400 958 400 958 q 338 933 364 958 q 311 871 313 907 l 307 871 m 844 101 l 844 0 l 733 0 l 733 14 q 743 14 735 14 q 751 14 751 14 q 814 40 788 14 q 840 101 840 65 l 844 101 m 844 871 l 840 871 q 814 933 840 907 q 751 958 788 958 q 743 958 751 958 q 733 958 735 958 l 733 972 l 844 972 l 844 871 m 965 101 l 969 101 q 997 40 971 65 q 1058 14 1022 14 q 1067 14 1058 14 q 1076 14 1076 14 l 1076 0 l 965 0 l 965 101 m 965 871 l 965 972 l 1076 972 l 1076 958 q 1067 958 1076 958 q 1058 958 1058 958 q 997 933 1022 958 q 969 871 971 907 l 965 871 z "},"Ħ":{"ha":1113,"x_min":56,"x_max":1058,"o":"m 1043 736 l 1043 689 l 74 689 l 74 736 l 1043 736 m 951 972 l 951 0 l 821 0 l 821 972 l 951 972 m 293 972 l 293 0 l 163 0 l 163 972 l 293 972 m 833 506 l 833 458 l 278 458 l 278 506 l 833 506 m 167 101 l 167 0 l 56 0 l 56 14 q 65 14 56 14 q 74 14 74 14 q 135 40 110 14 q 163 101 161 65 l 167 101 m 167 871 l 163 871 q 135 933 161 907 q 74 958 110 958 q 65 958 74 958 q 56 958 56 958 l 56 972 l 167 972 l 167 871 m 289 101 l 293 101 q 319 40 293 65 q 382 14 346 14 q 390 14 382 14 q 399 14 399 14 l 399 0 l 289 0 l 289 101 m 289 871 l 289 972 l 399 972 l 399 958 q 390 958 399 958 q 382 958 382 958 q 319 933 346 958 q 293 871 293 907 l 289 871 m 825 101 l 825 0 l 714 0 l 714 14 q 724 14 715 14 q 732 14 732 14 q 794 40 768 14 q 821 101 821 65 l 825 101 m 825 871 l 821 871 q 794 933 821 907 q 732 958 768 958 q 724 958 732 958 q 714 958 715 958 l 714 972 l 825 972 l 825 871 m 947 101 l 951 101 q 978 40 953 65 q 1040 14 1004 14 q 1049 14 1040 14 q 1058 14 1057 14 l 1058 0 l 947 0 l 947 101 m 947 871 l 947 972 l 1058 972 l 1058 958 q 1049 958 1057 958 q 1040 958 1040 958 q 978 933 1004 958 q 951 871 953 907 l 947 871 z "},"I":{"ha":492,"x_min":75,"x_max":418,"o":"m 311 972 l 311 0 l 182 0 l 182 972 l 311 972 m 186 101 l 186 0 l 75 0 l 75 14 q 84 14 75 14 q 93 14 93 14 q 155 40 129 14 q 182 101 181 65 l 186 101 m 186 871 l 182 871 q 155 933 181 907 q 93 958 129 958 q 84 958 93 958 q 75 958 75 958 l 75 972 l 186 972 l 186 871 m 307 101 l 311 101 q 338 40 313 65 q 400 14 364 14 q 408 14 400 14 q 418 14 417 14 l 418 0 l 307 0 l 307 101 m 307 871 l 307 972 l 418 972 l 418 958 q 408 958 417 958 q 400 958 400 958 q 338 933 364 958 q 311 871 313 907 l 307 871 z "},"Ĳ":{"ha":969,"x_min":75,"x_max":911,"o":"m 311 972 l 311 0 l 182 0 l 182 972 l 311 972 m 186 101 l 186 0 l 75 0 l 75 14 q 84 14 75 14 q 93 14 93 14 q 155 40 129 14 q 182 101 181 65 l 186 101 m 186 871 l 182 871 q 155 933 181 907 q 93 958 129 958 q 84 958 93 958 q 75 958 75 958 l 75 972 l 186 972 l 186 871 m 307 101 l 311 101 q 338 40 313 65 q 400 14 364 14 q 408 14 400 14 q 418 14 417 14 l 418 0 l 307 0 l 307 101 m 307 871 l 307 972 l 418 972 l 418 958 q 408 958 417 958 q 400 958 400 958 q 338 933 364 958 q 311 871 313 907 l 307 871 m 804 972 l 804 14 q 781 -105 804 -50 q 718 -199 758 -160 q 625 -259 678 -237 q 513 -278 572 -281 l 513 -265 q 599 -202 563 -246 q 656 -101 636 -158 q 675 18 675 -43 l 675 972 l 804 972 m 679 871 l 675 871 q 648 933 674 907 q 586 958 622 958 q 577 958 586 958 q 568 958 568 958 l 568 972 l 679 972 l 679 871 m 800 871 l 800 972 l 911 972 l 911 958 q 902 958 911 958 q 893 958 893 958 q 831 933 857 958 q 804 871 806 907 l 800 871 z "},"Í":{"ha":492,"x_min":75,"x_max":486,"o":"m 311 972 l 311 0 l 182 0 l 182 972 l 311 972 m 186 101 l 186 0 l 75 0 l 75 14 q 84 14 75 14 q 93 14 93 14 q 155 40 129 14 q 182 101 181 65 l 186 101 m 186 871 l 182 871 q 155 933 181 907 q 93 958 129 958 q 84 958 93 958 q 75 958 75 958 l 75 972 l 186 972 l 186 871 m 307 101 l 311 101 q 338 40 313 65 q 400 14 364 14 q 408 14 400 14 q 418 14 417 14 l 418 0 l 307 0 l 307 101 m 307 871 l 307 972 l 418 972 l 418 958 q 408 958 417 958 q 400 958 400 958 q 338 933 364 958 q 311 871 313 907 l 307 871 z "},"Î":{"ha":492,"x_min":74,"x_max":429,"o":"m 311 972 l 311 0 l 182 0 l 182 972 l 311 972 m 186 101 l 186 0 l 75 0 l 75 14 q 84 14 75 14 q 93 14 93 14 q 155 40 129 14 q 182 101 181 65 l 186 101 m 186 871 l 182 871 q 155 933 181 907 q 93 958 129 958 q 84 958 93 958 q 75 958 75 958 l 75 972 l 186 972 l 186 871 m 307 101 l 311 101 q 338 40 313 65 q 400 14 364 14 q 408 14 400 14 q 418 14 417 14 l 418 0 l 307 0 l 307 101 m 307 871 l 307 972 l 418 972 l 418 958 q 408 958 417 958 q 400 958 400 958 q 338 933 364 958 q 311 871 313 907 l 307 871 z "},"Ï":{"ha":492,"x_min":40,"x_max":450,"o":"m 311 972 l 311 0 l 182 0 l 182 972 l 311 972 m 186 101 l 186 0 l 75 0 l 75 14 q 84 14 75 14 q 93 14 93 14 q 155 40 129 14 q 182 101 181 65 l 186 101 m 186 871 l 182 871 q 155 933 181 907 q 93 958 129 958 q 84 958 93 958 q 75 958 75 958 l 75 972 l 186 972 l 186 871 m 307 101 l 311 101 q 338 40 313 65 q 400 14 364 14 q 408 14 400 14 q 418 14 417 14 l 418 0 l 307 0 l 307 101 m 307 871 l 307 972 l 418 972 l 418 958 q 408 958 417 958 q 400 958 400 958 q 338 933 364 958 q 311 871 313 907 l 307 871 z "},"İ":{"ha":492,"x_min":75,"x_max":418,"o":"m 311 972 l 311 0 l 182 0 l 182 972 l 311 972 m 186 101 l 186 0 l 75 0 l 75 14 q 84 14 75 14 q 93 14 93 14 q 155 40 129 14 q 182 101 181 65 l 186 101 m 186 871 l 182 871 q 155 933 181 907 q 93 958 129 958 q 84 958 93 958 q 75 958 75 958 l 75 972 l 186 972 l 186 871 m 307 101 l 311 101 q 338 40 313 65 q 400 14 364 14 q 408 14 400 14 q 418 14 417 14 l 418 0 l 307 0 l 307 101 m 307 871 l 307 972 l 418 972 l 418 958 q 408 958 417 958 q 400 958 400 958 q 338 933 364 958 q 311 871 313 907 l 307 871 z "},"Ì":{"ha":492,"x_min":10,"x_max":418,"o":"m 311 972 l 311 0 l 182 0 l 182 972 l 311 972 m 186 101 l 186 0 l 75 0 l 75 14 q 84 14 75 14 q 93 14 93 14 q 155 40 129 14 q 182 101 181 65 l 186 101 m 186 871 l 182 871 q 155 933 181 907 q 93 958 129 958 q 84 958 93 958 q 75 958 75 958 l 75 972 l 186 972 l 186 871 m 307 101 l 311 101 q 338 40 313 65 q 400 14 364 14 q 408 14 400 14 q 418 14 417 14 l 418 0 l 307 0 l 307 101 m 307 871 l 307 972 l 418 972 l 418 958 q 408 958 417 958 q 400 958 400 958 q 338 933 364 958 q 311 871 313 907 l 307 871 m 264 1071 l 254 1061 q 174 1096 215 1076 q 90 1137 132 1115 q 10 1182 49 1158 q 40 1230 22 1208 q 79 1268 57 1251 q 143 1208 111 1240 q 206 1141 175 1175 q 264 1071 236 1107 z "},"Ī":{"ha":492,"x_min":71,"x_max":429,"o":"m 311 972 l 311 0 l 182 0 l 182 972 l 311 972 m 186 101 l 186 0 l 75 0 l 75 14 q 84 14 75 14 q 93 14 93 14 q 155 40 129 14 q 182 101 181 65 l 186 101 m 186 871 l 182 871 q 155 933 181 907 q 93 958 129 958 q 84 958 93 958 q 75 958 75 958 l 75 972 l 186 972 l 186 871 m 307 101 l 311 101 q 338 40 313 65 q 400 14 364 14 q 408 14 400 14 q 418 14 417 14 l 418 0 l 307 0 l 307 101 m 307 871 l 307 972 l 418 972 l 418 958 q 408 958 417 958 q 400 958 400 958 q 338 933 364 958 q 311 871 313 907 l 307 871 z "},"Į":{"ha":492,"x_min":75,"x_max":418,"o":"m 311 972 l 311 0 l 182 0 l 182 972 l 311 972 m 186 101 l 186 0 l 75 0 l 75 14 q 84 14 75 14 q 93 14 93 14 q 155 40 129 14 q 182 101 181 65 l 186 101 m 186 871 l 182 871 q 155 933 181 907 q 93 958 129 958 q 84 958 93 958 q 75 958 75 958 l 75 972 l 186 972 l 186 871 m 307 101 l 311 101 q 338 40 313 65 q 400 14 364 14 q 408 14 400 14 q 418 14 417 14 l 418 0 l 307 0 l 307 101 m 307 871 l 307 972 l 418 972 l 418 958 q 408 958 417 958 q 400 958 400 958 q 338 933 364 958 q 311 871 313 907 l 307 871 z "},"J":{"ha":478,"x_min":21,"x_max":419,"o":"m 313 972 l 313 14 q 290 -105 313 -50 q 226 -199 267 -160 q 133 -259 186 -237 q 21 -278 81 -281 l 21 -265 q 108 -202 71 -246 q 164 -101 144 -158 q 183 18 183 -43 l 183 972 l 313 972 m 188 871 l 183 871 q 156 933 182 907 q 94 958 131 958 q 85 958 94 958 q 76 958 76 958 l 76 972 l 188 972 l 188 871 m 308 871 l 308 972 l 419 972 l 419 958 q 410 958 419 958 q 401 958 401 958 q 340 933 365 958 q 313 871 314 907 l 308 871 z "},"K":{"ha":958,"x_min":75,"x_max":978,"o":"m 458 556 l 843 81 q 904 32 874 49 q 978 14 935 15 l 978 0 l 900 0 q 857 2 886 0 q 793 13 828 4 q 724 40 758 21 q 663 92 689 58 q 637 123 660 94 q 579 195 614 151 q 506 288 544 239 q 433 378 468 336 q 377 448 399 421 q 356 475 356 475 l 458 556 m 843 963 l 426 478 l 356 475 l 738 963 l 843 963 m 939 972 l 939 960 l 933 960 q 848 942 888 960 q 781 892 808 924 l 685 894 q 691 939 703 918 q 651 960 679 960 l 638 960 l 638 972 l 933 972 l 939 972 m 311 972 l 311 0 l 182 0 l 182 972 l 311 972 m 186 101 l 186 0 l 75 0 l 75 14 q 84 14 75 14 q 93 14 93 14 q 155 40 129 14 q 182 101 181 65 l 186 101 m 186 871 l 182 871 q 155 933 181 907 q 93 958 129 958 q 84 958 93 958 q 75 958 75 958 l 75 972 l 186 972 l 186 871 m 307 101 l 311 101 q 338 40 313 65 q 400 14 364 14 q 409 14 401 14 q 418 14 417 14 l 418 0 l 307 0 l 307 101 m 307 871 l 307 972 l 418 972 l 418 958 q 409 958 417 958 q 400 958 401 958 q 338 933 364 958 q 311 871 313 907 l 307 871 z "},"Ķ":{"ha":958,"x_min":75,"x_max":978,"o":"m 458 556 l 843 81 q 904 32 874 49 q 978 14 935 15 l 978 0 l 900 0 q 857 2 886 0 q 793 13 828 4 q 724 40 758 21 q 663 92 689 58 q 637 123 660 94 q 579 195 614 151 q 506 288 544 239 q 433 378 468 336 q 377 448 399 421 q 356 475 356 475 l 458 556 m 843 963 l 426 478 l 356 475 l 738 963 l 843 963 m 939 972 l 939 960 l 933 960 q 848 942 888 960 q 781 892 808 924 l 685 894 q 691 939 703 918 q 651 960 679 960 l 638 960 l 638 972 l 933 972 l 939 972 m 311 972 l 311 0 l 182 0 l 182 972 l 311 972 m 186 101 l 186 0 l 75 0 l 75 14 q 84 14 75 14 q 93 14 93 14 q 155 40 129 14 q 182 101 181 65 l 186 101 m 186 871 l 182 871 q 155 933 181 907 q 93 958 129 958 q 84 958 93 958 q 75 958 75 958 l 75 972 l 186 972 l 186 871 m 307 101 l 311 101 q 338 40 313 65 q 400 14 364 14 q 409 14 401 14 q 418 14 417 14 l 418 0 l 307 0 l 307 101 m 307 871 l 307 972 l 418 972 l 418 958 q 409 958 417 958 q 400 958 401 958 q 338 933 364 958 q 311 871 313 907 l 307 871 m 508 -137 q 524 -101 508 -114 q 560 -89 539 -89 q 610 -120 594 -89 q 626 -183 626 -151 q 591 -271 626 -236 q 506 -308 556 -306 l 503 -297 q 542 -271 529 -287 q 554 -236 554 -254 q 549 -212 554 -224 q 536 -190 544 -200 q 517 -166 526 -179 q 508 -137 508 -153 z "},"L":{"ha":806,"x_min":75,"x_max":774,"o":"m 311 972 l 311 0 l 182 0 l 182 972 l 311 972 m 683 49 l 694 0 l 307 0 l 307 49 l 683 49 m 774 244 l 699 0 l 454 0 l 504 49 q 625 73 576 49 q 706 142 674 97 q 760 244 738 186 l 774 244 m 186 101 l 186 0 l 75 0 l 75 14 q 84 14 75 14 q 93 14 93 14 q 155 40 129 14 q 182 101 181 65 l 186 101 m 186 871 l 182 871 q 155 933 181 907 q 93 958 129 958 q 84 958 93 958 q 75 958 75 958 l 75 972 l 186 972 l 186 871 m 307 871 l 307 972 l 418 972 l 418 958 q 408 958 417 958 q 400 958 400 958 q 338 933 364 958 q 311 871 313 907 l 307 871 z "},"Ĺ":{"ha":806,"x_min":75,"x_max":774,"o":"m 311 972 l 311 0 l 182 0 l 182 972 l 311 972 m 683 49 l 694 0 l 307 0 l 307 49 l 683 49 m 774 244 l 699 0 l 454 0 l 504 49 q 625 73 576 49 q 706 142 674 97 q 760 244 738 186 l 774 244 m 186 101 l 186 0 l 75 0 l 75 14 q 84 14 75 14 q 93 14 93 14 q 155 40 129 14 q 182 101 181 65 l 186 101 m 186 871 l 182 871 q 155 933 181 907 q 93 958 129 958 q 84 958 93 958 q 75 958 75 958 l 75 972 l 186 972 l 186 871 m 307 871 l 307 972 l 418 972 l 418 958 q 408 958 417 958 q 400 958 400 958 q 338 933 364 958 q 311 871 313 907 l 307 871 z "},"Ľ":{"ha":806,"x_min":75,"x_max":774,"o":"m 311 972 l 311 0 l 182 0 l 182 972 l 311 972 m 683 49 l 694 0 l 307 0 l 307 49 l 683 49 m 774 244 l 699 0 l 454 0 l 504 49 q 625 73 576 49 q 706 142 674 97 q 760 244 738 186 l 774 244 m 186 101 l 186 0 l 75 0 l 75 14 q 84 14 75 14 q 93 14 93 14 q 155 40 129 14 q 182 101 181 65 l 186 101 m 186 871 l 182 871 q 155 933 181 907 q 93 958 129 958 q 84 958 93 958 q 75 958 75 958 l 75 972 l 186 972 l 186 871 m 307 871 l 307 972 l 418 972 l 418 958 q 408 958 417 958 q 400 958 400 958 q 338 933 364 958 q 311 871 313 907 l 307 871 m 536 958 q 567 979 547 975 q 606 974 586 983 q 635 942 625 965 q 647 875 650 908 q 626 816 643 842 q 583 776 608 790 q 525 763 557 761 l 522 772 q 564 803 553 783 q 572 844 575 822 q 556 879 569 865 q 533 917 542 896 q 536 958 524 938 z "},"Ļ":{"ha":806,"x_min":75,"x_max":774,"o":"m 311 972 l 311 0 l 182 0 l 182 972 l 311 972 m 683 49 l 694 0 l 307 0 l 307 49 l 683 49 m 774 244 l 699 0 l 454 0 l 504 49 q 625 73 576 49 q 706 142 674 97 q 760 244 738 186 l 774 244 m 186 101 l 186 0 l 75 0 l 75 14 q 84 14 75 14 q 93 14 93 14 q 155 40 129 14 q 182 101 181 65 l 186 101 m 186 871 l 182 871 q 155 933 181 907 q 93 958 129 958 q 84 958 93 958 q 75 958 75 958 l 75 972 l 186 972 l 186 871 m 307 871 l 307 972 l 418 972 l 418 958 q 408 958 417 958 q 400 958 400 958 q 338 933 364 958 q 311 871 313 907 l 307 871 m 388 -137 q 403 -101 388 -114 q 439 -89 418 -89 q 490 -120 474 -89 q 506 -183 506 -151 q 470 -271 506 -236 q 385 -308 435 -306 l 382 -297 q 421 -271 408 -287 q 433 -236 433 -254 q 428 -212 433 -224 q 415 -190 424 -200 q 397 -166 406 -179 q 388 -137 388 -153 z "},"Ŀ":{"ha":806,"x_min":75,"x_max":774,"o":"m 311 972 l 311 0 l 182 0 l 182 972 l 311 972 m 186 101 l 186 0 l 75 0 l 75 14 q 84 14 75 14 q 93 14 93 14 q 155 40 129 14 q 182 101 181 65 l 186 101 m 683 49 l 694 0 l 307 0 l 307 49 l 683 49 m 774 244 l 699 0 l 454 0 l 504 49 q 625 73 576 49 q 706 142 674 97 q 760 244 738 186 l 774 244 m 186 972 l 186 871 l 182 871 q 155 933 181 907 q 93 958 129 958 q 84 958 93 958 q 75 958 75 958 l 75 972 l 186 972 m 418 972 l 418 958 q 408 958 417 958 q 400 958 400 958 q 338 933 364 958 q 311 871 313 907 l 307 871 l 307 972 l 418 972 m 501 539 q 452 559 474 539 q 431 610 431 579 q 452 659 431 639 q 501 679 474 679 q 552 659 532 679 q 572 610 572 639 q 552 559 572 579 q 501 539 532 539 z "},"Ł":{"ha":806,"x_min":25,"x_max":774,"o":"m 311 972 l 311 0 l 182 0 l 182 972 l 311 972 m 186 972 l 186 871 l 182 871 q 155 933 181 907 q 93 958 129 958 q 84 958 93 958 q 75 958 75 958 l 75 972 l 186 972 m 418 972 l 418 958 q 408 958 417 958 q 400 958 400 958 q 338 933 364 958 q 311 871 313 907 l 307 871 l 307 972 l 418 972 m 186 101 l 186 0 l 75 0 l 75 14 q 84 14 75 14 q 93 14 93 14 q 155 40 129 14 q 182 101 181 65 l 186 101 m 683 49 l 694 0 l 307 0 l 307 49 l 683 49 m 774 244 l 699 0 l 454 0 l 504 49 q 625 73 576 49 q 706 142 674 97 q 760 244 738 186 l 774 244 m 25 381 l 471 638 l 494 596 l 49 339 l 25 381 z "},"M":{"ha":1303,"x_min":10,"x_max":1294,"o":"m 1047 992 l 1058 879 l 689 124 q 677 99 689 124 q 653 42 665 75 q 639 -22 642 8 l 625 -22 l 594 76 l 1047 992 m 164 101 l 164 0 l 10 0 l 10 14 q 22 14 11 14 q 32 14 32 14 q 99 37 69 14 q 133 101 128 60 l 164 101 m 211 79 q 211 76 211 78 q 211 72 211 75 q 227 31 211 50 q 265 13 243 13 l 286 13 l 286 0 l 201 0 l 201 79 l 211 79 m 242 992 l 254 992 l 289 890 l 204 0 l 121 0 l 242 992 m 254 992 l 672 167 l 625 -22 l 225 778 l 254 992 m 1060 992 l 1183 0 l 1036 0 l 963 774 l 1047 992 l 1060 992 m 1142 101 l 1171 101 q 1207 37 1178 60 q 1272 14 1236 14 q 1283 14 1272 14 q 1294 14 1294 14 l 1294 0 l 1142 0 l 1142 101 m 1029 79 l 1039 79 l 1039 0 l 954 0 l 954 13 l 975 13 q 1014 31 999 13 q 1029 72 1029 50 q 1029 76 1029 75 q 1029 79 1029 78 z "},"N":{"ha":1179,"x_min":56,"x_max":1124,"o":"m 167 993 l 1000 138 l 1014 -19 l 181 835 l 167 993 m 171 99 l 171 0 l 56 0 l 56 14 q 68 14 56 14 q 82 14 81 14 q 142 39 117 14 q 167 99 167 64 l 171 99 m 275 99 q 300 39 275 64 q 360 14 325 14 q 374 14 361 14 q 386 14 386 14 l 386 0 l 271 0 l 271 99 l 275 99 m 167 993 l 274 871 l 275 0 l 167 0 l 167 819 q 160 943 167 893 q 153 993 153 993 l 167 993 m 1013 972 l 1013 158 q 1016 70 1013 111 q 1023 5 1019 29 q 1026 -19 1026 -19 l 1014 -19 l 906 104 l 906 972 l 1013 972 m 1124 972 l 1124 958 q 1111 958 1124 958 q 1099 958 1099 958 q 1039 934 1064 958 q 1013 874 1014 910 l 1008 874 l 1008 972 l 1124 972 m 793 972 l 908 972 l 908 874 l 906 874 q 880 934 904 910 q 819 958 856 958 q 807 958 819 958 q 793 958 794 958 l 793 972 z "},"Ń":{"ha":1179,"x_min":56,"x_max":1124,"o":"m 167 993 l 1000 138 l 1014 -19 l 181 835 l 167 993 m 171 99 l 171 0 l 56 0 l 56 14 q 68 14 56 14 q 82 14 81 14 q 142 39 117 14 q 167 99 167 64 l 171 99 m 275 99 q 300 39 275 64 q 360 14 325 14 q 374 14 361 14 q 386 14 386 14 l 386 0 l 271 0 l 271 99 l 275 99 m 167 993 l 274 871 l 275 0 l 167 0 l 167 819 q 160 943 167 893 q 153 993 153 993 l 167 993 m 1013 972 l 1013 158 q 1016 70 1013 111 q 1023 5 1019 29 q 1026 -19 1026 -19 l 1014 -19 l 906 104 l 906 972 l 1013 972 m 1124 972 l 1124 958 q 1111 958 1124 958 q 1099 958 1099 958 q 1039 934 1064 958 q 1013 874 1014 910 l 1008 874 l 1008 972 l 1124 972 m 793 972 l 908 972 l 908 874 l 906 874 q 880 934 904 910 q 819 958 856 958 q 807 958 819 958 q 793 958 794 958 l 793 972 z "},"Ň":{"ha":1179,"x_min":56,"x_max":1124,"o":"m 167 993 l 1000 138 l 1014 -19 l 181 835 l 167 993 m 171 99 l 171 0 l 56 0 l 56 14 q 68 14 56 14 q 82 14 81 14 q 142 39 117 14 q 167 99 167 64 l 171 99 m 275 99 q 300 39 275 64 q 360 14 325 14 q 374 14 361 14 q 386 14 386 14 l 386 0 l 271 0 l 271 99 l 275 99 m 167 993 l 274 871 l 275 0 l 167 0 l 167 819 q 160 943 167 893 q 153 993 153 993 l 167 993 m 1013 972 l 1013 158 q 1016 70 1013 111 q 1023 5 1019 29 q 1026 -19 1026 -19 l 1014 -19 l 906 104 l 906 972 l 1013 972 m 1124 972 l 1124 958 q 1111 958 1124 958 q 1099 958 1099 958 q 1039 934 1064 958 q 1013 874 1014 910 l 1008 874 l 1008 972 l 1124 972 m 793 972 l 908 972 l 908 874 l 906 874 q 880 934 904 910 q 819 958 856 958 q 807 958 819 958 q 793 958 794 958 l 793 972 z "},"Ņ":{"ha":1179,"x_min":56,"x_max":1124,"o":"m 167 993 l 1000 138 l 1014 -19 l 181 835 l 167 993 m 171 99 l 171 0 l 56 0 l 56 14 q 68 14 56 14 q 82 14 81 14 q 142 39 117 14 q 167 99 167 64 l 171 99 m 275 99 q 300 39 275 64 q 360 14 325 14 q 374 14 361 14 q 386 14 386 14 l 386 0 l 271 0 l 271 99 l 275 99 m 167 993 l 274 871 l 275 0 l 167 0 l 167 819 q 160 943 167 893 q 153 993 153 993 l 167 993 m 1013 972 l 1013 158 q 1016 70 1013 111 q 1023 5 1019 29 q 1026 -19 1026 -19 l 1014 -19 l 906 104 l 906 972 l 1013 972 m 1124 972 l 1124 958 q 1111 958 1124 958 q 1099 958 1099 958 q 1039 934 1064 958 q 1013 874 1014 910 l 1008 874 l 1008 972 l 1124 972 m 793 972 l 908 972 l 908 874 l 906 874 q 880 934 904 910 q 819 958 856 958 q 807 958 819 958 q 793 958 794 958 l 793 972 m 564 -137 q 579 -101 564 -114 q 615 -89 594 -89 q 666 -120 650 -89 q 682 -183 682 -151 q 647 -271 682 -236 q 561 -308 611 -306 l 558 -297 q 597 -271 585 -287 q 610 -236 610 -254 q 605 -212 610 -224 q 592 -190 600 -200 q 573 -166 582 -179 q 564 -137 564 -153 z "},"Ŋ":{"ha":1158,"x_min":56,"x_max":1100,"o":"m 154 993 l 260 871 l 261 0 l 154 0 l 154 819 q 147 943 154 893 q 140 993 140 993 l 154 993 m 158 92 l 158 0 l 56 0 l 56 17 q 67 17 56 17 q 79 17 78 17 q 132 39 110 17 q 154 92 154 61 l 158 92 m 261 92 q 283 39 261 61 q 336 17 304 17 q 348 17 336 17 q 360 17 360 17 l 360 0 l 257 0 l 257 92 l 261 92 m 1000 -18 l 168 835 l 154 993 l 988 139 l 1000 -18 m 1001 -36 q 983 -141 1001 -96 q 934 -216 965 -186 q 863 -261 903 -246 q 781 -279 824 -276 l 774 -268 q 820 -235 799 -254 q 859 -187 842 -215 q 886 -119 876 -160 q 896 -21 896 -78 l 896 972 l 1000 972 l 1001 -36 m 796 972 l 899 972 l 899 881 l 894 881 q 872 934 894 913 q 818 956 850 956 q 807 956 818 956 q 796 956 796 956 l 796 972 m 1100 972 l 1100 956 q 1088 956 1100 956 q 1076 956 1076 956 q 1024 934 1046 956 q 1000 881 1001 913 l 996 881 l 996 972 l 1100 972 z "},"Ñ":{"ha":1179,"x_min":56,"x_max":1124,"o":"m 167 993 l 1000 138 l 1014 -19 l 181 835 l 167 993 m 171 99 l 171 0 l 56 0 l 56 14 q 68 14 56 14 q 82 14 81 14 q 142 39 117 14 q 167 99 167 64 l 171 99 m 275 99 q 300 39 275 64 q 360 14 325 14 q 374 14 361 14 q 386 14 386 14 l 386 0 l 271 0 l 271 99 l 275 99 m 167 993 l 274 871 l 275 0 l 167 0 l 167 819 q 160 943 167 893 q 153 993 153 993 l 167 993 m 1013 972 l 1013 158 q 1016 70 1013 111 q 1023 5 1019 29 q 1026 -19 1026 -19 l 1014 -19 l 906 104 l 906 972 l 1013 972 m 1124 972 l 1124 958 q 1111 958 1124 958 q 1099 958 1099 958 q 1039 934 1064 958 q 1013 874 1014 910 l 1008 874 l 1008 972 l 1124 972 m 793 972 l 908 972 l 908 874 l 906 874 q 880 934 904 910 q 819 958 856 958 q 807 958 819 958 q 793 958 794 958 l 793 972 z "},"O":{"ha":1183,"x_min":88,"x_max":1118,"o":"m 601 992 q 873 929 757 992 q 1053 753 989 867 q 1118 486 1118 639 q 1053 219 1118 333 q 873 43 989 106 q 601 -19 757 -19 q 333 43 449 -19 q 152 219 217 106 q 88 486 88 333 q 152 753 88 639 q 333 929 217 867 q 601 992 449 992 m 601 28 q 796 85 714 28 q 924 244 878 142 q 969 486 969 347 q 924 728 969 625 q 796 888 878 831 q 601 944 714 944 q 409 888 492 944 q 281 728 326 831 q 235 486 235 625 q 281 244 235 347 q 409 85 326 142 q 601 28 492 28 z "},"Ó":{"ha":1183,"x_min":88,"x_max":1118,"o":"m 601 992 q 873 929 757 992 q 1053 753 989 867 q 1118 486 1118 639 q 1053 219 1118 333 q 873 43 989 106 q 601 -19 757 -19 q 333 43 449 -19 q 152 219 217 106 q 88 486 88 333 q 152 753 88 639 q 333 929 217 867 q 601 992 449 992 m 601 28 q 796 85 714 28 q 924 244 878 142 q 969 486 969 347 q 924 728 969 625 q 796 888 878 831 q 601 944 714 944 q 409 888 492 944 q 281 728 326 831 q 235 486 235 625 q 281 244 235 347 q 409 85 326 142 q 601 28 492 28 z "},"Ô":{"ha":1183,"x_min":88,"x_max":1118,"o":"m 601 992 q 873 929 757 992 q 1053 753 989 867 q 1118 486 1118 639 q 1053 219 1118 333 q 873 43 989 106 q 601 -19 757 -19 q 333 43 449 -19 q 152 219 217 106 q 88 486 88 333 q 152 753 88 639 q 333 929 217 867 q 601 992 449 992 m 601 28 q 796 85 714 28 q 924 244 878 142 q 969 486 969 347 q 924 728 969 625 q 796 888 878 831 q 601 944 714 944 q 409 888 492 944 q 281 728 326 831 q 235 486 235 625 q 281 244 235 347 q 409 85 326 142 q 601 28 492 28 z "},"Ö":{"ha":1183,"x_min":88,"x_max":1118,"o":"m 601 992 q 873 929 757 992 q 1053 753 989 867 q 1118 486 1118 639 q 1053 219 1118 333 q 873 43 989 106 q 601 -19 757 -19 q 333 43 449 -19 q 152 219 217 106 q 88 486 88 333 q 152 753 88 639 q 333 929 217 867 q 601 992 449 992 m 601 28 q 796 85 714 28 q 924 244 878 142 q 969 486 969 347 q 924 728 969 625 q 796 888 878 831 q 601 944 714 944 q 409 888 492 944 q 281 728 326 831 q 235 486 235 625 q 281 244 235 347 q 409 85 326 142 q 601 28 492 28 z "},"Ò":{"ha":1183,"x_min":88,"x_max":1118,"o":"m 601 992 q 873 929 757 992 q 1053 753 989 867 q 1118 486 1118 639 q 1053 219 1118 333 q 873 43 989 106 q 601 -19 757 -19 q 333 43 449 -19 q 152 219 217 106 q 88 486 88 333 q 152 753 88 639 q 333 929 217 867 q 601 992 449 992 m 601 28 q 797 85 714 28 q 926 244 881 142 q 971 486 971 347 q 926 728 971 625 q 797 888 881 831 q 601 944 714 944 q 408 888 490 944 q 279 728 325 831 q 233 486 233 625 q 279 244 233 347 q 408 85 325 142 q 601 28 490 28 m 617 1075 l 607 1065 q 526 1099 567 1081 q 444 1140 485 1118 q 364 1185 403 1163 q 392 1234 375 1213 q 433 1272 410 1256 q 495 1212 463 1244 q 559 1145 528 1179 q 617 1075 590 1111 z "},"Ő":{"ha":1183,"x_min":88,"x_max":1118,"o":"m 601 992 q 873 929 757 992 q 1053 753 989 867 q 1118 486 1118 639 q 1053 219 1118 333 q 873 43 989 106 q 601 -19 757 -19 q 333 43 449 -19 q 152 219 217 106 q 88 486 88 333 q 152 753 88 639 q 333 929 217 867 q 601 992 449 992 m 601 28 q 796 85 714 28 q 924 244 878 142 q 969 486 969 347 q 924 728 969 625 q 796 888 878 831 q 601 944 714 944 q 409 888 492 944 q 281 728 326 831 q 235 486 235 625 q 281 244 235 347 q 409 85 326 142 q 601 28 492 28 z "},"Ō":{"ha":1183,"x_min":88,"x_max":1118,"o":"m 601 992 q 873 929 757 992 q 1053 753 989 867 q 1118 486 1118 639 q 1053 219 1118 333 q 873 43 989 106 q 601 -19 757 -19 q 333 43 449 -19 q 152 219 217 106 q 88 486 88 333 q 152 753 88 639 q 333 929 217 867 q 601 992 449 992 m 601 28 q 796 85 714 28 q 924 244 878 142 q 969 486 969 347 q 924 728 969 625 q 796 888 878 831 q 601 944 714 944 q 409 888 492 944 q 281 728 326 831 q 235 486 235 625 q 281 244 235 347 q 409 85 326 142 q 601 28 492 28 z "},"Ø":{"ha":1172,"x_min":88,"x_max":1107,"o":"m 596 992 q 865 929 751 992 q 1043 753 979 867 q 1107 486 1107 639 q 1043 219 1107 333 q 865 43 979 106 q 596 -19 751 -19 q 328 43 443 -19 q 151 219 214 106 q 88 486 88 333 q 151 753 88 639 q 328 929 214 867 q 596 992 443 992 m 596 28 q 792 85 708 28 q 920 244 875 142 q 965 486 965 347 q 920 728 965 625 q 792 888 875 831 q 596 944 708 944 q 402 888 485 944 q 274 728 319 831 q 228 486 228 625 q 274 244 228 347 q 402 85 319 142 q 596 28 485 28 m 989 1004 l 1029 969 l 190 -32 l 150 3 l 989 1004 z "},"Õ":{"ha":1183,"x_min":88,"x_max":1118,"o":"m 601 992 q 873 929 757 992 q 1053 753 989 867 q 1118 486 1118 639 q 1053 219 1118 333 q 873 43 989 106 q 601 -19 757 -19 q 333 43 449 -19 q 152 219 217 106 q 88 486 88 333 q 152 753 88 639 q 333 929 217 867 q 601 992 449 992 m 601 28 q 796 85 714 28 q 924 244 878 142 q 969 486 969 347 q 924 728 969 625 q 796 888 878 831 q 601 944 714 944 q 409 888 492 944 q 281 728 326 831 q 235 486 235 625 q 281 244 235 347 q 409 85 326 142 q 601 28 492 28 z "},"Œ":{"ha":1397,"x_min":88,"x_max":1361,"o":"m 599 992 q 677 988 635 992 q 756 979 719 985 q 798 974 776 976 q 850 972 819 972 l 851 0 q 822 0 838 0 q 776 -3 806 0 q 726 -7 758 -3 q 660 -15 694 -11 q 596 -19 625 -19 q 329 43 443 -19 q 151 219 215 106 q 88 486 88 333 q 151 753 88 639 q 329 929 214 867 q 599 992 444 992 m 599 28 q 678 36 640 28 q 742 62 717 44 q 768 100 768 79 l 768 872 q 742 913 768 897 q 678 936 717 928 q 600 944 640 944 q 405 888 489 944 q 274 729 321 832 q 226 486 226 626 q 274 244 226 347 q 405 85 321 142 q 599 28 489 28 m 893 972 l 893 0 l 768 6 l 768 972 l 893 972 m 1271 49 l 1282 0 l 892 0 l 883 49 l 1271 49 m 1214 503 l 1214 456 l 889 456 l 889 503 l 1214 503 m 1276 972 l 1276 924 l 889 924 l 889 972 l 1276 972 m 1361 244 l 1286 0 l 1042 0 l 1092 49 q 1213 73 1164 49 q 1294 142 1263 97 q 1347 244 1326 186 l 1361 244 m 1214 458 l 1214 353 l 1200 353 l 1200 371 q 1176 431 1200 406 q 1115 456 1151 456 l 1115 458 l 1214 458 m 1214 606 l 1214 500 l 1115 500 l 1115 503 q 1176 529 1151 504 q 1200 589 1201 554 l 1200 606 l 1214 606 m 1276 928 l 1276 800 l 1260 800 l 1260 822 q 1231 894 1260 865 q 1160 925 1203 924 l 1160 928 l 1276 928 m 1276 997 l 1276 957 l 1107 972 q 1172 976 1138 972 q 1235 986 1206 981 q 1276 997 1264 992 z "},"P":{"ha":838,"x_min":76,"x_max":779,"o":"m 294 972 l 472 972 q 640 940 572 972 q 742 847 707 907 q 778 704 778 786 q 753 585 779 639 q 685 496 728 532 q 587 442 642 460 q 474 431 532 425 q 360 468 415 436 l 360 482 q 381 480 360 482 q 437 481 403 478 q 508 497 471 483 q 577 544 544 511 q 626 635 610 578 q 633 674 631 651 q 635 718 636 697 q 585 868 633 811 q 450 925 538 925 l 308 925 q 305 937 308 925 q 298 960 301 949 q 294 972 294 972 m 313 972 l 313 0 l 183 0 l 183 972 l 313 972 m 188 101 l 188 0 l 76 0 l 76 14 q 85 14 76 14 q 94 14 94 14 q 156 40 131 14 q 183 101 182 65 l 188 101 m 188 871 l 183 871 q 157 933 183 907 q 94 958 131 958 q 86 958 94 958 q 78 958 78 958 l 76 972 l 188 972 l 188 871 m 308 101 l 313 101 q 340 40 314 65 q 401 14 365 14 q 411 14 403 14 q 419 14 419 14 l 419 0 l 308 0 l 308 101 z "},"Þ":{"ha":813,"x_min":60,"x_max":754,"o":"m 296 972 l 296 0 l 167 0 l 167 972 l 296 972 m 169 101 l 169 0 l 60 0 l 60 14 q 68 14 60 14 q 78 14 76 14 q 140 40 114 14 q 167 101 165 65 l 169 101 m 169 871 l 167 871 q 140 933 165 907 q 78 958 114 958 q 68 958 76 958 q 60 958 60 958 l 60 972 l 169 972 l 169 871 m 292 101 l 296 101 q 322 40 296 65 q 385 14 349 14 q 393 14 385 14 q 401 14 401 14 l 401 0 l 292 0 l 292 101 m 292 871 l 292 972 l 401 972 l 401 958 q 393 958 401 958 q 385 958 385 958 q 322 933 349 958 q 296 871 296 907 l 292 871 m 276 764 l 454 764 q 622 731 556 764 q 720 637 688 697 q 754 496 753 576 q 730 377 754 431 q 663 288 706 324 q 565 234 619 251 q 453 222 511 217 q 342 260 396 228 l 342 274 q 363 272 342 274 q 418 272 385 269 q 488 289 451 275 q 558 336 525 303 q 607 426 590 369 q 615 466 613 443 q 617 510 617 489 q 566 660 614 603 q 432 717 518 717 l 290 717 q 287 728 290 717 q 280 752 283 740 q 276 764 276 764 z "},"Q":{"ha":1183,"x_min":78,"x_max":1858,"o":"m 579 -19 l 575 24 q 667 12 618 21 q 772 -13 717 3 q 892 -52 828 -29 q 1028 -104 956 -75 q 1185 -168 1101 -133 q 1359 -219 1268 -203 q 1540 -230 1450 -235 q 1710 -196 1629 -225 q 1851 -111 1790 -167 l 1858 -118 q 1813 -201 1850 -157 q 1713 -283 1776 -246 q 1565 -338 1650 -319 q 1374 -345 1479 -357 q 1149 -278 1269 -333 q 1009 -206 1081 -246 q 865 -128 938 -167 q 720 -59 792 -89 q 579 -19 649 -29 m 592 992 q 861 929 746 992 q 1041 753 976 867 q 1106 486 1106 639 q 1041 219 1106 333 q 860 43 976 106 q 592 -19 744 -19 q 323 43 439 -19 q 142 219 207 106 q 78 486 78 333 q 142 753 78 639 q 323 929 207 867 q 592 992 439 992 m 592 28 q 787 85 704 28 q 915 244 869 142 q 960 486 960 347 q 915 728 960 625 q 787 888 869 831 q 592 944 704 944 q 397 888 481 944 q 269 728 314 831 q 224 486 224 625 q 269 244 224 347 q 399 85 315 142 q 592 28 482 28 z "},"R":{"ha":972,"x_min":76,"x_max":1003,"o":"m 294 972 l 485 972 q 601 956 547 972 q 694 906 656 939 q 754 825 732 874 q 776 711 776 776 q 747 587 776 647 q 666 488 718 526 q 543 446 614 449 q 604 403 574 435 q 657 340 635 371 q 674 314 657 339 q 718 252 692 289 q 772 179 744 215 q 819 119 799 143 q 874 63 847 86 q 933 27 901 40 q 1003 14 964 14 l 1003 0 l 906 0 q 788 17 839 0 q 699 65 736 35 q 635 129 661 94 q 612 165 629 139 q 573 226 594 192 q 531 293 551 260 q 494 351 510 326 q 475 382 479 375 q 422 447 451 419 q 358 475 393 474 l 358 489 q 378 488 360 489 q 422 489 397 488 q 499 501 458 490 q 574 544 540 513 q 625 639 608 576 q 631 674 629 653 q 632 717 633 694 q 584 866 631 813 q 463 922 538 919 q 396 924 431 925 q 336 924 361 924 q 308 924 311 924 q 305 937 308 925 q 298 960 301 949 q 294 972 294 972 m 313 972 l 313 0 l 183 0 l 183 972 l 313 972 m 188 101 l 188 0 l 76 0 l 76 14 q 85 14 76 14 q 94 14 94 14 q 156 40 131 14 q 183 101 182 65 l 188 101 m 188 871 l 183 871 q 156 933 182 907 q 94 958 131 958 q 85 958 94 958 q 76 958 76 958 l 76 972 l 188 972 l 188 871 m 308 101 l 313 101 q 339 40 313 65 q 401 14 365 14 q 410 14 403 14 q 418 14 418 14 l 418 0 l 308 0 l 308 101 z "},"Ŕ":{"ha":972,"x_min":76,"x_max":1003,"o":"m 294 972 l 485 972 q 601 956 547 972 q 694 906 656 939 q 754 825 732 874 q 776 711 776 776 q 747 587 776 647 q 666 488 718 526 q 543 446 614 449 q 604 403 574 435 q 657 340 635 371 q 674 314 657 339 q 718 252 692 289 q 772 179 744 215 q 819 119 799 143 q 874 63 847 86 q 933 27 901 40 q 1003 14 964 14 l 1003 0 l 906 0 q 788 17 839 0 q 699 65 736 35 q 635 129 661 94 q 612 165 629 139 q 573 226 594 192 q 531 293 551 260 q 494 351 510 326 q 475 382 479 375 q 422 447 451 419 q 358 475 393 474 l 358 489 q 378 488 360 489 q 422 489 397 488 q 499 501 458 490 q 574 544 540 513 q 625 639 608 576 q 631 674 629 653 q 632 717 633 694 q 584 866 631 813 q 463 922 538 919 q 396 924 431 925 q 336 924 361 924 q 308 924 311 924 q 305 937 308 925 q 298 960 301 949 q 294 972 294 972 m 313 972 l 313 0 l 183 0 l 183 972 l 313 972 m 188 101 l 188 0 l 76 0 l 76 14 q 85 14 76 14 q 94 14 94 14 q 156 40 131 14 q 183 101 182 65 l 188 101 m 188 871 l 183 871 q 156 933 182 907 q 94 958 131 958 q 85 958 94 958 q 76 958 76 958 l 76 972 l 188 972 l 188 871 m 308 101 l 313 101 q 339 40 313 65 q 401 14 365 14 q 410 14 403 14 q 418 14 418 14 l 418 0 l 308 0 l 308 101 z "},"Ř":{"ha":972,"x_min":76,"x_max":1003,"o":"m 294 972 l 485 972 q 601 956 547 972 q 694 906 656 939 q 754 825 732 874 q 776 711 776 776 q 747 587 776 647 q 666 488 718 526 q 543 446 614 449 q 604 403 574 435 q 657 340 635 371 q 674 314 657 339 q 718 252 692 289 q 772 179 744 215 q 819 119 799 143 q 874 63 847 86 q 933 27 901 40 q 1003 14 964 14 l 1003 0 l 906 0 q 788 17 839 0 q 699 65 736 35 q 635 129 661 94 q 612 165 629 139 q 573 226 594 192 q 531 293 551 260 q 494 351 510 326 q 475 382 479 375 q 422 447 451 419 q 358 475 393 474 l 358 489 q 378 488 360 489 q 422 489 397 488 q 499 501 458 490 q 574 544 540 513 q 625 639 608 576 q 631 674 629 653 q 632 717 633 694 q 584 866 631 813 q 463 922 538 919 q 396 924 431 925 q 336 924 361 924 q 308 924 311 924 q 305 937 308 925 q 298 960 301 949 q 294 972 294 972 m 313 972 l 313 0 l 183 0 l 183 972 l 313 972 m 188 101 l 188 0 l 76 0 l 76 14 q 85 14 76 14 q 94 14 94 14 q 156 40 131 14 q 183 101 182 65 l 188 101 m 188 871 l 183 871 q 156 933 182 907 q 94 958 131 958 q 85 958 94 958 q 76 958 76 958 l 76 972 l 188 972 l 188 871 m 308 101 l 313 101 q 339 40 313 65 q 401 14 365 14 q 410 14 403 14 q 418 14 418 14 l 418 0 l 308 0 l 308 101 z "},"Ŗ":{"ha":972,"x_min":76,"x_max":1003,"o":"m 294 972 l 485 972 q 601 956 547 972 q 694 906 656 939 q 754 825 732 874 q 776 711 776 776 q 747 587 776 647 q 666 488 718 526 q 543 446 614 449 q 604 403 574 435 q 657 340 635 371 q 674 314 657 339 q 718 252 692 289 q 772 179 744 215 q 819 119 799 143 q 874 63 847 86 q 933 27 901 40 q 1003 14 964 14 l 1003 0 l 906 0 q 788 17 839 0 q 699 65 736 35 q 635 129 661 94 q 612 165 629 139 q 573 226 594 192 q 531 293 551 260 q 494 351 510 326 q 475 382 479 375 q 422 447 451 419 q 358 475 393 474 l 358 489 q 378 488 360 489 q 422 489 397 488 q 499 501 458 490 q 574 544 540 513 q 625 639 608 576 q 631 674 629 653 q 632 717 633 694 q 584 866 631 813 q 463 922 538 919 q 396 924 431 925 q 336 924 361 924 q 308 924 311 924 q 305 937 308 925 q 298 960 301 949 q 294 972 294 972 m 313 972 l 313 0 l 183 0 l 183 972 l 313 972 m 188 101 l 188 0 l 76 0 l 76 14 q 85 14 76 14 q 94 14 94 14 q 156 40 131 14 q 183 101 182 65 l 188 101 m 188 871 l 183 871 q 156 933 182 907 q 94 958 131 958 q 85 958 94 958 q 76 958 76 958 l 76 972 l 188 972 l 188 871 m 308 101 l 313 101 q 339 40 313 65 q 401 14 365 14 q 410 14 403 14 q 418 14 418 14 l 418 0 l 308 0 l 308 101 m 503 -137 q 518 -101 503 -114 q 554 -89 533 -89 q 605 -120 589 -89 q 621 -183 621 -151 q 585 -271 621 -236 q 500 -308 550 -306 l 497 -297 q 536 -271 524 -287 q 549 -236 549 -254 q 544 -212 549 -224 q 531 -190 539 -200 q 512 -166 521 -179 q 503 -137 503 -153 z "},"S":{"ha":707,"x_min":76,"x_max":635,"o":"m 361 992 q 415 989 385 992 q 477 981 446 986 q 533 972 508 976 q 568 961 557 967 l 563 796 l 550 796 q 501 904 550 864 q 379 944 453 944 q 253 899 301 944 q 206 793 206 854 q 222 728 204 763 q 275 665 239 694 l 546 439 q 615 352 594 401 q 633 250 635 303 q 551 54 631 128 q 338 -19 472 -19 q 245 -11 294 -19 q 153 15 196 -3 q 83 60 110 32 q 77 122 76 85 q 85 197 78 158 q 106 267 93 236 l 118 267 q 138 140 111 196 q 217 55 165 85 q 338 28 269 25 q 473 78 419 31 q 526 204 526 126 q 508 278 526 244 q 453 338 490 311 l 194 557 q 119 649 142 596 q 100 754 97 701 q 133 872 103 817 q 222 959 164 926 q 361 992 279 992 m 568 978 l 568 949 l 443 949 l 443 978 l 568 978 z "},"Ś":{"ha":707,"x_min":76,"x_max":635,"o":"m 361 992 q 415 989 385 992 q 477 981 446 986 q 533 972 508 976 q 568 961 557 967 l 563 796 l 550 796 q 501 904 550 864 q 379 944 453 944 q 253 899 301 944 q 206 793 206 854 q 222 728 204 763 q 275 665 239 694 l 546 439 q 615 352 594 401 q 633 250 635 303 q 551 54 631 128 q 338 -19 472 -19 q 245 -11 294 -19 q 153 15 196 -3 q 83 60 110 32 q 77 122 76 85 q 85 197 78 158 q 106 267 93 236 l 118 267 q 138 140 111 196 q 217 55 165 85 q 338 28 269 25 q 473 78 419 31 q 526 204 526 126 q 508 278 526 244 q 453 338 490 311 l 194 557 q 119 649 142 596 q 100 754 97 701 q 133 872 103 817 q 222 959 164 926 q 361 992 279 992 m 568 978 l 568 949 l 443 949 l 443 978 l 568 978 z "},"Š":{"ha":707,"x_min":76,"x_max":635,"o":"m 361 992 q 415 989 385 992 q 477 981 446 986 q 533 972 508 976 q 568 961 557 967 l 563 796 l 550 796 q 501 904 550 864 q 379 944 453 944 q 253 899 301 944 q 206 793 206 854 q 222 728 204 763 q 275 665 239 694 l 546 439 q 615 352 594 401 q 633 250 635 303 q 551 54 631 128 q 338 -19 472 -19 q 245 -11 294 -19 q 153 15 196 -3 q 83 60 110 32 q 77 122 76 85 q 85 197 78 158 q 106 267 93 236 l 118 267 q 138 140 111 196 q 217 55 165 85 q 338 28 269 25 q 473 78 419 31 q 526 204 526 126 q 508 278 526 244 q 453 338 490 311 l 194 557 q 119 649 142 596 q 100 754 97 701 q 133 872 103 817 q 222 959 164 926 q 361 992 279 992 m 568 978 l 568 949 l 443 949 l 443 978 l 568 978 z "},"Ş":{"ha":707,"x_min":76,"x_max":635,"o":"m 361 992 q 415 989 385 992 q 477 981 446 986 q 533 972 508 976 q 568 961 557 967 l 563 796 l 550 796 q 501 904 550 864 q 379 944 453 944 q 253 899 301 944 q 206 793 206 854 q 222 728 204 763 q 275 665 239 694 l 546 439 q 615 352 594 401 q 633 250 635 303 q 551 54 631 128 q 338 -19 472 -19 q 245 -11 294 -19 q 153 15 196 -3 q 83 60 110 32 q 77 122 76 85 q 85 197 78 158 q 106 267 93 236 l 118 267 q 138 140 111 196 q 217 55 165 85 q 338 28 269 25 q 473 78 419 31 q 526 204 526 126 q 508 278 526 244 q 453 338 490 311 l 194 557 q 119 649 142 596 q 100 754 97 701 q 133 872 103 817 q 222 959 164 926 q 361 992 279 992 m 568 978 l 568 949 l 443 949 l 443 978 l 568 978 z "},"Ș":{"ha":706,"x_min":76,"x_max":632,"o":"m 346 992 q 406 990 375 992 q 467 985 436 989 q 522 975 497 981 q 565 961 547 969 l 560 813 l 547 813 q 529 866 547 836 q 481 915 511 896 q 428 938 458 932 q 368 944 399 944 q 283 924 321 944 q 225 869 246 903 q 203 794 204 835 q 220 726 203 760 q 272 664 238 693 l 542 438 q 610 354 588 401 q 631 250 632 307 q 551 55 629 128 q 342 -19 472 -18 q 192 1 264 -19 q 82 60 119 21 q 77 117 76 86 q 83 182 78 149 q 100 244 89 215 l 113 244 q 141 133 113 182 q 222 56 169 85 q 347 28 275 28 q 476 80 429 31 q 524 203 524 129 q 507 276 524 242 q 451 339 490 310 l 194 557 q 119 651 142 600 q 99 756 97 701 q 134 875 101 821 q 222 960 167 929 q 346 992 278 992 m 567 978 l 565 949 l 440 949 l 440 978 l 567 978 m 297 -137 q 313 -101 297 -114 q 349 -89 328 -89 q 399 -120 383 -89 q 415 -183 415 -151 q 380 -271 415 -236 q 294 -308 344 -306 l 292 -297 q 331 -271 318 -287 q 343 -236 343 -254 q 338 -212 343 -224 q 325 -190 333 -200 q 306 -166 315 -179 q 297 -137 297 -153 z "},"T":{"ha":881,"x_min":25,"x_max":857,"o":"m 506 968 l 506 0 l 376 0 l 376 968 l 506 968 m 857 974 l 857 926 l 25 926 l 25 974 l 857 974 m 857 931 l 857 801 l 843 803 l 843 824 q 815 897 843 868 q 742 926 786 925 l 742 931 l 857 931 m 857 999 l 857 958 l 688 974 q 752 978 718 974 q 815 988 786 982 q 857 999 844 993 m 381 101 l 381 0 l 269 0 l 269 14 q 278 14 269 14 q 288 14 288 14 q 349 40 324 14 q 376 101 375 65 l 381 101 m 501 101 l 506 101 q 533 40 507 65 q 594 14 558 14 q 603 14 594 14 q 613 14 613 14 l 613 0 l 501 0 l 501 101 m 140 931 l 140 926 q 67 897 96 925 q 39 824 39 868 l 39 803 l 25 801 l 25 931 l 140 931 m 25 999 q 67 988 39 993 q 131 978 96 982 q 194 974 165 974 l 25 958 l 25 999 z "},"Ŧ":{"ha":881,"x_min":25,"x_max":857,"o":"m 506 968 l 506 0 l 376 0 l 376 968 l 506 968 m 857 974 l 857 926 l 25 926 l 25 974 l 857 974 m 857 931 l 857 801 l 843 803 l 843 824 q 815 897 843 868 q 742 926 786 925 l 742 931 l 857 931 m 857 999 l 857 958 l 688 974 q 752 978 718 974 q 815 988 786 982 q 857 999 844 993 m 381 101 l 381 0 l 269 0 l 269 14 q 278 14 269 14 q 288 14 288 14 q 349 40 324 14 q 376 101 375 65 l 381 101 m 501 101 l 506 101 q 533 40 507 65 q 594 14 558 14 q 603 14 594 14 q 613 14 613 14 l 613 0 l 501 0 l 501 101 m 140 931 l 140 926 q 67 897 96 925 q 39 824 39 868 l 39 803 l 25 801 l 25 931 l 140 931 m 25 999 q 67 988 39 993 q 131 978 96 982 q 194 974 165 974 l 25 958 l 25 999 m 728 557 l 728 510 l 156 510 l 156 557 l 728 557 z "},"Ť":{"ha":881,"x_min":25,"x_max":857,"o":"m 506 968 l 506 0 l 376 0 l 376 968 l 506 968 m 857 974 l 857 926 l 25 926 l 25 974 l 857 974 m 857 931 l 857 801 l 843 803 l 843 824 q 815 897 843 868 q 742 926 786 925 l 742 931 l 857 931 m 857 999 l 857 958 l 688 974 q 752 978 718 974 q 815 988 786 982 q 857 999 844 993 m 381 101 l 381 0 l 269 0 l 269 14 q 278 14 269 14 q 288 14 288 14 q 349 40 324 14 q 376 101 375 65 l 381 101 m 501 101 l 506 101 q 533 40 507 65 q 594 14 558 14 q 603 14 594 14 q 613 14 613 14 l 613 0 l 501 0 l 501 101 m 140 931 l 140 926 q 67 897 96 925 q 39 824 39 868 l 39 803 l 25 801 l 25 931 l 140 931 m 25 999 q 67 988 39 993 q 131 978 96 982 q 194 974 165 974 l 25 958 l 25 999 z "},"Ţ":{"ha":881,"x_min":25,"x_max":857,"o":"m 506 968 l 506 0 l 376 0 l 376 968 l 506 968 m 857 974 l 857 926 l 25 926 l 25 974 l 857 974 m 857 931 l 857 801 l 843 803 l 843 824 q 815 897 843 868 q 742 926 786 925 l 742 931 l 857 931 m 857 999 l 857 958 l 688 974 q 752 978 718 974 q 815 988 786 982 q 857 999 844 993 m 381 101 l 381 0 l 269 0 l 269 14 q 278 14 269 14 q 288 14 288 14 q 349 40 324 14 q 376 101 375 65 l 381 101 m 501 101 l 506 101 q 533 40 507 65 q 594 14 558 14 q 603 14 594 14 q 613 14 613 14 l 613 0 l 501 0 l 501 101 m 140 931 l 140 926 q 67 897 96 925 q 39 824 39 868 l 39 803 l 25 801 l 25 931 l 140 931 m 25 999 q 67 988 39 993 q 131 978 96 982 q 194 974 165 974 l 25 958 l 25 999 z "},"Ț":{"ha":881,"x_min":25,"x_max":857,"o":"m 506 968 l 506 0 l 376 0 l 376 968 l 506 968 m 857 974 l 857 926 l 25 926 l 25 974 l 857 974 m 857 931 l 857 801 l 843 803 l 843 824 q 815 897 843 868 q 742 926 786 925 l 742 931 l 857 931 m 857 999 l 857 958 l 688 974 q 752 978 718 974 q 815 988 786 982 q 857 999 844 993 m 381 101 l 381 0 l 269 0 l 269 14 q 278 14 269 14 q 288 14 288 14 q 349 40 324 14 q 376 101 375 65 l 381 101 m 501 101 l 506 101 q 533 40 507 65 q 594 14 558 14 q 603 14 594 14 q 613 14 613 14 l 613 0 l 501 0 l 501 101 m 140 931 l 140 926 q 67 897 96 925 q 39 824 39 868 l 39 803 l 25 801 l 25 931 l 140 931 m 25 999 q 67 988 39 993 q 131 978 96 982 q 194 974 165 974 l 25 958 l 25 999 m 389 -137 q 404 -101 389 -114 q 440 -89 419 -89 q 491 -120 475 -89 q 507 -183 507 -151 q 472 -271 507 -236 q 386 -308 436 -306 l 383 -297 q 422 -271 410 -287 q 435 -236 435 -254 q 430 -212 435 -224 q 417 -190 425 -200 q 398 -166 407 -179 q 389 -137 389 -153 z "},"U":{"ha":1107,"x_min":64,"x_max":1046,"o":"m 289 972 l 289 361 q 324 186 289 261 q 424 70 360 111 q 575 29 489 29 q 733 68 665 29 q 837 178 800 107 q 874 343 874 249 l 874 972 l 950 972 l 950 346 q 903 154 950 236 q 770 26 857 72 q 567 -19 683 -19 q 349 26 440 -19 q 208 153 257 71 q 160 344 160 235 l 160 972 l 289 972 m 164 972 l 164 889 l 160 889 q 138 939 160 919 q 86 958 117 958 q 75 958 86 958 q 64 958 64 958 l 64 972 l 164 972 m 385 972 l 385 958 q 374 958 385 958 q 363 958 363 958 q 310 939 332 958 q 289 889 289 919 l 286 889 l 286 972 l 385 972 m 878 972 l 878 889 l 874 889 q 852 939 874 919 q 800 958 831 958 q 789 958 800 958 q 778 958 778 958 l 778 972 l 878 972 m 1046 972 l 1046 958 q 1035 958 1046 958 q 1024 958 1024 958 q 972 939 993 958 q 950 889 950 919 l 947 889 l 947 972 l 1046 972 z "},"Ú":{"ha":1107,"x_min":64,"x_max":1046,"o":"m 289 972 l 289 361 q 324 186 289 261 q 424 70 360 111 q 575 29 489 29 q 733 68 665 29 q 837 178 800 107 q 874 343 874 249 l 874 972 l 950 972 l 950 346 q 903 154 950 236 q 770 26 857 72 q 567 -19 683 -19 q 349 26 440 -19 q 208 153 257 71 q 160 344 160 235 l 160 972 l 289 972 m 164 972 l 164 889 l 160 889 q 138 939 160 919 q 86 958 117 958 q 75 958 86 958 q 64 958 64 958 l 64 972 l 164 972 m 385 972 l 385 958 q 374 958 385 958 q 363 958 363 958 q 310 939 332 958 q 289 889 289 919 l 286 889 l 286 972 l 385 972 m 878 972 l 878 889 l 874 889 q 852 939 874 919 q 800 958 831 958 q 789 958 800 958 q 778 958 778 958 l 778 972 l 878 972 m 1046 972 l 1046 958 q 1035 958 1046 958 q 1024 958 1024 958 q 972 939 993 958 q 950 889 950 919 l 947 889 l 947 972 l 1046 972 z "},"Û":{"ha":1107,"x_min":64,"x_max":1046,"o":"m 289 972 l 289 361 q 324 186 289 261 q 424 70 360 111 q 575 29 489 29 q 733 68 665 29 q 837 178 800 107 q 874 343 874 249 l 874 972 l 950 972 l 950 346 q 903 154 950 236 q 770 26 857 72 q 567 -19 683 -19 q 349 26 440 -19 q 208 153 257 71 q 160 344 160 235 l 160 972 l 289 972 m 164 972 l 164 889 l 160 889 q 138 939 160 919 q 86 958 117 958 q 75 958 86 958 q 64 958 64 958 l 64 972 l 164 972 m 385 972 l 385 958 q 374 958 385 958 q 363 958 363 958 q 310 939 332 958 q 289 889 289 919 l 286 889 l 286 972 l 385 972 m 878 972 l 878 889 l 874 889 q 852 939 874 919 q 800 958 831 958 q 789 958 800 958 q 778 958 778 958 l 778 972 l 878 972 m 1046 972 l 1046 958 q 1035 958 1046 958 q 1024 958 1024 958 q 972 939 993 958 q 950 889 950 919 l 947 889 l 947 972 l 1046 972 z "},"Ü":{"ha":1107,"x_min":64,"x_max":1046,"o":"m 289 972 l 289 361 q 324 186 289 261 q 424 70 360 111 q 575 29 489 29 q 733 68 665 29 q 837 178 800 107 q 874 343 874 249 l 874 972 l 950 972 l 950 346 q 903 154 950 236 q 770 26 857 72 q 567 -19 683 -19 q 349 26 440 -19 q 208 153 257 71 q 160 344 160 235 l 160 972 l 289 972 m 164 972 l 164 889 l 160 889 q 138 939 160 919 q 86 958 117 958 q 75 958 86 958 q 64 958 64 958 l 64 972 l 164 972 m 385 972 l 385 958 q 374 958 385 958 q 363 958 363 958 q 310 939 332 958 q 289 889 289 919 l 286 889 l 286 972 l 385 972 m 878 972 l 878 889 l 874 889 q 852 939 874 919 q 800 958 831 958 q 789 958 800 958 q 778 958 778 958 l 778 972 l 878 972 m 1046 972 l 1046 958 q 1035 958 1046 958 q 1024 958 1024 958 q 972 939 993 958 q 950 889 950 919 l 947 889 l 947 972 l 1046 972 z "},"Ù":{"ha":1107,"x_min":64,"x_max":1046,"o":"m 289 972 l 289 361 q 324 186 289 261 q 424 70 360 111 q 575 29 489 29 q 733 68 665 29 q 837 178 800 107 q 874 343 874 249 l 874 972 l 950 972 l 950 346 q 903 154 950 236 q 770 26 857 72 q 567 -19 683 -19 q 349 26 440 -19 q 208 153 257 71 q 160 344 160 235 l 160 972 l 289 972 m 164 972 l 164 889 l 160 889 q 138 939 160 919 q 86 958 117 958 q 75 958 86 958 q 64 958 64 958 l 64 972 l 164 972 m 385 972 l 385 958 q 374 958 385 958 q 363 958 363 958 q 310 939 332 958 q 289 889 289 919 l 286 889 l 286 972 l 385 972 m 878 972 l 878 889 l 874 889 q 852 939 874 919 q 800 958 831 958 q 789 958 800 958 q 778 958 778 958 l 778 972 l 878 972 m 1046 972 l 1046 958 q 1035 958 1046 958 q 1024 958 1024 958 q 972 939 993 958 q 950 889 950 919 l 947 889 l 947 972 l 1046 972 z "},"Ű":{"ha":1107,"x_min":64,"x_max":1046,"o":"m 289 972 l 289 361 q 324 186 289 261 q 424 70 360 111 q 575 29 489 29 q 733 68 665 29 q 837 178 800 107 q 874 343 874 249 l 874 972 l 950 972 l 950 346 q 903 154 950 236 q 770 26 857 72 q 567 -19 683 -19 q 349 26 440 -19 q 208 153 257 71 q 160 344 160 235 l 160 972 l 289 972 m 164 972 l 164 889 l 160 889 q 138 939 160 919 q 86 958 117 958 q 75 958 86 958 q 64 958 64 958 l 64 972 l 164 972 m 385 972 l 385 958 q 374 958 385 958 q 363 958 363 958 q 310 939 332 958 q 289 889 289 919 l 286 889 l 286 972 l 385 972 m 878 972 l 878 889 l 874 889 q 852 939 874 919 q 800 958 831 958 q 789 958 800 958 q 778 958 778 958 l 778 972 l 878 972 m 1046 972 l 1046 958 q 1035 958 1046 958 q 1024 958 1024 958 q 972 939 993 958 q 950 889 950 919 l 947 889 l 947 972 l 1046 972 z "},"Ū":{"ha":1107,"x_min":64,"x_max":1046,"o":"m 289 972 l 289 361 q 324 186 289 261 q 424 70 360 111 q 575 29 489 29 q 733 68 665 29 q 837 178 800 107 q 874 343 874 249 l 874 972 l 950 972 l 950 346 q 903 154 950 236 q 770 26 857 72 q 567 -19 683 -19 q 349 26 440 -19 q 208 153 257 71 q 160 344 160 235 l 160 972 l 289 972 m 164 972 l 164 889 l 160 889 q 138 939 160 919 q 86 958 117 958 q 75 958 86 958 q 64 958 64 958 l 64 972 l 164 972 m 385 972 l 385 958 q 374 958 385 958 q 363 958 363 958 q 310 939 332 958 q 289 889 289 919 l 286 889 l 286 972 l 385 972 m 878 972 l 878 889 l 874 889 q 852 939 874 919 q 800 958 831 958 q 789 958 800 958 q 778 958 778 958 l 778 972 l 878 972 m 1046 972 l 1046 958 q 1035 958 1046 958 q 1024 958 1024 958 q 972 939 993 958 q 950 889 950 919 l 947 889 l 947 972 l 1046 972 z "},"Ų":{"ha":1107,"x_min":64,"x_max":1046,"o":"m 289 972 l 289 361 q 324 186 289 261 q 424 70 360 111 q 575 29 489 29 q 733 68 665 29 q 837 178 800 107 q 874 343 874 249 l 874 972 l 950 972 l 950 346 q 903 154 950 236 q 770 26 857 72 q 567 -19 683 -19 q 349 26 440 -19 q 208 153 257 71 q 160 344 160 235 l 160 972 l 289 972 m 164 972 l 164 889 l 160 889 q 138 939 160 919 q 86 958 117 958 q 75 958 86 958 q 64 958 64 958 l 64 972 l 164 972 m 385 972 l 385 958 q 374 958 385 958 q 363 958 363 958 q 310 939 332 958 q 289 889 289 919 l 286 889 l 286 972 l 385 972 m 878 972 l 878 889 l 874 889 q 852 939 874 919 q 800 958 831 958 q 789 958 800 958 q 778 958 778 958 l 778 972 l 878 972 m 1046 972 l 1046 958 q 1035 958 1046 958 q 1024 958 1024 958 q 972 939 993 958 q 950 889 950 919 l 947 889 l 947 972 l 1046 972 z "},"Ů":{"ha":1107,"x_min":64,"x_max":1046,"o":"m 289 972 l 289 361 q 324 186 289 261 q 424 70 360 111 q 575 29 489 29 q 733 68 665 29 q 837 178 800 107 q 874 343 874 249 l 874 972 l 950 972 l 950 346 q 903 154 950 236 q 770 26 857 72 q 567 -19 683 -19 q 349 26 440 -19 q 208 153 257 71 q 160 344 160 235 l 160 972 l 289 972 m 164 972 l 164 889 l 160 889 q 138 939 160 919 q 86 958 117 958 q 75 958 86 958 q 64 958 64 958 l 64 972 l 164 972 m 385 972 l 385 958 q 374 958 385 958 q 363 958 363 958 q 310 939 332 958 q 289 889 289 919 l 286 889 l 286 972 l 385 972 m 878 972 l 878 889 l 874 889 q 852 939 874 919 q 800 958 831 958 q 789 958 800 958 q 778 958 778 958 l 778 972 l 878 972 m 1046 972 l 1046 958 q 1035 958 1046 958 q 1024 958 1024 958 q 972 939 993 958 q 950 889 950 919 l 947 889 l 947 972 l 1046 972 z "},"V":{"ha":1022,"x_min":-22,"x_max":1044,"o":"m 510 -22 l 69 964 l 232 964 l 557 156 l 510 -22 m 510 -22 l 500 99 l 864 968 l 953 968 l 579 133 q 570 112 579 131 q 550 67 561 93 q 531 15 539 40 q 522 -22 524 -10 l 510 -22 m 825 872 q 819 936 840 914 q 772 958 799 958 l 760 958 l 760 972 l 1044 972 l 1044 958 q 1038 958 1044 958 q 1032 958 1032 958 q 967 938 1001 958 q 910 871 932 918 l 825 872 m 269 872 l 111 871 q 56 938 90 918 q -11 958 21 958 q -17 958 -11 958 q -22 958 -22 958 l -22 972 l 333 972 l 333 958 l 321 958 q 274 936 294 958 q 269 872 254 914 z "},"W":{"ha":1358,"x_min":-25,"x_max":1381,"o":"m 75 964 l 226 964 l 472 201 l 429 -19 l 75 964 m 722 994 l 738 874 l 472 135 q 465 110 472 135 q 450 51 457 86 q 442 -19 443 17 l 429 -19 l 399 118 l 710 994 l 722 994 m 722 993 l 1018 222 l 975 -19 l 658 800 l 722 993 m 1276 964 l 1017 135 q 1010 110 1017 135 q 996 49 1003 85 q 989 -19 989 14 l 975 -19 l 951 118 l 1193 964 l 1276 964 m 1167 872 q 1160 936 1178 914 q 1114 958 1142 958 l 1101 958 l 1101 972 l 1381 972 l 1381 958 q 1375 958 1381 958 q 1369 958 1369 958 q 1300 938 1338 958 q 1247 872 1263 918 l 1167 872 m 257 872 l 108 872 q 55 938 92 918 q -14 958 18 958 q -19 958 -14 958 q -25 958 -25 958 l -25 972 l 322 972 l 322 958 l 310 958 q 263 936 283 958 q 257 872 243 914 z "},"Ẃ":{"ha":1358,"x_min":-25,"x_max":1381,"o":"m 75 964 l 226 964 l 472 201 l 429 -19 l 75 964 m 722 994 l 738 874 l 472 135 q 465 110 472 135 q 450 51 457 86 q 442 -19 443 17 l 429 -19 l 399 118 l 710 994 l 722 994 m 722 993 l 1018 222 l 975 -19 l 658 800 l 722 993 m 1276 964 l 1017 135 q 1010 110 1017 135 q 996 49 1003 85 q 989 -19 989 14 l 975 -19 l 951 118 l 1193 964 l 1276 964 m 1167 872 q 1160 936 1178 914 q 1114 958 1142 958 l 1101 958 l 1101 972 l 1381 972 l 1381 958 q 1375 958 1381 958 q 1369 958 1369 958 q 1300 938 1338 958 q 1247 872 1263 918 l 1167 872 m 257 872 l 108 872 q 55 938 92 918 q -14 958 18 958 q -19 958 -14 958 q -25 958 -25 958 l -25 972 l 322 972 l 322 958 l 310 958 q 263 936 283 958 q 257 872 243 914 z "},"Ŵ":{"ha":1358,"x_min":-25,"x_max":1381,"o":"m 75 964 l 226 964 l 472 201 l 429 -19 l 75 964 m 722 994 l 738 874 l 472 135 q 465 110 472 135 q 450 51 457 86 q 442 -19 443 17 l 429 -19 l 399 118 l 710 994 l 722 994 m 722 993 l 1018 222 l 975 -19 l 658 800 l 722 993 m 1276 964 l 1017 135 q 1010 110 1017 135 q 996 49 1003 85 q 989 -19 989 14 l 975 -19 l 951 118 l 1193 964 l 1276 964 m 1167 872 q 1160 936 1178 914 q 1114 958 1142 958 l 1101 958 l 1101 972 l 1381 972 l 1381 958 q 1375 958 1381 958 q 1369 958 1369 958 q 1300 938 1338 958 q 1247 872 1263 918 l 1167 872 m 257 872 l 108 872 q 55 938 92 918 q -14 958 18 958 q -19 958 -14 958 q -25 958 -25 958 l -25 972 l 322 972 l 322 958 l 310 958 q 263 936 283 958 q 257 872 243 914 z "},"Ẅ":{"ha":1358,"x_min":-25,"x_max":1381,"o":"m 75 964 l 226 964 l 472 201 l 429 -19 l 75 964 m 722 994 l 738 874 l 472 135 q 465 110 472 135 q 450 51 457 86 q 442 -19 443 17 l 429 -19 l 399 118 l 710 994 l 722 994 m 722 993 l 1018 222 l 975 -19 l 658 800 l 722 993 m 1276 964 l 1017 135 q 1010 110 1017 135 q 996 49 1003 85 q 989 -19 989 14 l 975 -19 l 951 118 l 1193 964 l 1276 964 m 1167 872 q 1160 936 1178 914 q 1114 958 1142 958 l 1101 958 l 1101 972 l 1381 972 l 1381 958 q 1375 958 1381 958 q 1369 958 1369 958 q 1300 938 1338 958 q 1247 872 1263 918 l 1167 872 m 257 872 l 108 872 q 55 938 92 918 q -14 958 18 958 q -19 958 -14 958 q -25 958 -25 958 l -25 972 l 322 972 l 322 958 l 310 958 q 263 936 283 958 q 257 872 243 914 z "},"Ẁ":{"ha":1358,"x_min":-25,"x_max":1381,"o":"m 75 964 l 226 964 l 472 201 l 429 -19 l 75 964 m 722 994 l 738 874 l 472 135 q 465 110 472 135 q 450 51 457 86 q 442 -19 443 17 l 429 -19 l 399 118 l 710 994 l 722 994 m 722 993 l 1018 222 l 975 -19 l 658 800 l 722 993 m 1276 964 l 1017 135 q 1010 110 1017 135 q 996 49 1003 85 q 989 -19 989 14 l 975 -19 l 951 118 l 1193 964 l 1276 964 m 1167 872 q 1160 936 1178 914 q 1114 958 1142 958 l 1101 958 l 1101 972 l 1381 972 l 1381 958 q 1375 958 1381 958 q 1369 958 1369 958 q 1300 938 1338 958 q 1247 872 1263 918 l 1167 872 m 257 872 l 108 872 q 55 938 92 918 q -14 958 18 958 q -19 958 -14 958 q -25 958 -25 958 l -25 972 l 322 972 l 322 958 l 310 958 q 263 936 283 958 q 257 872 243 914 z "},"X":{"ha":950,"x_min":-21,"x_max":974,"o":"m 251 972 l 874 1 l 718 1 l 99 972 l 251 972 m 238 100 q 231 60 225 81 q 252 27 236 40 q 286 14 268 14 q 295 14 286 14 q 304 14 304 14 l 304 0 l -21 0 l -21 14 l -1 14 q 81 39 43 14 q 140 96 118 64 l 238 100 m 424 513 l 468 454 l 174 1 l 75 1 l 424 513 m 654 100 l 814 94 q 874 38 836 63 q 954 14 911 14 l 974 14 l 974 0 l 589 0 l 589 14 q 598 14 589 14 q 607 14 607 14 q 653 42 635 14 q 654 100 672 69 m 382 972 l 382 958 q 374 958 382 958 q 365 958 365 958 q 330 945 346 958 q 310 912 314 932 q 317 872 306 892 l 160 876 q 101 933 138 908 q 19 958 64 958 l 0 958 l 0 972 l 382 972 m 846 972 l 517 486 l 467 531 l 747 972 l 846 972 m 940 972 l 940 958 l 921 958 q 841 933 878 958 q 781 876 804 908 l 683 872 q 691 912 696 892 q 671 945 686 932 q 636 958 656 958 q 628 958 636 958 q 619 958 619 958 l 618 972 l 940 972 z "},"Y":{"ha":938,"x_min":-24,"x_max":963,"o":"m 238 971 l 514 461 l 408 422 l 79 971 l 238 971 m 529 447 l 529 0 l 400 0 l 400 447 l 529 447 m 768 971 l 861 971 l 518 418 l 461 433 l 768 971 m 711 872 q 718 912 724 892 q 697 945 713 932 q 663 958 682 958 q 654 958 663 958 q 646 958 646 958 l 646 972 l 963 972 l 963 958 l 943 958 q 863 933 900 958 q 803 876 825 908 l 711 872 m 290 872 l 135 876 q 78 933 115 908 q -4 958 40 958 l -24 958 l -24 972 l 357 972 l 357 958 q 348 958 357 958 q 339 958 339 958 q 292 930 308 958 q 290 872 276 901 m 403 101 l 403 0 l 293 0 l 293 14 q 301 14 293 14 q 311 14 310 14 q 373 40 347 14 q 400 101 399 65 l 403 101 m 525 101 l 529 101 q 556 40 529 65 q 618 14 582 14 q 626 14 618 14 q 635 14 635 14 l 635 0 l 525 0 l 525 101 z "},"Ý":{"ha":938,"x_min":-24,"x_max":963,"o":"m 238 971 l 514 461 l 408 422 l 79 971 l 238 971 m 529 447 l 529 0 l 400 0 l 400 447 l 529 447 m 768 971 l 861 971 l 518 418 l 461 433 l 768 971 m 711 872 q 718 912 724 892 q 697 945 713 932 q 663 958 682 958 q 654 958 663 958 q 646 958 646 958 l 646 972 l 963 972 l 963 958 l 943 958 q 863 933 900 958 q 803 876 825 908 l 711 872 m 290 872 l 135 876 q 78 933 115 908 q -4 958 40 958 l -24 958 l -24 972 l 357 972 l 357 958 q 348 958 357 958 q 339 958 339 958 q 292 930 308 958 q 290 872 276 901 m 403 101 l 403 0 l 293 0 l 293 14 q 301 14 293 14 q 311 14 310 14 q 373 40 347 14 q 400 101 399 65 l 403 101 m 525 101 l 529 101 q 556 40 529 65 q 618 14 582 14 q 626 14 618 14 q 635 14 635 14 l 635 0 l 525 0 l 525 101 z "},"Ŷ":{"ha":938,"x_min":-24,"x_max":963,"o":"m 238 971 l 514 461 l 408 422 l 79 971 l 238 971 m 529 447 l 529 0 l 400 0 l 400 447 l 529 447 m 768 971 l 861 971 l 518 418 l 461 433 l 768 971 m 711 872 q 718 912 724 892 q 697 945 713 932 q 663 958 682 958 q 654 958 663 958 q 646 958 646 958 l 646 972 l 963 972 l 963 958 l 943 958 q 863 933 900 958 q 803 876 825 908 l 711 872 m 290 872 l 135 876 q 78 933 115 908 q -4 958 40 958 l -24 958 l -24 972 l 357 972 l 357 958 q 348 958 357 958 q 339 958 339 958 q 292 930 308 958 q 290 872 276 901 m 403 101 l 403 0 l 293 0 l 293 14 q 301 14 293 14 q 311 14 310 14 q 373 40 347 14 q 400 101 399 65 l 403 101 m 525 101 l 529 101 q 556 40 529 65 q 618 14 582 14 q 626 14 618 14 q 635 14 635 14 l 635 0 l 525 0 l 525 101 z "},"Ÿ":{"ha":938,"x_min":-24,"x_max":963,"o":"m 238 971 l 514 461 l 408 422 l 79 971 l 238 971 m 529 447 l 529 0 l 400 0 l 400 447 l 529 447 m 768 971 l 861 971 l 518 418 l 461 433 l 768 971 m 711 872 q 718 912 724 892 q 697 945 713 932 q 663 958 682 958 q 654 958 663 958 q 646 958 646 958 l 646 972 l 963 972 l 963 958 l 943 958 q 863 933 900 958 q 803 876 825 908 l 711 872 m 290 872 l 135 876 q 78 933 115 908 q -4 958 40 958 l -24 958 l -24 972 l 357 972 l 357 958 q 348 958 357 958 q 339 958 339 958 q 292 930 308 958 q 290 872 276 901 m 403 101 l 403 0 l 293 0 l 293 14 q 301 14 293 14 q 311 14 310 14 q 373 40 347 14 q 400 101 399 65 l 403 101 m 525 101 l 529 101 q 556 40 529 65 q 618 14 582 14 q 626 14 618 14 q 635 14 635 14 l 635 0 l 525 0 l 525 101 z "},"Ỳ":{"ha":938,"x_min":-24,"x_max":963,"o":"m 238 971 l 514 461 l 408 422 l 79 971 l 238 971 m 529 447 l 529 0 l 400 0 l 400 447 l 529 447 m 768 971 l 861 971 l 518 418 l 461 433 l 768 971 m 711 872 q 718 912 724 892 q 697 945 713 932 q 663 958 682 958 q 654 958 663 958 q 646 958 646 958 l 646 972 l 963 972 l 963 958 l 943 958 q 863 933 900 958 q 803 876 825 908 l 711 872 m 290 872 l 135 876 q 78 933 115 908 q -4 958 40 958 l -24 958 l -24 972 l 357 972 l 357 958 q 348 958 357 958 q 339 958 339 958 q 292 930 308 958 q 290 872 276 901 m 403 101 l 403 0 l 293 0 l 293 14 q 301 14 293 14 q 311 14 310 14 q 373 40 347 14 q 400 101 399 65 l 403 101 m 525 101 l 529 101 q 556 40 529 65 q 618 14 582 14 q 626 14 618 14 q 635 14 635 14 l 635 0 l 525 0 l 525 101 z "},"Z":{"ha":908,"x_min":76,"x_max":864,"o":"m 817 992 q 817 985 817 992 q 817 979 817 979 l 222 0 l 76 0 l 76 13 l 635 926 l 96 926 l 96 974 l 669 974 q 728 976 697 974 q 784 983 760 979 q 817 992 808 988 m 818 47 l 810 0 l 168 0 l 168 47 l 818 47 m 864 236 l 817 0 l 610 0 l 622 38 l 640 47 q 776 101 722 47 q 850 236 829 154 l 864 236 m 211 926 q 138 897 167 925 q 110 824 110 868 l 110 801 l 96 801 l 96 931 l 211 931 l 211 926 m 96 999 q 138 988 110 993 q 201 978 167 982 q 265 974 236 974 l 96 958 l 96 999 z "},"Ź":{"ha":908,"x_min":76,"x_max":864,"o":"m 817 992 q 817 985 817 992 q 817 979 817 979 l 222 0 l 76 0 l 76 13 l 635 926 l 96 926 l 96 974 l 669 974 q 728 976 697 974 q 784 983 760 979 q 817 992 808 988 m 818 47 l 810 0 l 168 0 l 168 47 l 818 47 m 864 236 l 817 0 l 610 0 l 622 38 l 640 47 q 776 101 722 47 q 850 236 829 154 l 864 236 m 211 926 q 138 897 167 925 q 110 824 110 868 l 110 801 l 96 801 l 96 931 l 211 931 l 211 926 m 96 999 q 138 988 110 993 q 201 978 167 982 q 265 974 236 974 l 96 958 l 96 999 z "},"Ž":{"ha":908,"x_min":76,"x_max":864,"o":"m 817 992 q 817 985 817 992 q 817 979 817 979 l 222 0 l 76 0 l 76 13 l 635 926 l 96 926 l 96 974 l 669 974 q 728 976 697 974 q 784 983 760 979 q 817 992 808 988 m 818 47 l 810 0 l 168 0 l 168 47 l 818 47 m 864 236 l 817 0 l 610 0 l 622 38 l 640 47 q 776 101 722 47 q 850 236 829 154 l 864 236 m 211 926 q 138 897 167 925 q 110 824 110 868 l 110 801 l 96 801 l 96 931 l 211 931 l 211 926 m 96 999 q 138 988 110 993 q 201 978 167 982 q 265 974 236 974 l 96 958 l 96 999 z "},"Ż":{"ha":908,"x_min":76,"x_max":864,"o":"m 817 992 q 817 985 817 992 q 817 979 817 979 l 222 0 l 76 0 l 76 13 l 635 926 l 96 926 l 96 974 l 669 974 q 728 976 697 974 q 784 983 760 979 q 817 992 808 988 m 818 47 l 810 0 l 168 0 l 168 47 l 818 47 m 864 236 l 817 0 l 610 0 l 622 38 l 640 47 q 776 101 722 47 q 850 236 829 154 l 864 236 m 211 926 q 138 897 167 925 q 110 824 110 868 l 110 801 l 96 801 l 96 931 l 211 931 l 211 926 m 96 999 q 138 988 110 993 q 201 978 167 982 q 265 974 236 974 l 96 958 l 96 999 z "},"a":{"ha":913,"x_min":-17,"x_max":931,"o":"m 458 858 l 850 8 l 699 8 l 415 692 l 458 858 m 193 99 q 197 36 178 58 q 242 14 217 14 l 253 14 l 253 0 l -17 0 l -17 14 q -11 14 -17 14 q -6 14 -6 14 q 53 33 22 14 q 106 99 83 53 l 193 99 m 458 858 l 467 739 l 154 4 l 61 4 l 389 707 q 399 728 390 710 q 417 772 407 747 q 437 821 428 797 q 447 858 446 844 l 458 858 m 608 307 l 608 261 l 244 261 l 244 307 l 608 307 m 663 99 l 810 99 q 861 33 831 53 q 919 14 892 14 q 925 14 919 14 q 931 14 931 14 l 931 0 l 604 0 l 604 14 l 615 14 q 658 36 639 14 q 663 99 678 58 z "},"á":{"ha":913,"x_min":-17,"x_max":931,"o":"m 458 858 l 850 8 l 699 8 l 415 692 l 458 858 m 193 99 q 197 36 178 58 q 242 14 217 14 l 253 14 l 253 0 l -17 0 l -17 14 q -11 14 -17 14 q -6 14 -6 14 q 53 33 22 14 q 106 99 83 53 l 193 99 m 458 858 l 467 739 l 154 4 l 61 4 l 389 707 q 399 728 390 710 q 417 772 407 747 q 437 821 428 797 q 447 858 446 844 l 458 858 m 608 307 l 608 261 l 244 261 l 244 307 l 608 307 m 663 99 l 810 99 q 861 33 831 53 q 919 14 892 14 q 925 14 919 14 q 931 14 931 14 l 931 0 l 604 0 l 604 14 l 615 14 q 658 36 639 14 q 663 99 678 58 z "},"ă":{"ha":913,"x_min":-17,"x_max":931,"o":"m 458 858 l 850 8 l 699 8 l 415 692 l 458 858 m 193 99 q 197 36 178 58 q 242 14 217 14 l 253 14 l 253 0 l -17 0 l -17 14 q -11 14 -17 14 q -6 14 -6 14 q 53 33 22 14 q 106 99 83 53 l 193 99 m 458 858 l 467 739 l 154 4 l 61 4 l 389 707 q 399 728 390 710 q 417 772 407 747 q 437 821 428 797 q 447 858 446 844 l 458 858 m 608 307 l 608 261 l 244 261 l 244 307 l 608 307 m 663 99 l 810 99 q 861 33 831 53 q 919 14 892 14 q 925 14 919 14 q 931 14 931 14 l 931 0 l 604 0 l 604 14 l 615 14 q 658 36 639 14 q 663 99 678 58 z "},"â":{"ha":913,"x_min":-17,"x_max":931,"o":"m 458 858 l 850 8 l 699 8 l 415 692 l 458 858 m 193 99 q 197 36 178 58 q 242 14 217 14 l 253 14 l 253 0 l -17 0 l -17 14 q -11 14 -17 14 q -6 14 -6 14 q 53 33 22 14 q 106 99 83 53 l 193 99 m 458 858 l 467 739 l 154 4 l 61 4 l 389 707 q 399 728 390 710 q 417 772 407 747 q 437 821 428 797 q 447 858 446 844 l 458 858 m 608 307 l 608 261 l 244 261 l 244 307 l 608 307 m 663 99 l 810 99 q 861 33 831 53 q 919 14 892 14 q 925 14 919 14 q 931 14 931 14 l 931 0 l 604 0 l 604 14 l 615 14 q 658 36 639 14 q 663 99 678 58 z "},"ä":{"ha":913,"x_min":-17,"x_max":931,"o":"m 458 858 l 850 8 l 699 8 l 415 692 l 458 858 m 193 99 q 197 36 178 58 q 242 14 217 14 l 253 14 l 253 0 l -17 0 l -17 14 q -11 14 -17 14 q -6 14 -6 14 q 53 33 22 14 q 106 99 83 53 l 193 99 m 458 858 l 467 739 l 154 4 l 61 4 l 389 707 q 399 728 390 710 q 417 772 407 747 q 437 821 428 797 q 447 858 446 844 l 458 858 m 608 307 l 608 261 l 244 261 l 244 307 l 608 307 m 663 99 l 810 99 q 861 33 831 53 q 919 14 892 14 q 925 14 919 14 q 931 14 931 14 l 931 0 l 604 0 l 604 14 l 615 14 q 658 36 639 14 q 663 99 678 58 z "},"à":{"ha":913,"x_min":-17,"x_max":931,"o":"m 458 858 l 850 8 l 699 8 l 415 692 l 458 858 m 193 99 q 197 36 178 58 q 242 14 217 14 l 253 14 l 253 0 l -17 0 l -17 14 q -11 14 -17 14 q -6 14 -6 14 q 53 33 22 14 q 106 99 83 53 l 193 99 m 458 858 l 467 739 l 154 4 l 61 4 l 389 707 q 399 728 390 710 q 417 772 407 747 q 437 821 428 797 q 447 858 446 844 l 458 858 m 608 307 l 608 261 l 244 261 l 244 307 l 608 307 m 663 99 l 810 99 q 861 33 831 53 q 919 14 892 14 q 925 14 919 14 q 931 14 931 14 l 931 0 l 604 0 l 604 14 l 615 14 q 658 36 639 14 q 663 99 678 58 z "},"ā":{"ha":913,"x_min":-17,"x_max":931,"o":"m 458 858 l 850 8 l 699 8 l 415 692 l 458 858 m 193 99 q 197 36 178 58 q 242 14 217 14 l 253 14 l 253 0 l -17 0 l -17 14 q -11 14 -17 14 q -6 14 -6 14 q 53 33 22 14 q 106 99 83 53 l 193 99 m 458 858 l 467 739 l 154 4 l 61 4 l 389 707 q 399 728 390 710 q 417 772 407 747 q 437 821 428 797 q 447 858 446 844 l 458 858 m 608 307 l 608 261 l 244 261 l 244 307 l 608 307 m 663 99 l 810 99 q 861 33 831 53 q 919 14 892 14 q 925 14 919 14 q 931 14 931 14 l 931 0 l 604 0 l 604 14 l 615 14 q 658 36 639 14 q 663 99 678 58 z "},"ą":{"ha":903,"x_min":-17,"x_max":921,"o":"m 190 99 q 194 36 175 58 q 239 14 214 14 l 250 14 l 250 0 l -17 0 l -17 14 q -11 14 -17 14 q -6 14 -6 14 q 53 33 22 14 q 106 99 83 53 l 190 99 m 457 856 l 465 740 l 151 4 l 61 4 l 388 706 q 397 726 389 708 q 416 769 406 744 q 435 818 426 794 q 444 856 443 842 l 457 856 m 457 856 l 847 8 l 699 8 l 417 692 l 457 856 m 607 308 l 607 263 l 244 263 l 244 308 l 607 308 m 669 -1 q 609 -40 625 -12 q 594 -101 593 -68 q 623 -166 596 -140 q 689 -192 650 -192 q 761 -160 728 -193 l 769 -168 q 730 -228 758 -207 q 665 -254 701 -250 q 595 -244 629 -258 q 540 -199 561 -231 q 519 -117 518 -167 q 547 -42 519 -75 q 624 10 575 -10 q 663 39 647 19 q 661 100 678 58 l 807 97 q 842 47 822 65 q 882 20 861 28 q 921 13 903 13 l 921 -1 q 865 1 897 -1 q 796 6 832 4 q 726 6 760 7 q 669 -1 693 4 z "},"å":{"ha":913,"x_min":-17,"x_max":931,"o":"m 458 858 l 850 8 l 699 8 l 415 692 l 458 858 m 193 99 q 197 36 178 58 q 242 14 217 14 l 253 14 l 253 0 l -17 0 l -17 14 q -11 14 -17 14 q -6 14 -6 14 q 53 33 22 14 q 106 99 83 53 l 193 99 m 458 858 l 467 739 l 154 4 l 61 4 l 389 707 q 399 728 390 710 q 417 772 407 747 q 437 821 428 797 q 447 858 446 844 l 458 858 m 608 307 l 608 261 l 244 261 l 244 307 l 608 307 m 663 99 l 810 99 q 861 33 831 53 q 919 14 892 14 q 925 14 919 14 q 931 14 931 14 l 931 0 l 604 0 l 604 14 l 615 14 q 658 36 639 14 q 663 99 678 58 z "},"ã":{"ha":913,"x_min":-17,"x_max":931,"o":"m 458 858 l 850 8 l 699 8 l 415 692 l 458 858 m 193 99 q 197 36 178 58 q 242 14 217 14 l 253 14 l 253 0 l -17 0 l -17 14 q -11 14 -17 14 q -6 14 -6 14 q 53 33 22 14 q 106 99 83 53 l 193 99 m 458 858 l 467 739 l 154 4 l 61 4 l 389 707 q 399 728 390 710 q 417 772 407 747 q 437 821 428 797 q 447 858 446 844 l 458 858 m 608 307 l 608 261 l 244 261 l 244 307 l 608 307 m 663 99 l 810 99 q 861 33 831 53 q 919 14 892 14 q 925 14 919 14 q 931 14 931 14 l 931 0 l 604 0 l 604 14 l 615 14 q 658 36 639 14 q 663 99 678 58 z "},"æ":{"ha":1169,"x_min":-14,"x_max":1133,"o":"m 197 82 q 188 49 186 64 q 202 24 190 33 q 232 14 214 14 l 243 14 l 243 0 l -14 0 l -14 14 q -10 14 -14 14 q -6 14 -6 14 q 55 34 25 14 q 104 86 85 54 l 197 82 m 718 833 l 718 0 l 592 0 l 592 779 l 718 833 m 594 69 l 594 0 l 521 0 l 521 14 q 528 14 522 14 q 533 14 533 14 q 574 30 557 14 q 592 69 592 46 l 594 69 m 1063 46 l 1063 0 l 714 0 l 714 46 l 1063 46 m 1011 424 l 1011 376 l 364 376 l 369 424 l 1011 424 m 1063 833 l 1063 785 l 638 785 l 618 744 l 149 4 l 49 4 l 586 776 q 588 808 596 793 q 560 822 579 822 l 556 822 l 556 833 l 1063 833 m 1133 196 l 1071 0 l 883 0 l 919 46 q 1044 88 996 46 q 1118 196 1093 129 l 1133 196 m 1011 379 l 1011 289 l 997 289 l 997 301 q 976 355 997 333 q 922 376 954 376 l 922 379 l 1011 379 m 1011 514 l 1011 421 l 922 421 l 922 424 q 976 445 954 424 q 997 499 997 467 l 997 514 l 1011 514 m 1063 788 l 1063 689 l 1049 689 l 1049 704 q 1026 762 1049 739 q 969 785 1003 785 l 969 788 l 1063 788 m 1063 856 l 1063 821 l 917 833 q 1001 841 957 833 q 1063 856 1046 849 z "},"b":{"ha":807,"x_min":68,"x_max":753,"o":"m 194 833 l 381 833 q 475 826 424 833 q 572 797 526 818 q 648 735 618 776 q 678 625 678 693 q 656 544 678 581 q 599 484 633 507 q 525 453 564 461 q 642 417 590 447 q 723 340 693 388 q 753 235 753 293 q 725 123 753 168 q 650 51 697 78 q 546 12 603 24 q 432 0 489 0 l 276 0 q 277 12 276 0 q 278 35 278 24 q 278 46 278 46 l 411 46 q 513 66 468 46 q 585 129 558 86 q 613 239 613 172 q 588 340 613 300 q 524 401 564 379 q 433 431 483 422 q 331 440 383 440 l 331 454 q 404 460 367 454 q 473 485 442 467 q 524 535 504 503 q 544 621 544 568 q 496 749 544 710 q 365 788 447 788 l 207 788 q 203 800 207 789 q 197 822 200 811 q 194 833 194 833 m 289 833 l 289 0 l 164 0 l 164 833 l 289 833 m 168 89 l 168 0 l 68 0 l 68 14 q 76 14 68 14 q 83 14 83 14 q 142 36 119 14 q 164 89 164 58 l 168 89 m 168 744 l 164 744 q 142 799 164 778 q 83 819 119 819 q 76 819 83 819 q 68 819 68 819 l 68 833 l 168 833 l 168 744 z "},"c":{"ha":969,"x_min":63,"x_max":910,"o":"m 910 350 l 906 153 q 817 63 872 101 q 691 2 763 24 q 535 -19 619 -19 q 283 35 389 -18 q 119 184 176 88 q 63 417 63 281 q 119 650 63 553 q 283 800 176 747 q 535 853 389 853 q 709 832 624 853 q 856 775 794 811 l 876 571 l 864 571 q 745 753 832 699 q 539 807 658 807 q 356 759 432 807 q 240 624 281 711 q 199 418 199 538 q 240 213 199 300 q 356 78 281 125 q 535 28 431 31 q 715 61 638 28 q 840 165 792 94 q 899 350 888 236 l 910 350 z "},"ć":{"ha":969,"x_min":63,"x_max":910,"o":"m 910 350 l 906 153 q 817 63 872 101 q 691 2 763 24 q 535 -19 619 -19 q 283 35 389 -18 q 119 184 176 88 q 63 417 63 281 q 119 650 63 553 q 283 800 176 747 q 535 853 389 853 q 709 832 624 853 q 856 775 794 811 l 876 571 l 864 571 q 745 753 832 699 q 539 807 658 807 q 356 759 432 807 q 240 624 281 711 q 199 418 199 538 q 240 213 199 300 q 356 78 281 125 q 535 28 431 31 q 715 61 638 28 q 840 165 792 94 q 899 350 888 236 l 910 350 z "},"č":{"ha":969,"x_min":63,"x_max":910,"o":"m 910 350 l 906 153 q 817 63 872 101 q 691 2 763 24 q 535 -19 619 -19 q 283 35 389 -18 q 119 184 176 88 q 63 417 63 281 q 119 650 63 553 q 283 800 176 747 q 535 853 389 853 q 709 832 624 853 q 856 775 794 811 l 876 571 l 864 571 q 745 753 832 699 q 539 807 658 807 q 356 759 432 807 q 240 624 281 711 q 199 418 199 538 q 240 213 199 300 q 356 78 281 125 q 535 28 431 31 q 715 61 638 28 q 840 165 792 94 q 899 350 888 236 l 910 350 z "},"ç":{"ha":969,"x_min":63,"x_max":910,"o":"m 910 350 l 906 153 q 817 63 872 101 q 691 2 763 24 q 535 -19 619 -19 q 283 35 389 -18 q 119 184 176 88 q 63 417 63 281 q 119 650 63 553 q 283 800 176 747 q 535 853 389 853 q 709 832 624 853 q 856 775 794 811 l 876 571 l 864 571 q 745 753 832 699 q 539 807 658 807 q 356 759 432 807 q 240 624 281 711 q 199 418 199 538 q 240 213 199 300 q 356 78 281 125 q 535 28 431 31 q 715 61 638 28 q 840 165 792 94 q 899 350 888 236 l 910 350 z "},"ċ":{"ha":969,"x_min":63,"x_max":910,"o":"m 910 350 l 906 153 q 817 63 872 101 q 691 2 763 24 q 535 -19 619 -19 q 283 35 389 -18 q 119 184 176 88 q 63 417 63 281 q 119 650 63 553 q 283 800 176 747 q 535 853 389 853 q 709 832 624 853 q 856 775 794 811 l 876 571 l 864 571 q 745 753 832 699 q 539 807 658 807 q 356 759 432 807 q 240 624 281 711 q 199 418 199 538 q 240 213 199 300 q 356 78 281 125 q 535 28 431 31 q 715 61 638 28 q 840 165 792 94 q 899 350 888 236 l 910 350 z "},"d":{"ha":1050,"x_min":67,"x_max":988,"o":"m 532 833 q 776 783 674 833 q 933 640 878 733 q 988 417 988 546 q 933 194 988 288 q 776 51 878 101 q 532 0 674 0 l 232 0 l 229 46 q 394 46 329 46 q 493 46 460 46 q 526 46 526 46 q 764 145 678 46 q 850 417 850 244 q 764 688 850 589 q 526 788 678 788 q 492 788 526 788 q 389 788 458 788 q 215 788 319 788 l 215 833 l 532 833 m 290 833 l 290 0 l 163 0 l 163 833 l 290 833 m 167 90 l 167 0 l 67 0 l 67 14 q 75 14 67 14 q 85 14 83 14 q 140 37 117 14 q 163 90 163 60 l 167 90 m 165 744 l 163 744 q 138 798 161 776 q 83 819 115 819 q 75 819 83 819 q 67 819 67 819 l 67 833 l 165 833 l 165 744 z "},"ð":{"ha":1050,"x_min":67,"x_max":988,"o":"m 532 833 q 776 783 674 833 q 933 640 878 733 q 988 417 988 546 q 933 194 988 288 q 776 51 878 101 q 532 0 674 0 l 232 0 l 229 46 q 394 46 329 46 q 493 46 460 46 q 526 46 526 46 q 764 145 678 46 q 850 417 850 244 q 764 688 850 589 q 526 788 678 788 q 492 788 526 788 q 389 788 458 788 q 215 788 319 788 l 215 833 l 532 833 m 290 833 l 290 0 l 163 0 l 163 833 l 290 833 m 167 89 l 167 0 l 67 0 l 67 14 q 75 14 67 14 q 85 14 83 14 q 140 36 117 14 q 163 89 163 58 l 167 89 m 165 744 l 163 744 q 139 798 163 776 q 83 819 115 819 q 75 819 83 819 q 67 819 67 819 l 67 833 l 165 833 l 165 744 m 74 440 l 493 440 l 493 394 l 74 394 l 74 440 z "},"ď":{"ha":1050,"x_min":67,"x_max":988,"o":"m 532 833 q 776 783 674 833 q 933 640 878 733 q 988 417 988 546 q 933 194 988 288 q 776 51 878 101 q 532 0 674 0 l 232 0 l 229 46 q 394 46 329 46 q 493 46 460 46 q 526 46 526 46 q 764 145 678 46 q 850 417 850 244 q 764 688 850 589 q 526 788 678 788 q 492 788 526 788 q 389 788 458 788 q 215 788 319 788 l 215 833 l 532 833 m 290 833 l 290 0 l 163 0 l 163 833 l 290 833 m 167 90 l 167 0 l 67 0 l 67 14 q 75 14 67 14 q 85 14 83 14 q 140 37 117 14 q 163 90 163 60 l 167 90 m 165 744 l 163 744 q 138 798 161 776 q 83 819 115 819 q 75 819 83 819 q 67 819 67 819 l 67 833 l 165 833 l 165 744 z "},"đ":{"ha":1050,"x_min":67,"x_max":988,"o":"m 532 833 q 776 783 674 833 q 933 640 878 733 q 988 417 988 546 q 933 194 988 288 q 776 51 878 101 q 532 0 674 0 l 232 0 l 229 46 q 394 46 329 46 q 493 46 460 46 q 526 46 526 46 q 764 145 678 46 q 850 417 850 244 q 764 688 850 589 q 526 788 678 788 q 492 788 526 788 q 389 788 458 788 q 215 788 319 788 l 215 833 l 532 833 m 290 833 l 290 0 l 163 0 l 163 833 l 290 833 m 167 90 l 167 0 l 67 0 l 67 14 q 75 14 67 14 q 85 14 83 14 q 140 37 117 14 q 163 90 163 60 l 167 90 m 165 744 l 163 744 q 138 798 161 776 q 83 819 115 819 q 75 819 83 819 q 67 819 67 819 l 67 833 l 165 833 l 165 744 z "},"e":{"ha":767,"x_min":67,"x_max":729,"o":"m 290 833 l 290 0 l 164 0 l 164 833 l 290 833 m 647 47 l 657 0 l 288 0 l 288 47 l 647 47 m 589 439 l 589 392 l 288 392 l 288 439 l 589 439 m 651 833 l 651 786 l 288 786 l 288 833 l 651 833 m 729 218 l 661 0 l 440 0 l 486 47 q 595 69 551 47 q 668 129 639 90 q 715 218 697 168 l 729 218 m 589 394 l 589 301 l 574 301 l 574 317 q 555 370 574 349 q 500 392 536 392 l 500 394 l 589 394 m 589 529 l 589 436 l 500 436 l 500 439 q 555 461 536 439 q 574 514 574 483 l 574 529 l 589 529 m 651 790 l 651 676 l 638 676 l 638 694 q 614 760 638 735 q 549 786 590 786 l 549 790 l 651 790 m 651 856 l 651 819 l 497 833 q 588 841 540 833 q 651 856 635 849 m 167 89 l 182 0 l 67 0 l 67 14 q 76 14 67 14 q 86 14 85 14 q 141 36 119 14 q 164 89 163 58 l 167 89 m 167 746 l 164 746 q 141 799 163 778 q 86 819 119 819 q 76 819 85 819 q 67 819 67 819 l 67 833 l 182 833 l 167 746 z "},"é":{"ha":767,"x_min":67,"x_max":729,"o":"m 290 833 l 290 0 l 164 0 l 164 833 l 290 833 m 647 47 l 657 0 l 288 0 l 288 47 l 647 47 m 589 439 l 589 392 l 288 392 l 288 439 l 589 439 m 651 833 l 651 786 l 288 786 l 288 833 l 651 833 m 729 218 l 661 0 l 440 0 l 486 47 q 595 69 551 47 q 668 129 639 90 q 715 218 697 168 l 729 218 m 589 394 l 589 301 l 574 301 l 574 317 q 555 370 574 349 q 500 392 536 392 l 500 394 l 589 394 m 589 529 l 589 436 l 500 436 l 500 439 q 555 461 536 439 q 574 514 574 483 l 574 529 l 589 529 m 651 790 l 651 676 l 638 676 l 638 694 q 614 760 638 735 q 549 786 590 786 l 549 790 l 651 790 m 651 856 l 651 819 l 497 833 q 588 841 540 833 q 651 856 635 849 m 167 89 l 182 0 l 67 0 l 67 14 q 76 14 67 14 q 86 14 85 14 q 141 36 119 14 q 164 89 163 58 l 167 89 m 167 746 l 164 746 q 141 799 163 778 q 86 819 119 819 q 76 819 85 819 q 67 819 67 819 l 67 833 l 182 833 l 167 746 z "},"ě":{"ha":767,"x_min":67,"x_max":729,"o":"m 290 833 l 290 0 l 164 0 l 164 833 l 290 833 m 647 47 l 657 0 l 288 0 l 288 47 l 647 47 m 589 439 l 589 392 l 288 392 l 288 439 l 589 439 m 651 833 l 651 786 l 288 786 l 288 833 l 651 833 m 729 218 l 661 0 l 440 0 l 486 47 q 595 69 551 47 q 668 129 639 90 q 715 218 697 168 l 729 218 m 589 394 l 589 301 l 574 301 l 574 317 q 555 370 574 349 q 500 392 536 392 l 500 394 l 589 394 m 589 529 l 589 436 l 500 436 l 500 439 q 555 461 536 439 q 574 514 574 483 l 574 529 l 589 529 m 651 790 l 651 676 l 638 676 l 638 694 q 614 760 638 735 q 549 786 590 786 l 549 790 l 651 790 m 651 856 l 651 819 l 497 833 q 588 841 540 833 q 651 856 635 849 m 167 89 l 182 0 l 67 0 l 67 14 q 76 14 67 14 q 86 14 85 14 q 141 36 119 14 q 164 89 163 58 l 167 89 m 167 746 l 164 746 q 141 799 163 778 q 86 819 119 819 q 76 819 85 819 q 67 819 67 819 l 67 833 l 182 833 l 167 746 z "},"ê":{"ha":767,"x_min":67,"x_max":729,"o":"m 290 833 l 290 0 l 164 0 l 164 833 l 290 833 m 647 47 l 657 0 l 288 0 l 288 47 l 647 47 m 589 439 l 589 392 l 288 392 l 288 439 l 589 439 m 651 833 l 651 786 l 288 786 l 288 833 l 651 833 m 729 218 l 661 0 l 440 0 l 486 47 q 595 69 551 47 q 668 129 639 90 q 715 218 697 168 l 729 218 m 589 394 l 589 301 l 574 301 l 574 317 q 555 370 574 349 q 500 392 536 392 l 500 394 l 589 394 m 589 529 l 589 436 l 500 436 l 500 439 q 555 461 536 439 q 574 514 574 483 l 574 529 l 589 529 m 651 790 l 651 676 l 638 676 l 638 694 q 614 760 638 735 q 549 786 590 786 l 549 790 l 651 790 m 651 856 l 651 819 l 497 833 q 588 841 540 833 q 651 856 635 849 m 167 89 l 182 0 l 67 0 l 67 14 q 76 14 67 14 q 86 14 85 14 q 141 36 119 14 q 164 89 163 58 l 167 89 m 167 746 l 164 746 q 141 799 163 778 q 86 819 119 819 q 76 819 85 819 q 67 819 67 819 l 67 833 l 182 833 l 167 746 z "},"ë":{"ha":767,"x_min":67,"x_max":729,"o":"m 290 833 l 290 0 l 164 0 l 164 833 l 290 833 m 647 47 l 657 0 l 288 0 l 288 47 l 647 47 m 589 439 l 589 392 l 288 392 l 288 439 l 589 439 m 651 833 l 651 786 l 288 786 l 288 833 l 651 833 m 729 218 l 661 0 l 440 0 l 486 47 q 595 69 551 47 q 668 129 639 90 q 715 218 697 168 l 729 218 m 589 394 l 589 301 l 574 301 l 574 317 q 555 370 574 349 q 500 392 536 392 l 500 394 l 589 394 m 589 529 l 589 436 l 500 436 l 500 439 q 555 461 536 439 q 574 514 574 483 l 574 529 l 589 529 m 651 790 l 651 676 l 638 676 l 638 694 q 614 760 638 735 q 549 786 590 786 l 549 790 l 651 790 m 651 856 l 651 819 l 497 833 q 588 841 540 833 q 651 856 635 849 m 167 89 l 182 0 l 67 0 l 67 14 q 76 14 67 14 q 86 14 85 14 q 141 36 119 14 q 164 89 163 58 l 167 89 m 167 746 l 164 746 q 141 799 163 778 q 86 819 119 819 q 76 819 85 819 q 67 819 67 819 l 67 833 l 182 833 l 167 746 z "},"ė":{"ha":767,"x_min":67,"x_max":729,"o":"m 290 833 l 290 0 l 164 0 l 164 833 l 290 833 m 647 47 l 657 0 l 288 0 l 288 47 l 647 47 m 589 439 l 589 392 l 288 392 l 288 439 l 589 439 m 651 833 l 651 786 l 288 786 l 288 833 l 651 833 m 729 218 l 661 0 l 440 0 l 486 47 q 595 69 551 47 q 668 129 639 90 q 715 218 697 168 l 729 218 m 589 394 l 589 301 l 574 301 l 574 317 q 555 370 574 349 q 500 392 536 392 l 500 394 l 589 394 m 589 529 l 589 436 l 500 436 l 500 439 q 555 461 536 439 q 574 514 574 483 l 574 529 l 589 529 m 651 790 l 651 676 l 638 676 l 638 694 q 614 760 638 735 q 549 786 590 786 l 549 790 l 651 790 m 651 856 l 651 819 l 497 833 q 588 841 540 833 q 651 856 635 849 m 167 89 l 182 0 l 67 0 l 67 14 q 76 14 67 14 q 86 14 85 14 q 141 36 119 14 q 164 89 163 58 l 167 89 m 167 746 l 164 746 q 141 799 163 778 q 86 819 119 819 q 76 819 85 819 q 67 819 67 819 l 67 833 l 182 833 l 167 746 z "},"è":{"ha":767,"x_min":67,"x_max":729,"o":"m 290 833 l 290 0 l 164 0 l 164 833 l 290 833 m 647 47 l 657 0 l 288 0 l 288 47 l 647 47 m 589 439 l 589 392 l 288 392 l 288 439 l 589 439 m 651 833 l 651 786 l 288 786 l 288 833 l 651 833 m 729 218 l 661 0 l 440 0 l 486 47 q 595 69 551 47 q 668 129 639 90 q 715 218 697 168 l 729 218 m 589 394 l 589 301 l 574 301 l 574 317 q 555 370 574 349 q 500 392 536 392 l 500 394 l 589 394 m 589 529 l 589 436 l 500 436 l 500 439 q 555 461 536 439 q 574 514 574 483 l 574 529 l 589 529 m 651 790 l 651 676 l 638 676 l 638 694 q 614 760 638 735 q 549 786 590 786 l 549 790 l 651 790 m 651 856 l 651 819 l 497 833 q 588 841 540 833 q 651 856 635 849 m 167 89 l 182 0 l 67 0 l 67 14 q 76 14 67 14 q 86 14 85 14 q 141 36 119 14 q 164 89 163 58 l 167 89 m 167 746 l 164 746 q 141 799 163 778 q 86 819 119 819 q 76 819 85 819 q 67 819 67 819 l 67 833 l 182 833 l 167 746 z "},"ē":{"ha":767,"x_min":67,"x_max":729,"o":"m 290 833 l 290 0 l 164 0 l 164 833 l 290 833 m 647 47 l 657 0 l 288 0 l 288 47 l 647 47 m 589 439 l 589 392 l 288 392 l 288 439 l 589 439 m 651 833 l 651 786 l 288 786 l 288 833 l 651 833 m 729 218 l 661 0 l 440 0 l 486 47 q 595 69 551 47 q 668 129 639 90 q 715 218 697 168 l 729 218 m 589 394 l 589 301 l 574 301 l 574 317 q 555 370 574 349 q 500 392 536 392 l 500 394 l 589 394 m 589 529 l 589 436 l 500 436 l 500 439 q 555 461 536 439 q 574 514 574 483 l 574 529 l 589 529 m 651 790 l 651 676 l 638 676 l 638 694 q 614 760 638 735 q 549 786 590 786 l 549 790 l 651 790 m 651 856 l 651 819 l 497 833 q 588 841 540 833 q 651 856 635 849 m 167 89 l 182 0 l 67 0 l 67 14 q 76 14 67 14 q 86 14 85 14 q 141 36 119 14 q 164 89 163 58 l 167 89 m 167 746 l 164 746 q 141 799 163 778 q 86 819 119 819 q 76 819 85 819 q 67 819 67 819 l 67 833 l 182 833 l 167 746 z "},"ę":{"ha":767,"x_min":67,"x_max":729,"o":"m 290 833 l 290 0 l 164 0 l 164 833 l 290 833 m 647 47 l 657 0 l 288 0 l 288 47 l 647 47 m 589 439 l 589 392 l 288 392 l 288 439 l 589 439 m 651 833 l 651 786 l 288 786 l 288 833 l 651 833 m 729 218 l 661 0 l 440 0 l 486 47 q 595 69 551 47 q 668 129 639 90 q 715 218 697 168 l 729 218 m 589 394 l 589 301 l 574 301 l 574 317 q 555 370 574 349 q 500 392 536 392 l 500 394 l 589 394 m 589 529 l 589 436 l 500 436 l 500 439 q 555 461 536 439 q 574 514 574 483 l 574 529 l 589 529 m 651 790 l 651 676 l 638 676 l 638 694 q 614 760 638 735 q 549 786 590 786 l 549 790 l 651 790 m 651 856 l 651 819 l 497 833 q 588 841 540 833 q 651 856 635 849 m 167 89 l 182 0 l 67 0 l 67 14 q 76 14 67 14 q 86 14 85 14 q 141 36 119 14 q 164 89 163 58 l 167 89 m 167 746 l 164 746 q 141 799 163 778 q 86 819 119 819 q 76 819 85 819 q 67 819 67 819 l 67 833 l 182 833 l 167 746 z "},"f":{"ha":732,"x_min":67,"x_max":657,"o":"m 290 833 l 290 0 l 165 0 l 165 833 l 290 833 m 592 439 l 592 392 l 288 392 l 288 439 l 592 439 m 657 833 l 657 786 l 288 786 l 288 833 l 657 833 m 592 394 l 592 301 l 576 301 l 576 317 q 558 370 576 349 q 503 392 540 392 l 503 394 l 592 394 m 592 529 l 592 436 l 503 436 l 503 439 q 558 461 540 439 q 576 514 576 483 l 576 529 l 592 529 m 657 790 l 657 676 l 642 676 l 642 694 q 618 760 642 735 q 553 786 594 786 l 553 790 l 657 790 m 657 856 l 657 819 l 501 833 q 560 837 529 833 q 618 846 592 840 q 657 856 644 851 m 168 89 l 182 0 l 67 0 l 67 14 q 76 14 67 14 q 86 14 85 14 q 142 36 119 14 q 165 89 164 58 l 168 89 m 168 746 l 165 746 q 142 799 164 778 q 86 819 119 819 q 76 819 85 819 q 67 819 67 819 l 67 833 l 182 833 l 168 746 m 288 89 l 290 89 q 314 36 292 58 q 371 14 336 14 q 380 14 371 14 q 389 14 389 14 l 389 0 l 274 0 l 288 89 z "},"g":{"ha":1025,"x_min":63,"x_max":1001,"o":"m 521 853 q 644 844 585 853 q 756 817 703 835 q 851 775 808 800 l 872 571 l 860 571 q 797 706 840 654 q 688 783 753 758 q 535 807 622 807 q 356 760 432 807 q 240 624 281 713 q 199 414 199 536 q 239 208 199 296 q 353 74 279 121 q 525 26 426 26 q 626 40 578 26 q 718 81 675 53 q 794 150 761 108 l 796 329 q 780 369 797 356 q 733 383 763 383 l 714 383 l 714 397 l 1001 397 l 1001 383 l 983 383 q 921 328 921 383 l 921 156 q 833 75 890 115 q 696 8 775 35 q 518 -19 617 -19 q 278 35 381 -18 q 119 185 176 88 q 63 417 63 282 q 119 650 63 553 q 279 800 176 747 q 521 853 382 853 z "},"ğ":{"ha":1025,"x_min":63,"x_max":1001,"o":"m 521 853 q 644 844 585 853 q 756 817 703 835 q 851 775 808 800 l 872 571 l 860 571 q 797 706 840 654 q 688 783 753 758 q 535 807 622 807 q 356 760 432 807 q 240 624 281 713 q 199 414 199 536 q 239 208 199 296 q 353 74 279 121 q 525 26 426 26 q 626 40 578 26 q 718 81 675 53 q 794 150 761 108 l 796 329 q 780 369 797 356 q 733 383 763 383 l 714 383 l 714 397 l 1001 397 l 1001 383 l 983 383 q 921 328 921 383 l 921 156 q 833 75 890 115 q 696 8 775 35 q 518 -19 617 -19 q 278 35 381 -18 q 119 185 176 88 q 63 417 63 282 q 119 650 63 553 q 279 800 176 747 q 521 853 382 853 z "},"ģ":{"ha":1025,"x_min":63,"x_max":1001,"o":"m 478 -111 q 507 -90 488 -94 q 546 -95 526 -86 q 576 -128 565 -104 q 588 -195 592 -162 q 567 -253 585 -228 q 524 -294 550 -279 q 467 -307 497 -308 l 464 -297 q 505 -267 493 -286 q 513 -227 517 -249 q 497 -190 510 -206 q 474 -153 483 -174 q 478 -111 464 -132 m 521 853 q 644 844 585 853 q 756 817 703 835 q 851 775 808 800 l 872 571 l 860 571 q 797 706 840 654 q 688 783 753 758 q 535 807 622 807 q 356 760 432 807 q 240 624 281 713 q 199 414 199 536 q 239 208 199 296 q 353 74 279 121 q 525 26 426 26 q 626 40 578 26 q 718 81 675 53 q 794 150 761 108 l 796 329 q 780 369 797 356 q 733 383 763 383 l 714 383 l 714 397 l 1001 397 l 1001 383 l 983 383 q 921 328 921 383 l 921 156 q 833 75 890 115 q 696 8 775 35 q 518 -19 617 -19 q 278 35 381 -18 q 119 185 176 88 q 63 417 63 282 q 119 650 63 553 q 279 800 176 747 q 521 853 382 853 z "},"ġ":{"ha":1025,"x_min":63,"x_max":1001,"o":"m 521 853 q 644 844 585 853 q 756 817 703 835 q 851 775 808 800 l 872 571 l 860 571 q 797 706 840 654 q 688 783 753 758 q 535 807 622 807 q 356 760 432 807 q 240 624 281 713 q 199 414 199 536 q 239 208 199 296 q 353 74 279 121 q 525 26 426 26 q 626 40 578 26 q 718 81 675 53 q 794 150 761 108 l 796 329 q 780 369 797 356 q 733 383 763 383 l 714 383 l 714 397 l 1001 397 l 1001 383 l 983 383 q 921 328 921 383 l 921 156 q 833 75 890 115 q 696 8 775 35 q 518 -19 617 -19 q 278 35 381 -18 q 119 185 176 88 q 63 417 63 282 q 119 650 63 553 q 279 800 176 747 q 521 853 382 853 z "},"h":{"ha":1039,"x_min":67,"x_max":974,"o":"m 878 833 l 878 0 l 751 0 l 751 833 l 878 833 m 288 833 l 288 0 l 163 0 l 163 833 l 288 833 m 765 436 l 765 389 l 274 389 l 274 436 l 765 436 m 167 89 l 167 0 l 67 0 l 67 14 q 75 14 67 14 q 83 14 83 14 q 138 36 115 14 q 163 89 161 58 l 167 89 m 285 89 l 288 89 q 312 36 289 58 q 367 14 335 14 q 375 14 367 14 q 383 14 383 14 l 383 0 l 285 0 l 285 89 m 285 744 l 285 833 l 383 833 l 383 819 q 375 819 383 819 q 367 819 367 819 q 312 798 335 819 q 288 744 289 776 l 285 744 m 167 744 l 163 744 q 138 798 161 776 q 83 819 115 819 q 75 819 83 819 q 67 819 67 819 l 67 833 l 167 833 l 167 744 m 756 89 l 756 0 l 657 0 l 657 14 q 665 14 657 14 q 672 14 672 14 q 728 36 706 14 q 751 89 750 58 l 756 89 m 874 89 l 878 89 q 901 36 879 58 q 957 14 924 14 q 965 14 957 14 q 972 14 972 14 l 972 0 l 874 0 l 874 89 m 874 744 l 874 833 l 974 833 l 974 819 q 965 819 974 819 q 957 819 957 819 q 901 798 924 819 q 878 744 879 776 l 874 744 m 756 744 l 751 744 q 728 798 750 776 q 672 819 706 819 q 665 819 672 819 q 657 819 657 819 l 657 833 l 756 833 l 756 744 z "},"ħ":{"ha":1040,"x_min":67,"x_max":974,"o":"m 974 633 l 974 588 l 72 588 l 72 633 l 974 633 m 878 833 l 878 0 l 751 0 l 751 833 l 878 833 m 288 833 l 288 0 l 163 0 l 163 833 l 288 833 m 765 436 l 765 389 l 274 389 l 274 436 l 765 436 m 167 89 l 167 0 l 67 0 l 67 14 q 75 14 67 14 q 83 14 83 14 q 138 36 115 14 q 163 89 161 58 l 167 89 m 285 89 l 288 89 q 312 36 289 58 q 367 14 335 14 q 375 14 367 14 q 383 14 383 14 l 383 0 l 285 0 l 285 89 m 285 744 l 285 833 l 383 833 l 383 819 q 375 819 383 819 q 367 819 367 819 q 312 798 335 819 q 288 744 289 776 l 285 744 m 167 744 l 163 744 q 138 798 161 776 q 83 819 115 819 q 75 819 83 819 q 67 819 67 819 l 67 833 l 167 833 l 167 744 m 756 89 l 756 0 l 657 0 l 657 14 q 665 14 657 14 q 672 14 672 14 q 728 36 706 14 q 751 89 750 58 l 756 89 m 874 89 l 878 89 q 901 36 879 58 q 957 14 924 14 q 965 14 957 14 q 972 14 972 14 l 972 0 l 874 0 l 874 89 m 874 744 l 874 833 l 974 833 l 974 819 q 965 819 974 819 q 957 819 957 819 q 901 798 924 819 q 878 744 879 776 l 874 744 m 756 744 l 751 744 q 728 798 750 776 q 672 819 706 819 q 665 819 672 819 q 657 819 657 819 l 657 833 l 756 833 l 756 744 z "},"i":{"ha":474,"x_min":67,"x_max":408,"o":"m 300 833 l 300 0 l 175 0 l 175 833 l 300 833 m 179 89 l 179 0 l 67 0 l 67 14 q 76 14 67 14 q 86 14 85 14 q 148 36 122 14 q 175 89 174 58 l 179 89 m 296 89 l 300 89 q 327 36 301 58 q 390 14 353 14 q 399 14 390 14 q 407 14 407 14 l 408 0 l 296 0 l 296 89 m 296 744 l 296 833 l 408 833 l 407 819 q 399 819 407 819 q 390 819 390 819 q 327 798 353 819 q 300 744 301 776 l 296 744 m 179 744 l 175 744 q 148 798 174 776 q 85 819 122 819 q 76 819 85 819 q 67 819 67 819 l 67 833 l 179 833 l 179 744 z "},"ı":{"ha":442,"x_min":67,"x_max":375,"o":"m 283 833 l 283 0 l 157 0 l 157 833 l 283 833 m 161 89 l 161 0 l 67 0 l 67 14 q 74 14 67 14 q 82 14 82 14 q 135 36 114 14 q 157 89 157 58 l 161 89 m 281 89 l 283 89 q 307 36 285 58 q 360 14 329 14 q 367 14 360 14 q 374 14 374 14 l 375 0 l 281 0 l 281 89 m 281 744 l 281 833 l 375 833 l 374 819 q 367 819 374 819 q 360 819 360 819 q 307 798 329 819 q 283 744 285 776 l 281 744 m 161 744 l 157 744 q 135 798 157 776 q 82 819 114 819 q 74 819 82 819 q 67 819 67 819 l 67 833 l 161 833 l 161 744 z "},"í":{"ha":440,"x_min":67,"x_max":460,"o":"m 283 833 l 283 0 l 157 0 l 157 833 l 283 833 m 161 89 l 161 0 l 67 0 l 67 14 q 74 14 67 14 q 82 14 82 14 q 135 36 114 14 q 157 89 157 58 l 161 89 m 281 89 l 283 89 q 307 36 285 58 q 360 14 329 14 q 367 14 360 14 q 374 14 374 14 l 375 0 l 281 0 l 281 89 m 281 744 l 281 833 l 375 833 l 374 819 q 367 819 374 819 q 360 819 360 819 q 307 798 329 819 q 283 744 285 776 l 281 744 m 161 744 l 157 744 q 135 798 157 776 q 82 819 114 819 q 74 819 82 819 q 67 819 67 819 l 67 833 l 161 833 l 161 744 z "},"î":{"ha":440,"x_min":47,"x_max":403,"o":"m 283 833 l 283 0 l 157 0 l 157 833 l 283 833 m 161 89 l 161 0 l 67 0 l 67 14 q 74 14 67 14 q 82 14 82 14 q 135 36 114 14 q 157 89 157 58 l 161 89 m 281 89 l 283 89 q 307 36 285 58 q 360 14 329 14 q 367 14 360 14 q 374 14 374 14 l 375 0 l 281 0 l 281 89 m 281 744 l 281 833 l 375 833 l 374 819 q 367 819 374 819 q 360 819 360 819 q 307 798 329 819 q 283 744 285 776 l 281 744 m 161 744 l 157 744 q 135 798 157 776 q 82 819 114 819 q 74 819 82 819 q 67 819 67 819 l 67 833 l 161 833 l 161 744 z "},"ï":{"ha":440,"x_min":14,"x_max":425,"o":"m 283 833 l 283 0 l 157 0 l 157 833 l 283 833 m 161 89 l 161 0 l 67 0 l 67 14 q 74 14 67 14 q 82 14 82 14 q 135 36 114 14 q 157 89 157 58 l 161 89 m 281 89 l 283 89 q 307 36 285 58 q 360 14 329 14 q 367 14 360 14 q 374 14 374 14 l 375 0 l 281 0 l 281 89 m 281 744 l 281 833 l 375 833 l 374 819 q 367 819 374 819 q 360 819 360 819 q 307 798 329 819 q 283 744 285 776 l 281 744 m 161 744 l 157 744 q 135 798 157 776 q 82 819 114 819 q 74 819 82 819 q 67 819 67 819 l 67 833 l 161 833 l 161 744 z "},"ì":{"ha":442,"x_min":-17,"x_max":375,"o":"m 283 833 l 283 0 l 157 0 l 157 833 l 283 833 m 161 89 l 161 0 l 67 0 l 67 14 q 74 14 67 14 q 82 14 82 14 q 135 36 114 14 q 157 89 157 58 l 161 89 m 281 89 l 283 89 q 307 36 285 58 q 360 14 329 14 q 367 14 360 14 q 374 14 374 14 l 375 0 l 281 0 l 281 89 m 281 744 l 281 833 l 375 833 l 374 819 q 367 819 374 819 q 360 819 360 819 q 307 798 329 819 q 283 744 285 776 l 281 744 m 161 744 l 157 744 q 135 798 157 776 q 82 819 114 819 q 74 819 82 819 q 67 819 67 819 l 67 833 l 161 833 l 161 744 z "},"ĳ":{"ha":918,"x_min":67,"x_max":874,"o":"m 300 833 l 300 0 l 175 0 l 175 833 l 300 833 m 179 89 l 179 0 l 67 0 l 67 14 q 76 14 67 14 q 86 14 85 14 q 148 36 122 14 q 175 89 174 58 l 179 89 m 296 89 l 300 89 q 327 36 301 58 q 390 14 353 14 q 399 14 390 14 q 407 14 407 14 l 408 0 l 296 0 l 296 89 m 296 744 l 296 833 l 408 833 l 407 819 q 399 819 407 819 q 390 819 390 819 q 327 798 353 819 q 300 744 301 776 l 296 744 m 179 744 l 175 744 q 148 798 174 776 q 85 819 122 819 q 76 819 85 819 q 67 819 67 819 l 67 833 l 179 833 l 179 744 m 768 833 l 768 14 q 745 -90 768 -42 q 683 -174 722 -139 q 592 -228 643 -210 q 485 -246 540 -247 l 485 -232 q 567 -176 532 -215 q 622 -87 603 -137 q 642 15 642 -37 l 642 833 l 768 833 m 647 833 l 647 744 l 643 744 q 617 798 642 776 q 556 819 592 819 l 539 819 l 538 833 l 647 833 m 874 833 l 874 819 l 856 819 q 795 798 821 819 q 768 744 769 776 l 764 744 l 764 833 l 874 833 z "},"ī":{"ha":500,"x_min":71,"x_max":429,"o":"m 310 833 l 310 0 l 183 0 l 183 833 l 310 833 m 188 89 l 188 0 l 93 0 l 93 14 q 101 14 93 14 q 108 14 108 14 q 162 36 140 14 q 183 89 183 58 l 188 89 m 307 89 l 310 89 q 333 36 311 58 q 386 14 356 14 q 393 14 386 14 q 400 14 400 14 l 401 0 l 307 0 l 307 89 m 307 744 l 307 833 l 401 833 l 400 819 q 393 819 400 819 q 386 819 386 819 q 333 798 356 819 q 310 744 311 776 l 307 744 m 188 744 l 183 744 q 162 798 183 776 q 108 819 140 819 q 101 819 108 819 q 93 819 93 819 l 93 833 l 188 833 l 188 744 z "},"į":{"ha":443,"x_min":69,"x_max":378,"o":"m 286 833 l 286 0 l 160 0 l 160 833 l 286 833 m 164 89 l 164 0 l 69 0 l 69 14 q 77 14 69 14 q 85 14 85 14 q 138 36 115 14 q 160 89 160 58 l 164 89 m 283 89 l 286 89 q 309 36 288 58 q 361 14 331 14 q 369 14 363 14 q 376 14 376 14 l 378 0 l 283 0 l 283 89 m 283 744 l 283 833 l 378 833 l 376 819 q 369 819 376 819 q 361 819 363 819 q 309 798 331 819 q 286 744 288 776 l 283 744 m 164 744 l 160 744 q 138 798 160 776 q 85 819 115 819 q 77 819 85 819 q 69 819 69 819 l 69 833 l 164 833 l 164 744 m 250 4 l 264 0 q 183 -42 206 -14 q 163 -108 160 -69 q 191 -173 164 -147 q 257 -199 218 -199 q 329 -167 296 -200 l 338 -175 q 298 -235 326 -214 q 233 -261 269 -257 q 163 -251 197 -265 q 107 -206 129 -237 q 86 -124 85 -174 q 112 -55 89 -83 q 172 -10 135 -26 q 250 4 208 6 z "},"j":{"ha":444,"x_min":11,"x_max":400,"o":"m 294 833 l 294 14 q 272 -90 294 -42 q 209 -174 249 -139 q 118 -228 169 -210 q 11 -246 67 -247 l 11 -232 q 94 -176 58 -215 q 149 -87 129 -137 q 168 15 168 -37 l 168 833 l 294 833 m 174 833 l 174 744 l 169 744 q 143 798 168 776 q 82 819 118 819 l 65 819 l 64 833 l 174 833 m 400 833 l 400 819 l 382 819 q 322 798 347 819 q 294 744 296 776 l 290 744 l 290 833 l 400 833 z "},"k":{"ha":889,"x_min":67,"x_max":904,"o":"m 438 485 l 782 78 q 834 31 807 47 q 904 14 861 15 l 904 0 l 835 0 q 792 2 818 0 q 733 12 765 4 q 667 38 700 19 q 607 89 633 56 q 584 116 604 92 q 533 176 564 140 q 468 251 503 213 q 403 326 433 290 q 355 383 374 361 q 336 406 336 406 l 438 485 m 782 824 l 406 408 l 336 406 l 678 824 l 782 824 m 871 833 l 871 819 l 865 819 q 788 806 824 819 q 728 764 751 792 l 629 765 q 635 802 644 785 q 600 819 625 819 l 588 819 l 588 833 l 865 833 l 871 833 m 290 833 l 290 0 l 164 0 l 164 833 l 290 833 m 167 89 l 167 0 l 68 0 l 68 14 q 76 14 68 14 q 83 14 83 14 q 140 36 117 14 q 164 89 163 58 l 167 89 m 286 89 l 290 89 q 313 36 290 58 q 369 14 336 14 q 378 14 371 14 q 385 14 385 14 l 385 0 l 286 0 l 286 89 m 286 744 l 286 833 l 385 833 l 385 819 q 378 819 385 819 q 369 819 371 819 q 313 798 336 819 q 290 744 290 776 l 286 744 m 167 744 l 164 744 q 140 798 163 776 q 83 819 117 819 q 76 819 83 819 q 67 819 68 819 l 67 833 l 167 833 l 167 744 z "},"ķ":{"ha":889,"x_min":67,"x_max":904,"o":"m 438 485 l 782 78 q 834 31 807 47 q 904 14 861 15 l 904 0 l 835 0 q 792 2 818 0 q 733 12 765 4 q 667 38 700 19 q 607 89 633 56 q 584 116 604 92 q 533 176 564 140 q 468 251 503 213 q 403 326 433 290 q 355 383 374 361 q 336 406 336 406 l 438 485 m 782 824 l 406 408 l 336 406 l 678 824 l 782 824 m 871 833 l 871 819 l 865 819 q 788 806 824 819 q 728 764 751 792 l 629 765 q 635 802 644 785 q 600 819 625 819 l 588 819 l 588 833 l 865 833 l 871 833 m 290 833 l 290 0 l 164 0 l 164 833 l 290 833 m 167 89 l 167 0 l 68 0 l 68 14 q 76 14 68 14 q 83 14 83 14 q 140 36 117 14 q 164 89 163 58 l 167 89 m 286 89 l 290 89 q 313 36 290 58 q 369 14 336 14 q 378 14 371 14 q 385 14 385 14 l 385 0 l 286 0 l 286 89 m 286 744 l 286 833 l 385 833 l 385 819 q 378 819 385 819 q 369 819 371 819 q 313 798 336 819 q 290 744 290 776 l 286 744 m 167 744 l 164 744 q 140 798 163 776 q 83 819 117 819 q 76 819 83 819 q 67 819 68 819 l 67 833 l 167 833 l 167 744 m 457 -137 q 472 -101 457 -114 q 508 -89 488 -89 q 559 -120 543 -89 q 575 -183 575 -151 q 540 -271 575 -236 q 454 -308 504 -306 l 451 -297 q 490 -271 478 -287 q 503 -236 503 -254 q 498 -212 503 -224 q 485 -190 493 -200 q 466 -166 475 -179 q 457 -137 457 -153 z "},"l":{"ha":750,"x_min":67,"x_max":729,"o":"m 290 833 l 290 0 l 164 0 l 164 833 l 290 833 m 647 47 l 657 0 l 288 0 l 288 47 l 647 47 m 729 218 l 661 0 l 440 0 l 486 47 q 595 69 551 47 q 668 129 639 90 q 715 218 697 168 l 729 218 m 167 89 l 182 0 l 67 0 l 67 14 q 76 14 67 14 q 86 14 85 14 q 141 36 119 14 q 164 89 163 58 l 167 89 m 286 744 l 286 833 l 388 833 l 388 819 q 378 819 386 819 q 371 819 371 819 q 314 798 338 819 q 290 744 290 776 l 286 744 m 167 744 l 164 744 q 140 798 163 776 q 83 819 117 819 q 75 819 83 819 q 67 819 67 819 l 67 833 l 167 833 l 167 744 z "},"ĺ":{"ha":750,"x_min":67,"x_max":729,"o":"m 290 833 l 290 0 l 164 0 l 164 833 l 290 833 m 647 47 l 657 0 l 288 0 l 288 47 l 647 47 m 729 218 l 661 0 l 440 0 l 486 47 q 595 69 551 47 q 668 129 639 90 q 715 218 697 168 l 729 218 m 167 89 l 182 0 l 67 0 l 67 14 q 76 14 67 14 q 86 14 85 14 q 141 36 119 14 q 164 89 163 58 l 167 89 m 286 744 l 286 833 l 388 833 l 388 819 q 378 819 386 819 q 371 819 371 819 q 314 798 338 819 q 290 744 290 776 l 286 744 m 167 744 l 164 744 q 140 798 163 776 q 83 819 117 819 q 75 819 83 819 q 67 819 67 819 l 67 833 l 167 833 l 167 744 z "},"ľ":{"ha":750,"x_min":67,"x_max":729,"o":"m 290 833 l 290 0 l 164 0 l 164 833 l 290 833 m 647 47 l 657 0 l 288 0 l 288 47 l 647 47 m 729 218 l 661 0 l 440 0 l 486 47 q 595 69 551 47 q 668 129 639 90 q 715 218 697 168 l 729 218 m 167 89 l 182 0 l 67 0 l 67 14 q 76 14 67 14 q 86 14 85 14 q 141 36 119 14 q 164 89 163 58 l 167 89 m 286 744 l 286 833 l 388 833 l 388 819 q 378 819 386 819 q 371 819 371 819 q 314 798 338 819 q 290 744 290 776 l 286 744 m 167 744 l 164 744 q 140 798 163 776 q 83 819 117 819 q 75 819 83 819 q 67 819 67 819 l 67 833 l 167 833 l 167 744 m 517 813 q 547 834 528 829 q 586 830 567 839 q 615 797 606 821 q 626 730 629 763 q 606 672 624 697 q 563 631 589 646 q 506 618 536 617 l 503 628 q 543 658 532 638 q 551 699 554 678 q 536 735 549 719 q 512 772 521 751 q 517 813 503 792 z "},"ļ":{"ha":750,"x_min":67,"x_max":729,"o":"m 290 833 l 290 0 l 164 0 l 164 833 l 290 833 m 647 47 l 657 0 l 288 0 l 288 47 l 647 47 m 729 218 l 661 0 l 440 0 l 486 47 q 595 69 551 47 q 668 129 639 90 q 715 218 697 168 l 729 218 m 167 89 l 182 0 l 67 0 l 67 14 q 76 14 67 14 q 86 14 85 14 q 141 36 119 14 q 164 89 163 58 l 167 89 m 286 744 l 286 833 l 388 833 l 388 819 q 378 819 386 819 q 371 819 371 819 q 314 798 338 819 q 290 744 290 776 l 286 744 m 167 744 l 164 744 q 140 798 163 776 q 83 819 117 819 q 75 819 83 819 q 67 819 67 819 l 67 833 l 167 833 l 167 744 m 390 -137 q 406 -101 390 -114 q 442 -89 421 -89 q 492 -120 476 -89 q 508 -183 508 -151 q 473 -271 508 -236 q 388 -308 438 -306 l 385 -297 q 424 -271 411 -287 q 436 -236 436 -254 q 431 -212 436 -224 q 418 -190 426 -200 q 399 -166 408 -179 q 390 -137 390 -153 z "},"ŀ":{"ha":750,"x_min":67,"x_max":729,"o":"m 469 468 q 420 488 442 468 q 399 538 399 508 q 420 588 399 568 q 469 608 442 608 q 520 588 500 608 q 540 538 540 568 q 520 488 540 508 q 469 468 500 468 m 290 833 l 290 0 l 164 0 l 164 833 l 290 833 m 647 47 l 657 0 l 288 0 l 288 47 l 647 47 m 729 218 l 661 0 l 440 0 l 486 47 q 595 69 551 47 q 668 129 639 90 q 715 218 697 168 l 729 218 m 167 89 l 182 0 l 67 0 l 67 14 q 76 14 67 14 q 86 14 85 14 q 141 36 119 14 q 164 89 163 58 l 167 89 m 286 744 l 286 833 l 388 833 l 388 819 q 378 819 386 819 q 371 819 371 819 q 314 798 338 819 q 290 744 290 776 l 286 744 m 167 744 l 164 744 q 140 798 163 776 q 83 819 117 819 q 75 819 83 819 q 67 819 67 819 l 67 833 l 167 833 l 167 744 z "},"ł":{"ha":750,"x_min":57,"x_max":729,"o":"m 57 344 l 468 578 l 493 538 l 81 304 l 57 344 m 290 833 l 290 0 l 164 0 l 164 833 l 290 833 m 647 47 l 657 0 l 288 0 l 288 47 l 647 47 m 729 218 l 661 0 l 440 0 l 486 47 q 595 69 551 47 q 668 129 639 90 q 715 218 697 168 l 729 218 m 167 89 l 182 0 l 67 0 l 67 14 q 76 14 67 14 q 86 14 85 14 q 141 36 119 14 q 164 89 163 58 l 167 89 m 286 744 l 286 833 l 388 833 l 388 819 q 378 819 386 819 q 371 819 371 819 q 314 798 338 819 q 290 744 290 776 l 286 744 m 167 744 l 164 744 q 140 798 163 776 q 83 819 117 819 q 75 819 83 819 q 67 819 67 819 l 67 833 l 167 833 l 167 744 z "},"m":{"ha":1213,"x_min":4,"x_max":1210,"o":"m 972 853 l 985 744 l 643 119 q 632 97 643 119 q 610 41 621 74 q 594 -22 599 8 l 581 -22 l 550 75 l 972 853 m 146 92 l 146 0 l 4 0 l 4 14 q 14 14 4 14 q 24 14 24 14 q 86 34 60 14 q 117 92 113 54 l 146 92 m 193 71 q 203 33 192 53 q 243 13 214 14 l 263 13 l 263 0 l 182 0 l 185 71 l 193 71 m 225 853 l 239 853 l 272 753 l 186 0 l 106 0 l 225 853 m 239 853 l 628 163 l 581 -22 l 210 644 l 239 853 m 985 853 l 1110 0 l 968 0 l 885 635 l 972 853 l 985 853 m 1068 92 l 1096 92 q 1128 34 1101 54 q 1190 14 1156 14 q 1200 14 1190 14 q 1210 14 1210 14 l 1210 0 l 1068 0 l 1068 92 m 958 71 l 968 71 l 971 0 l 889 0 l 889 13 l 910 13 q 951 33 940 14 q 958 71 961 53 z "},"n":{"ha":1082,"x_min":42,"x_max":1040,"o":"m 142 854 l 926 132 l 940 -19 l 157 706 l 142 854 m 146 86 l 146 0 l 42 0 l 42 14 q 53 14 42 14 q 65 14 65 14 q 119 35 97 14 q 142 86 142 56 l 146 86 m 247 86 q 270 35 247 56 q 324 14 293 14 q 335 14 324 14 q 347 14 347 14 l 347 0 l 243 0 l 243 86 l 247 86 m 142 854 l 246 732 l 247 0 l 142 0 l 142 685 q 135 805 142 756 q 129 854 129 854 l 142 854 m 940 833 l 940 154 q 943 69 940 108 q 949 5 946 29 q 953 -19 953 -19 l 940 -19 l 836 104 l 836 833 l 940 833 m 936 747 l 936 833 l 1040 833 l 1040 819 q 1028 819 1040 819 q 1017 819 1017 819 q 963 799 986 819 q 940 747 940 778 l 936 747 m 836 747 q 813 799 835 778 q 758 819 790 819 q 747 819 758 819 q 735 819 735 819 l 735 833 l 839 833 l 839 747 l 836 747 z "},"ń":{"ha":1082,"x_min":42,"x_max":1040,"o":"m 142 854 l 926 132 l 940 -19 l 157 706 l 142 854 m 146 86 l 146 0 l 42 0 l 42 14 q 53 14 42 14 q 65 14 65 14 q 119 35 97 14 q 142 86 142 56 l 146 86 m 247 86 q 270 35 247 56 q 324 14 293 14 q 335 14 324 14 q 347 14 347 14 l 347 0 l 243 0 l 243 86 l 247 86 m 142 854 l 246 732 l 247 0 l 142 0 l 142 685 q 135 805 142 756 q 129 854 129 854 l 142 854 m 940 833 l 940 154 q 943 69 940 108 q 949 5 946 29 q 953 -19 953 -19 l 940 -19 l 836 104 l 836 833 l 940 833 m 936 747 l 936 833 l 1040 833 l 1040 819 q 1028 819 1040 819 q 1017 819 1017 819 q 963 799 986 819 q 940 747 940 778 l 936 747 m 836 747 q 813 799 835 778 q 758 819 790 819 q 747 819 758 819 q 735 819 735 819 l 735 833 l 839 833 l 839 747 l 836 747 z "},"ň":{"ha":1082,"x_min":42,"x_max":1040,"o":"m 142 854 l 926 132 l 940 -19 l 157 706 l 142 854 m 146 86 l 146 0 l 42 0 l 42 14 q 53 14 42 14 q 65 14 65 14 q 119 35 97 14 q 142 86 142 56 l 146 86 m 247 86 q 270 35 247 56 q 324 14 293 14 q 335 14 324 14 q 347 14 347 14 l 347 0 l 243 0 l 243 86 l 247 86 m 142 854 l 246 732 l 247 0 l 142 0 l 142 685 q 135 805 142 756 q 129 854 129 854 l 142 854 m 940 833 l 940 154 q 943 69 940 108 q 949 5 946 29 q 953 -19 953 -19 l 940 -19 l 836 104 l 836 833 l 940 833 m 936 747 l 936 833 l 1040 833 l 1040 819 q 1028 819 1040 819 q 1017 819 1017 819 q 963 799 986 819 q 940 747 940 778 l 936 747 m 836 747 q 813 799 835 778 q 758 819 790 819 q 747 819 758 819 q 735 819 735 819 l 735 833 l 839 833 l 839 747 l 836 747 z "},"ņ":{"ha":1082,"x_min":42,"x_max":1040,"o":"m 142 854 l 926 132 l 940 -19 l 157 706 l 142 854 m 146 86 l 146 0 l 42 0 l 42 14 q 53 14 42 14 q 65 14 65 14 q 119 35 97 14 q 142 86 142 56 l 146 86 m 247 86 q 270 35 247 56 q 324 14 293 14 q 335 14 324 14 q 347 14 347 14 l 347 0 l 243 0 l 243 86 l 247 86 m 142 854 l 246 732 l 247 0 l 142 0 l 142 685 q 135 805 142 756 q 129 854 129 854 l 142 854 m 940 833 l 940 154 q 943 69 940 108 q 949 5 946 29 q 953 -19 953 -19 l 940 -19 l 836 104 l 836 833 l 940 833 m 936 747 l 936 833 l 1040 833 l 1040 819 q 1028 819 1040 819 q 1017 819 1017 819 q 963 799 986 819 q 940 747 940 778 l 936 747 m 836 747 q 813 799 835 778 q 758 819 790 819 q 747 819 758 819 q 735 819 735 819 l 735 833 l 839 833 l 839 747 l 836 747 m 518 -137 q 533 -101 518 -114 q 569 -89 549 -89 q 620 -120 604 -89 q 636 -183 636 -151 q 601 -271 636 -236 q 515 -308 565 -306 l 513 -297 q 551 -271 539 -287 q 564 -236 564 -254 q 559 -212 564 -224 q 546 -190 554 -200 q 527 -166 536 -179 q 518 -137 518 -153 z "},"ŋ":{"ha":1086,"x_min":42,"x_max":1044,"o":"m 146 86 l 146 0 l 42 0 l 42 14 q 53 14 42 14 q 65 14 65 14 q 119 35 97 14 q 142 86 142 56 l 146 86 m 244 86 q 267 35 244 56 q 321 14 290 14 q 333 14 321 14 q 344 14 344 14 l 344 0 l 240 0 l 240 86 l 244 86 m 142 854 l 243 732 l 244 0 l 142 0 l 142 685 q 135 805 142 756 q 129 854 129 854 l 142 854 m 142 854 l 926 132 l 940 -19 l 157 706 l 142 854 m 949 -14 q 920 -139 949 -89 q 844 -215 892 -189 q 742 -244 797 -242 l 735 -233 q 780 -200 760 -219 q 815 -153 800 -181 q 838 -87 831 -125 q 846 1 846 -49 l 846 833 l 947 833 l 949 -14 m 846 747 q 823 799 844 778 q 771 819 801 819 q 760 819 771 819 q 749 819 750 819 l 749 833 l 849 833 l 849 747 l 846 747 m 943 747 l 943 833 l 1044 833 l 1044 819 q 1033 819 1044 819 q 1022 819 1022 819 q 969 799 992 819 q 947 747 947 778 l 943 747 z "},"ñ":{"ha":1082,"x_min":42,"x_max":1040,"o":"m 142 854 l 926 132 l 940 -19 l 157 706 l 142 854 m 146 86 l 146 0 l 42 0 l 42 14 q 53 14 42 14 q 65 14 65 14 q 119 35 97 14 q 142 86 142 56 l 146 86 m 247 86 q 270 35 247 56 q 324 14 293 14 q 335 14 324 14 q 347 14 347 14 l 347 0 l 243 0 l 243 86 l 247 86 m 142 854 l 246 732 l 247 0 l 142 0 l 142 685 q 135 805 142 756 q 129 854 129 854 l 142 854 m 940 833 l 940 154 q 943 69 940 108 q 949 5 946 29 q 953 -19 953 -19 l 940 -19 l 836 104 l 836 833 l 940 833 m 936 747 l 936 833 l 1040 833 l 1040 819 q 1028 819 1040 819 q 1017 819 1017 819 q 963 799 986 819 q 940 747 940 778 l 936 747 m 836 747 q 813 799 835 778 q 758 819 790 819 q 747 819 758 819 q 735 819 735 819 l 735 833 l 839 833 l 839 747 l 836 747 z "},"o":{"ha":1076,"x_min":63,"x_max":1015,"o":"m 538 853 q 727 822 640 853 q 878 733 814 790 q 979 595 943 675 q 1015 417 1015 515 q 979 238 1015 318 q 878 101 943 158 q 727 12 814 43 q 538 -19 640 -19 q 350 12 436 -19 q 199 101 264 43 q 98 238 133 158 q 63 417 63 318 q 98 595 63 515 q 199 733 133 675 q 350 822 264 790 q 538 853 436 853 m 538 26 q 711 76 635 26 q 831 213 788 125 q 875 417 875 300 q 831 622 875 535 q 711 758 788 708 q 538 807 635 807 q 367 758 443 807 q 246 622 290 708 q 201 417 201 535 q 246 213 201 300 q 367 76 290 125 q 538 26 443 26 z "},"ó":{"ha":1076,"x_min":63,"x_max":1015,"o":"m 538 853 q 727 822 640 853 q 878 733 814 790 q 979 595 943 675 q 1015 417 1015 515 q 979 238 1015 318 q 878 101 943 158 q 727 12 814 43 q 538 -19 640 -19 q 350 12 436 -19 q 199 101 264 43 q 98 238 133 158 q 63 417 63 318 q 98 595 63 515 q 199 733 133 675 q 350 822 264 790 q 538 853 436 853 m 538 26 q 711 76 635 26 q 831 213 788 125 q 875 417 875 300 q 831 622 875 535 q 711 758 788 708 q 538 807 635 807 q 367 758 443 807 q 246 622 290 708 q 201 417 201 535 q 246 213 201 300 q 367 76 290 125 q 538 26 443 26 z "},"ô":{"ha":1076,"x_min":63,"x_max":1015,"o":"m 538 853 q 727 822 640 853 q 878 733 814 790 q 979 595 943 675 q 1015 417 1015 515 q 979 238 1015 318 q 878 101 943 158 q 727 12 814 43 q 538 -19 640 -19 q 350 12 436 -19 q 199 101 264 43 q 98 238 133 158 q 63 417 63 318 q 98 595 63 515 q 199 733 133 675 q 350 822 264 790 q 538 853 436 853 m 538 26 q 711 76 635 26 q 831 213 788 125 q 875 417 875 300 q 831 622 875 535 q 711 758 788 708 q 538 807 635 807 q 367 758 443 807 q 246 622 290 708 q 201 417 201 535 q 246 213 201 300 q 367 76 290 125 q 538 26 443 26 z "},"ö":{"ha":1076,"x_min":63,"x_max":1015,"o":"m 538 853 q 727 822 640 853 q 878 733 814 790 q 979 595 943 675 q 1015 417 1015 515 q 979 238 1015 318 q 878 101 943 158 q 727 12 814 43 q 538 -19 640 -19 q 350 12 436 -19 q 199 101 264 43 q 98 238 133 158 q 63 417 63 318 q 98 595 63 515 q 199 733 133 675 q 350 822 264 790 q 538 853 436 853 m 538 26 q 711 76 635 26 q 831 213 788 125 q 875 417 875 300 q 831 622 875 535 q 711 758 788 708 q 538 807 635 807 q 367 758 443 807 q 246 622 290 708 q 201 417 201 535 q 246 213 201 300 q 367 76 290 125 q 538 26 443 26 z "},"ò":{"ha":1076,"x_min":63,"x_max":1015,"o":"m 538 853 q 727 822 640 853 q 878 733 814 790 q 979 595 943 675 q 1015 417 1015 515 q 979 238 1015 318 q 878 101 943 158 q 727 12 814 43 q 538 -19 640 -19 q 350 12 436 -19 q 199 101 264 43 q 98 238 133 158 q 63 417 63 318 q 98 595 63 515 q 199 733 133 675 q 350 822 264 790 q 538 853 436 853 m 538 26 q 711 76 635 26 q 831 213 788 125 q 875 417 875 300 q 831 622 875 535 q 711 758 788 708 q 538 807 635 807 q 367 758 443 807 q 246 622 290 708 q 201 417 201 535 q 246 213 201 300 q 367 76 290 125 q 538 26 443 26 z "},"ő":{"ha":1076,"x_min":63,"x_max":1015,"o":"m 538 853 q 727 822 640 853 q 878 733 814 790 q 979 595 943 675 q 1015 417 1015 515 q 979 238 1015 318 q 878 101 943 158 q 727 12 814 43 q 538 -19 640 -19 q 350 12 436 -19 q 199 101 264 43 q 98 238 133 158 q 63 417 63 318 q 98 595 63 515 q 199 733 133 675 q 350 822 264 790 q 538 853 436 853 m 538 26 q 711 76 635 26 q 831 213 788 125 q 875 417 875 300 q 831 622 875 535 q 711 758 788 708 q 538 807 635 807 q 367 758 443 807 q 246 622 290 708 q 201 417 201 535 q 246 213 201 300 q 367 76 290 125 q 538 26 443 26 z "},"ō":{"ha":1076,"x_min":63,"x_max":1015,"o":"m 538 853 q 727 822 640 853 q 878 733 814 790 q 979 595 943 675 q 1015 417 1015 515 q 979 238 1015 318 q 878 101 943 158 q 727 12 814 43 q 538 -19 640 -19 q 350 12 436 -19 q 199 101 264 43 q 98 238 133 158 q 63 417 63 318 q 98 595 63 515 q 199 733 133 675 q 350 822 264 790 q 538 853 436 853 m 538 26 q 711 76 635 26 q 831 213 788 125 q 875 417 875 300 q 831 622 875 535 q 711 758 788 708 q 538 807 635 807 q 367 758 443 807 q 246 622 290 708 q 201 417 201 535 q 246 213 201 300 q 367 76 290 125 q 538 26 443 26 z "},"ø":{"ha":1076,"x_min":63,"x_max":1015,"o":"m 860 879 l 900 844 l 165 -35 l 125 0 l 860 879 m 538 853 q 726 822 639 853 q 878 733 813 790 q 979 595 943 675 q 1015 417 1015 515 q 979 238 1015 318 q 878 101 943 158 q 727 12 814 43 q 538 -19 640 -19 q 350 12 436 -19 q 199 101 264 43 q 98 238 133 158 q 63 417 63 318 q 98 595 63 515 q 199 733 133 675 q 350 822 264 790 q 538 853 436 853 m 538 26 q 711 76 635 26 q 831 213 788 125 q 875 417 875 300 q 831 622 875 535 q 711 758 788 708 q 538 807 635 807 q 367 758 443 807 q 246 622 290 708 q 201 417 201 535 q 246 213 201 300 q 367 76 290 125 q 538 26 443 26 z "},"õ":{"ha":1076,"x_min":63,"x_max":1015,"o":"m 538 853 q 727 822 640 853 q 878 733 814 790 q 979 595 943 675 q 1015 417 1015 515 q 979 238 1015 318 q 878 101 943 158 q 727 12 814 43 q 538 -19 640 -19 q 350 12 436 -19 q 199 101 264 43 q 98 238 133 158 q 63 417 63 318 q 98 595 63 515 q 199 733 133 675 q 350 822 264 790 q 538 853 436 853 m 538 26 q 711 76 635 26 q 831 213 788 125 q 875 417 875 300 q 831 622 875 535 q 711 758 788 708 q 538 807 635 807 q 367 758 443 807 q 246 622 290 708 q 201 417 201 535 q 246 213 201 300 q 367 76 290 125 q 538 26 443 26 z "},"œ":{"ha":1258,"x_min":63,"x_max":1221,"o":"m 515 853 q 578 850 540 853 q 654 840 617 847 q 696 835 675 838 q 746 833 717 833 l 747 0 q 718 0 733 0 q 674 -3 703 0 q 629 -7 657 -3 q 571 -15 601 -11 q 511 -19 540 -19 q 276 33 376 -19 q 119 183 175 86 q 63 418 63 281 q 119 650 63 553 q 276 800 175 747 q 515 853 378 853 m 515 26 q 589 35 556 26 q 644 60 622 43 q 667 99 667 78 l 667 736 q 645 776 667 761 q 590 800 624 792 q 515 808 556 808 q 351 762 422 808 q 238 628 279 715 q 196 417 197 540 q 237 208 196 296 q 349 73 278 119 q 515 26 421 26 m 788 833 l 788 0 l 667 6 l 667 833 l 788 833 m 1140 47 l 1151 0 l 786 0 l 779 47 l 1140 47 m 1086 438 l 1086 392 l 783 392 l 783 438 l 1086 438 m 1146 833 l 1146 786 l 783 786 l 783 833 l 1146 833 m 1221 217 l 1156 0 l 944 0 l 988 47 q 1092 69 1050 47 q 1161 128 1133 90 q 1207 217 1189 167 l 1221 217 m 1086 394 l 1086 301 l 1072 301 l 1072 317 q 1053 370 1072 349 q 1000 392 1035 392 l 1000 394 l 1086 394 m 1086 528 l 1086 435 l 1000 435 l 1000 438 q 1053 460 1035 439 q 1072 514 1072 482 l 1072 528 l 1086 528 m 1146 790 l 1146 679 l 1132 679 l 1132 697 q 1109 761 1132 736 q 1046 786 1086 786 l 1046 790 l 1146 790 m 1146 856 l 1146 819 l 1000 833 q 1085 841 1040 833 q 1146 856 1129 849 z "},"p":{"ha":783,"x_min":67,"x_max":740,"o":"m 274 833 l 421 833 q 593 804 522 833 q 701 722 664 775 q 739 599 739 669 q 705 460 740 518 q 610 372 669 403 q 481 343 551 342 q 340 383 410 344 l 340 396 q 360 393 340 396 q 412 392 381 390 q 478 407 443 394 q 544 450 513 419 q 593 536 575 481 q 601 573 599 553 q 601 611 603 593 q 548 740 601 693 q 400 788 494 788 l 288 788 q 284 799 288 788 q 277 822 281 810 q 274 833 274 833 m 290 833 l 290 0 l 164 0 l 164 833 l 290 833 m 167 89 l 181 0 l 67 0 l 67 14 q 76 14 68 14 q 86 14 85 14 q 140 36 118 14 q 164 89 163 58 l 167 89 m 167 746 l 164 746 q 140 799 163 778 q 86 819 118 819 q 76 819 85 819 q 67 819 68 819 l 67 833 l 181 833 l 167 746 m 286 89 l 289 89 q 313 36 290 58 q 368 14 335 14 q 378 14 369 14 q 386 14 386 14 l 386 0 l 272 0 l 286 89 z "},"þ":{"ha":753,"x_min":69,"x_max":719,"o":"m 268 661 l 418 661 q 582 632 515 661 q 683 550 649 603 q 718 426 718 497 q 686 288 719 346 q 597 200 653 231 q 476 172 542 169 q 343 211 410 174 l 343 224 q 361 221 343 224 q 408 220 379 218 q 470 235 438 222 q 532 278 503 247 q 578 364 561 308 q 584 401 582 381 q 586 439 586 422 q 535 569 586 522 q 397 615 485 615 l 282 615 q 278 627 282 615 q 272 650 275 639 q 268 661 268 661 m 286 833 l 286 0 l 163 0 l 163 833 l 286 833 m 165 89 l 178 0 l 69 0 l 71 14 q 78 14 71 14 q 86 14 86 14 q 140 36 118 14 q 163 89 161 58 l 165 89 m 165 746 l 163 746 q 140 799 161 778 q 86 819 118 819 q 78 819 86 819 q 71 819 71 819 l 69 833 l 178 833 l 165 746 m 282 89 l 286 89 q 308 36 286 58 q 361 14 331 14 q 369 14 361 14 q 378 14 378 14 l 378 0 l 271 0 l 282 89 m 282 746 l 271 833 l 378 833 l 378 819 q 369 819 378 819 q 361 819 361 819 q 308 799 331 819 q 286 746 286 778 l 282 746 z "},"q":{"ha":1075,"x_min":63,"x_max":1644,"o":"m 529 853 q 713 822 629 853 q 860 733 797 790 q 959 595 924 675 q 994 417 994 515 q 959 238 994 318 q 860 101 924 158 q 713 12 797 43 q 529 -19 629 -19 q 344 12 429 -19 q 195 101 258 43 q 97 238 132 158 q 63 417 63 318 q 97 595 63 515 q 195 733 132 675 q 344 822 258 790 q 529 853 429 853 m 529 26 q 696 76 622 26 q 813 213 769 125 q 856 417 856 300 q 813 622 856 535 q 696 758 769 708 q 529 807 622 807 q 361 758 435 807 q 244 622 288 708 q 201 417 201 535 q 244 213 201 300 q 361 76 288 125 q 529 26 435 26 m 526 -18 l 521 19 q 605 10 561 18 q 697 -12 649 1 q 801 -46 746 -26 q 920 -89 857 -65 q 1057 -142 983 -112 q 1210 -185 1131 -171 q 1368 -195 1290 -199 q 1515 -167 1446 -192 q 1639 -96 1585 -143 l 1644 -101 q 1605 -178 1638 -137 q 1517 -251 1572 -218 q 1388 -300 1463 -283 q 1221 -306 1313 -317 q 1024 -247 1129 -296 q 901 -185 964 -221 q 775 -114 839 -149 q 649 -53 711 -79 q 526 -18 586 -26 z "},"r":{"ha":885,"x_min":69,"x_max":918,"o":"m 275 833 l 444 833 q 560 819 507 833 q 651 777 613 806 q 712 706 690 749 q 733 607 733 664 q 708 503 733 553 q 636 421 683 454 q 525 379 589 388 q 588 335 554 369 q 642 268 621 300 q 661 241 644 265 q 703 183 678 217 q 756 115 729 149 q 808 60 785 82 q 857 26 831 38 q 918 14 883 14 l 918 0 l 851 0 q 725 17 775 0 q 642 63 675 33 q 583 126 608 92 q 557 164 575 136 q 519 223 539 192 q 482 281 499 254 q 461 315 465 307 q 405 380 436 354 q 340 406 374 406 l 340 419 q 358 419 340 419 q 404 419 376 418 q 476 427 440 421 q 542 460 511 433 q 589 546 572 488 q 596 577 593 558 q 597 618 599 596 q 581 692 594 661 q 542 742 567 722 q 488 773 518 763 q 424 785 458 783 q 333 785 372 786 q 289 786 293 785 q 285 798 289 786 q 278 822 282 810 q 275 833 275 833 m 292 833 l 292 0 l 165 0 l 165 833 l 292 833 m 169 89 l 182 0 l 69 0 l 69 14 q 79 14 71 14 q 89 14 88 14 q 143 36 121 14 q 167 89 165 58 l 169 89 m 169 746 l 167 746 q 143 799 165 778 q 89 819 121 819 q 79 819 88 819 q 69 819 71 819 l 69 833 l 182 833 l 169 746 m 288 89 l 292 89 q 315 35 292 57 q 369 14 338 14 q 377 14 369 14 q 386 14 385 14 l 388 0 l 274 0 l 288 89 z "},"ŕ":{"ha":885,"x_min":69,"x_max":918,"o":"m 275 833 l 444 833 q 560 819 507 833 q 651 777 613 806 q 712 706 690 749 q 733 607 733 664 q 708 503 733 553 q 636 421 683 454 q 525 379 589 388 q 588 335 554 369 q 642 268 621 300 q 661 241 644 265 q 703 183 678 217 q 756 115 729 149 q 808 60 785 82 q 857 26 831 38 q 918 14 883 14 l 918 0 l 851 0 q 725 17 775 0 q 642 63 675 33 q 583 126 608 92 q 557 164 575 136 q 519 223 539 192 q 482 281 499 254 q 461 315 465 307 q 405 380 436 354 q 340 406 374 406 l 340 419 q 358 419 340 419 q 404 419 376 418 q 476 427 440 421 q 542 460 511 433 q 589 546 572 488 q 596 577 593 558 q 597 618 599 596 q 581 692 594 661 q 542 742 567 722 q 488 773 518 763 q 424 785 458 783 q 333 785 372 786 q 289 786 293 785 q 285 798 289 786 q 278 822 282 810 q 275 833 275 833 m 292 833 l 292 0 l 165 0 l 165 833 l 292 833 m 169 89 l 182 0 l 69 0 l 69 14 q 79 14 71 14 q 89 14 88 14 q 143 36 121 14 q 167 89 165 58 l 169 89 m 169 746 l 167 746 q 143 799 165 778 q 89 819 121 819 q 79 819 88 819 q 69 819 71 819 l 69 833 l 182 833 l 169 746 m 288 89 l 292 89 q 315 35 292 57 q 369 14 338 14 q 377 14 369 14 q 386 14 385 14 l 388 0 l 274 0 l 288 89 z "},"ř":{"ha":885,"x_min":69,"x_max":918,"o":"m 275 833 l 444 833 q 560 819 507 833 q 651 777 613 806 q 712 706 690 749 q 733 607 733 664 q 708 503 733 553 q 636 421 683 454 q 525 379 589 388 q 588 335 554 369 q 642 268 621 300 q 661 241 644 265 q 703 183 678 217 q 756 115 729 149 q 808 60 785 82 q 857 26 831 38 q 918 14 883 14 l 918 0 l 851 0 q 725 17 775 0 q 642 63 675 33 q 583 126 608 92 q 557 164 575 136 q 519 223 539 192 q 482 281 499 254 q 461 315 465 307 q 405 380 436 354 q 340 406 374 406 l 340 419 q 358 419 340 419 q 404 419 376 418 q 476 427 440 421 q 542 460 511 433 q 589 546 572 488 q 596 577 593 558 q 597 618 599 596 q 581 692 594 661 q 542 742 567 722 q 488 773 518 763 q 424 785 458 783 q 333 785 372 786 q 289 786 293 785 q 285 798 289 786 q 278 822 282 810 q 275 833 275 833 m 292 833 l 292 0 l 165 0 l 165 833 l 292 833 m 169 89 l 182 0 l 69 0 l 69 14 q 79 14 71 14 q 89 14 88 14 q 143 36 121 14 q 167 89 165 58 l 169 89 m 169 746 l 167 746 q 143 799 165 778 q 89 819 121 819 q 79 819 88 819 q 69 819 71 819 l 69 833 l 182 833 l 169 746 m 288 89 l 292 89 q 315 35 292 57 q 369 14 338 14 q 377 14 369 14 q 386 14 385 14 l 388 0 l 274 0 l 288 89 z "},"ŗ":{"ha":885,"x_min":69,"x_max":918,"o":"m 275 833 l 444 833 q 560 819 507 833 q 651 777 613 806 q 712 706 690 749 q 733 607 733 664 q 708 503 733 553 q 636 421 683 454 q 525 379 589 388 q 588 335 554 369 q 642 268 621 300 q 661 241 644 265 q 703 183 678 217 q 756 115 729 149 q 808 60 785 82 q 857 26 831 38 q 918 14 883 14 l 918 0 l 851 0 q 725 17 775 0 q 642 63 675 33 q 583 126 608 92 q 557 164 575 136 q 519 223 539 192 q 482 281 499 254 q 461 315 465 307 q 405 380 436 354 q 340 406 374 406 l 340 419 q 358 419 340 419 q 404 419 376 418 q 476 427 440 421 q 542 460 511 433 q 589 546 572 488 q 596 577 593 558 q 597 618 599 596 q 581 692 594 661 q 542 742 567 722 q 488 773 518 763 q 424 785 458 783 q 333 785 372 786 q 289 786 293 785 q 285 798 289 786 q 278 822 282 810 q 275 833 275 833 m 292 833 l 292 0 l 165 0 l 165 833 l 292 833 m 169 89 l 182 0 l 69 0 l 69 14 q 79 14 71 14 q 89 14 88 14 q 143 36 121 14 q 167 89 165 58 l 169 89 m 169 746 l 167 746 q 143 799 165 778 q 89 819 121 819 q 79 819 88 819 q 69 819 71 819 l 69 833 l 182 833 l 169 746 m 288 89 l 292 89 q 315 35 292 57 q 369 14 338 14 q 377 14 369 14 q 386 14 385 14 l 388 0 l 274 0 l 288 89 m 474 -137 q 489 -101 474 -114 q 525 -89 504 -89 q 576 -120 560 -89 q 592 -183 592 -151 q 556 -271 592 -236 q 471 -308 521 -306 l 468 -297 q 507 -271 494 -287 q 519 -236 519 -254 q 515 -212 519 -224 q 501 -190 510 -200 q 483 -166 492 -179 q 474 -137 474 -153 z "},"s":{"ha":667,"x_min":72,"x_max":597,"o":"m 326 853 q 395 850 363 853 q 455 844 428 847 q 503 835 482 840 q 535 826 524 831 l 531 678 l 515 678 q 474 772 515 738 q 351 806 433 806 q 235 770 282 806 q 189 682 189 735 q 196 642 189 661 q 218 606 203 624 q 256 572 233 589 l 515 382 q 576 310 556 356 q 596 214 597 265 q 560 94 596 147 q 463 10 524 40 q 324 -19 401 -19 q 228 -11 276 -19 q 142 13 181 -3 q 78 49 103 28 q 72 104 72 71 q 79 173 72 138 q 97 235 86 208 l 113 235 q 132 125 107 172 q 205 52 157 78 q 318 28 253 26 q 449 69 403 29 q 496 171 496 108 q 480 233 496 206 q 428 288 464 261 l 176 471 q 108 552 128 506 q 90 647 88 599 q 124 753 93 707 q 208 826 156 800 q 326 853 261 853 m 535 840 l 535 815 l 419 815 l 419 840 l 535 840 z "},"ś":{"ha":667,"x_min":72,"x_max":597,"o":"m 326 853 q 395 850 363 853 q 455 844 428 847 q 503 835 482 840 q 535 826 524 831 l 531 678 l 515 678 q 474 772 515 738 q 351 806 433 806 q 235 770 282 806 q 189 682 189 735 q 196 642 189 661 q 218 606 203 624 q 256 572 233 589 l 515 382 q 576 310 556 356 q 596 214 597 265 q 560 94 596 147 q 463 10 524 40 q 324 -19 401 -19 q 228 -11 276 -19 q 142 13 181 -3 q 78 49 103 28 q 72 104 72 71 q 79 173 72 138 q 97 235 86 208 l 113 235 q 132 125 107 172 q 205 52 157 78 q 318 28 253 26 q 449 69 403 29 q 496 171 496 108 q 480 233 496 206 q 428 288 464 261 l 176 471 q 108 552 128 506 q 90 647 88 599 q 124 753 93 707 q 208 826 156 800 q 326 853 261 853 m 535 840 l 535 815 l 419 815 l 419 840 l 535 840 z "},"š":{"ha":667,"x_min":72,"x_max":597,"o":"m 326 853 q 395 850 363 853 q 455 844 428 847 q 503 835 482 840 q 535 826 524 831 l 531 678 l 515 678 q 474 772 515 738 q 351 806 433 806 q 235 770 282 806 q 189 682 189 735 q 196 642 189 661 q 218 606 203 624 q 256 572 233 589 l 515 382 q 576 310 556 356 q 596 214 597 265 q 560 94 596 147 q 463 10 524 40 q 324 -19 401 -19 q 228 -11 276 -19 q 142 13 181 -3 q 78 49 103 28 q 72 104 72 71 q 79 173 72 138 q 97 235 86 208 l 113 235 q 132 125 107 172 q 205 52 157 78 q 318 28 253 26 q 449 69 403 29 q 496 171 496 108 q 480 233 496 206 q 428 288 464 261 l 176 471 q 108 552 128 506 q 90 647 88 599 q 124 753 93 707 q 208 826 156 800 q 326 853 261 853 m 535 840 l 535 815 l 419 815 l 419 840 l 535 840 z "},"ş":{"ha":667,"x_min":72,"x_max":597,"o":"m 303 -17 l 351 -17 l 293 -83 q 336 -75 311 -76 q 385 -82 361 -74 q 426 -110 410 -90 q 442 -165 442 -129 q 410 -239 443 -210 q 330 -276 378 -268 q 233 -269 282 -285 l 235 -256 q 293 -247 264 -256 q 343 -219 322 -239 q 363 -164 364 -199 q 344 -121 364 -135 q 297 -106 325 -107 q 243 -117 268 -106 q 240 -110 243 -117 q 236 -103 236 -103 l 303 -17 m 326 853 q 395 850 363 853 q 455 844 428 847 q 503 835 482 840 q 535 826 524 831 l 531 678 l 515 678 q 474 772 515 738 q 351 806 433 806 q 236 770 282 806 q 189 682 190 735 q 196 642 189 661 q 217 606 203 624 q 256 572 232 589 l 517 382 q 576 310 556 356 q 596 214 597 265 q 560 94 596 147 q 463 10 524 40 q 324 -19 403 -19 q 228 -11 276 -19 q 142 13 181 -3 q 79 49 103 28 q 72 104 72 71 q 79 173 72 138 q 97 235 86 208 l 113 235 q 132 125 107 172 q 205 52 157 78 q 318 28 253 26 q 449 69 403 29 q 494 171 494 108 q 479 233 494 206 q 428 288 464 261 l 176 471 q 108 552 128 506 q 90 647 89 599 q 124 753 93 707 q 208 826 156 800 q 326 853 261 853 m 536 840 l 535 815 l 421 815 l 421 840 l 536 840 z "},"ș":{"ha":667,"x_min":72,"x_max":597,"o":"m 326 853 q 395 850 363 853 q 455 844 428 847 q 503 835 482 840 q 535 826 524 831 l 531 678 l 515 678 q 474 772 515 738 q 351 806 433 806 q 235 770 282 806 q 189 682 189 735 q 196 642 189 661 q 218 606 203 624 q 256 572 233 589 l 515 382 q 576 310 556 356 q 596 214 597 265 q 560 94 596 147 q 463 10 524 40 q 324 -19 401 -19 q 228 -11 276 -19 q 142 13 181 -3 q 78 49 103 28 q 72 104 72 71 q 79 173 72 138 q 97 235 86 208 l 113 235 q 132 125 107 172 q 205 52 157 78 q 318 28 253 26 q 449 69 403 29 q 496 171 496 108 q 480 233 496 206 q 428 288 464 261 l 176 471 q 108 552 128 506 q 90 647 88 599 q 124 753 93 707 q 208 826 156 800 q 326 853 261 853 m 535 840 l 535 815 l 419 815 l 419 840 l 535 840 m 281 -137 q 296 -101 281 -114 q 332 -89 311 -89 q 383 -120 367 -89 q 399 -183 399 -151 q 363 -271 399 -236 q 278 -308 328 -306 l 275 -297 q 314 -271 301 -287 q 326 -236 326 -254 q 322 -212 326 -224 q 308 -190 317 -200 q 290 -166 299 -179 q 281 -137 281 -153 z "},"ß":{"ha":1332,"x_min":72,"x_max":1263,"o":"m 326 853 q 395 850 363 853 q 455 844 428 847 q 503 835 482 840 q 535 826 524 831 l 531 678 l 515 678 q 474 772 515 738 q 351 806 433 806 q 235 770 282 806 q 189 682 189 735 q 196 642 189 661 q 218 606 203 624 q 256 572 233 589 l 515 382 q 576 310 556 356 q 596 214 597 265 q 560 94 596 147 q 463 10 524 40 q 324 -19 401 -19 q 228 -11 276 -19 q 142 13 181 -3 q 78 49 103 28 q 72 104 72 71 q 79 173 72 138 q 97 235 86 208 l 113 235 q 132 125 107 172 q 205 52 157 78 q 318 28 253 26 q 449 69 403 29 q 496 171 496 108 q 480 233 496 206 q 428 288 464 261 l 176 471 q 108 552 128 506 q 90 647 88 599 q 124 753 93 707 q 208 826 156 800 q 326 853 261 853 m 535 840 l 535 815 l 419 815 l 419 840 l 535 840 m 993 853 q 1062 850 1029 853 q 1122 844 1094 847 q 1169 835 1149 840 q 1201 826 1190 831 l 1197 678 l 1182 678 q 1141 772 1182 738 q 1018 806 1100 806 q 902 770 949 806 q 856 682 856 735 q 863 642 856 661 q 885 606 869 624 q 922 572 900 589 l 1182 382 q 1243 310 1222 356 q 1263 214 1264 265 q 1226 94 1263 147 q 1129 10 1190 40 q 990 -19 1068 -19 q 895 -11 943 -19 q 808 13 847 -3 q 744 49 769 28 q 739 104 739 71 q 746 173 739 138 q 764 235 753 208 l 779 235 q 799 125 774 172 q 872 52 824 78 q 985 28 919 26 q 1116 69 1069 29 q 1163 171 1163 108 q 1147 233 1163 206 q 1094 288 1131 261 l 843 471 q 774 552 794 506 q 757 647 754 599 q 791 753 760 707 q 875 826 822 800 q 993 853 928 853 m 1201 840 l 1201 815 l 1086 815 l 1086 840 l 1201 840 z "},"t":{"ha":813,"x_min":18,"x_max":796,"o":"m 471 829 l 471 0 l 343 0 l 343 829 l 471 829 m 796 835 l 796 789 l 18 789 l 18 835 l 796 835 m 796 792 l 796 679 l 781 679 l 781 697 q 757 763 781 738 q 692 789 733 788 l 692 792 l 796 792 m 796 857 l 796 821 l 643 835 q 701 838 669 835 q 758 847 732 842 q 796 857 783 853 m 346 89 l 346 0 l 247 0 l 247 14 q 256 14 249 14 q 264 14 264 14 q 319 36 296 14 q 343 89 342 58 l 346 89 m 467 89 l 471 89 q 494 36 471 58 q 550 14 518 14 q 558 14 550 14 q 565 14 565 14 l 565 0 l 467 0 l 467 89 m 122 792 l 122 789 q 57 763 81 788 q 33 697 33 738 l 33 679 l 18 679 l 18 792 l 122 792 m 18 857 q 56 847 31 853 q 113 838 82 842 q 171 835 144 835 l 18 821 l 18 857 z "},"ŧ":{"ha":813,"x_min":18,"x_max":796,"o":"m 471 829 l 471 0 l 343 0 l 343 829 l 471 829 m 796 835 l 796 789 l 18 789 l 18 835 l 796 835 m 796 792 l 796 679 l 781 679 l 781 697 q 757 763 781 738 q 692 789 733 788 l 692 792 l 796 792 m 796 857 l 796 821 l 643 835 q 701 838 669 835 q 758 847 732 842 q 796 857 783 853 m 346 89 l 346 0 l 247 0 l 247 14 q 256 14 249 14 q 264 14 264 14 q 319 36 296 14 q 343 89 342 58 l 346 89 m 467 89 l 471 89 q 494 36 471 58 q 550 14 518 14 q 558 14 550 14 q 565 14 565 14 l 565 0 l 467 0 l 467 89 m 122 792 l 122 789 q 57 763 81 788 q 33 697 33 738 l 33 679 l 18 679 l 18 792 l 122 792 m 18 857 q 56 847 31 853 q 113 838 82 842 q 171 835 144 835 l 18 821 l 18 857 m 669 472 l 669 426 l 149 426 l 149 472 l 669 472 z "},"ť":{"ha":813,"x_min":18,"x_max":796,"o":"m 578 1107 l 569 1118 l 408 1026 l 235 1118 l 226 1107 l 401 925 l 415 925 l 578 1107 m 471 829 l 471 0 l 343 0 l 343 829 l 471 829 m 796 835 l 796 789 l 18 789 l 18 835 l 796 835 m 796 792 l 796 679 l 781 679 l 781 697 q 757 763 781 738 q 692 789 733 788 l 692 792 l 796 792 m 796 857 l 796 821 l 643 835 q 701 838 669 835 q 758 847 732 842 q 796 857 783 853 m 346 89 l 346 0 l 247 0 l 247 14 q 256 14 249 14 q 263 14 263 14 q 319 36 296 14 q 343 89 342 58 l 346 89 m 467 89 l 471 89 q 494 36 471 58 q 550 14 518 14 q 558 14 550 14 q 565 14 565 14 l 565 0 l 467 0 l 467 89 m 122 792 l 122 789 q 57 763 81 788 q 33 697 33 738 l 33 679 l 18 679 l 18 792 l 122 792 m 18 857 q 56 847 31 853 q 113 838 82 842 q 171 835 144 835 l 18 821 l 18 857 z "},"ţ":{"ha":813,"x_min":18,"x_max":796,"o":"m 471 829 l 471 0 l 343 0 l 343 829 l 471 829 m 796 835 l 796 789 l 18 789 l 18 835 l 796 835 m 796 792 l 796 679 l 781 679 l 781 697 q 757 763 781 738 q 692 789 733 788 l 692 792 l 796 792 m 796 857 l 796 821 l 643 835 q 701 838 669 835 q 758 847 732 842 q 796 857 783 853 m 346 89 l 346 0 l 247 0 l 247 14 q 256 14 249 14 q 264 14 264 14 q 319 36 296 14 q 343 89 342 58 l 346 89 m 467 89 l 471 89 q 494 36 471 58 q 550 14 518 14 q 558 14 550 14 q 565 14 565 14 l 565 0 l 467 0 l 467 89 m 122 792 l 122 789 q 57 763 81 788 q 33 697 33 738 l 33 679 l 18 679 l 18 792 l 122 792 m 18 857 q 56 847 31 853 q 113 838 82 842 q 171 835 144 835 l 18 821 l 18 857 z "},"ț":{"ha":813,"x_min":18,"x_max":796,"o":"m 471 829 l 471 0 l 343 0 l 343 829 l 471 829 m 796 835 l 796 789 l 18 789 l 18 835 l 796 835 m 796 792 l 796 679 l 781 679 l 781 697 q 757 763 781 738 q 692 789 733 788 l 692 792 l 796 792 m 796 857 l 796 821 l 643 835 q 701 838 669 835 q 758 847 732 842 q 796 857 783 853 m 346 89 l 346 0 l 247 0 l 247 14 q 256 14 249 14 q 264 14 264 14 q 319 36 296 14 q 343 89 342 58 l 346 89 m 467 89 l 471 89 q 494 36 471 58 q 550 14 518 14 q 558 14 550 14 q 565 14 565 14 l 565 0 l 467 0 l 467 89 m 122 792 l 122 789 q 57 763 81 788 q 33 697 33 738 l 33 679 l 18 679 l 18 792 l 122 792 m 18 857 q 56 847 31 853 q 113 838 82 842 q 171 835 144 835 l 18 821 l 18 857 m 354 -137 q 369 -101 354 -114 q 406 -89 385 -89 q 456 -120 440 -89 q 472 -183 472 -151 q 437 -271 472 -236 q 351 -308 401 -306 l 349 -297 q 388 -271 375 -287 q 400 -236 400 -254 q 395 -212 400 -224 q 382 -190 390 -200 q 363 -166 372 -179 q 354 -137 354 -153 z "},"u":{"ha":975,"x_min":50,"x_max":932,"o":"m 261 833 l 261 308 q 327 101 261 176 q 507 25 393 25 q 703 97 632 25 q 774 293 774 168 l 774 833 l 847 833 l 847 296 q 755 65 847 150 q 500 -19 663 -19 q 231 65 326 -19 q 136 294 136 149 l 136 833 l 261 833 m 139 833 l 139 760 l 136 760 q 116 803 135 786 q 69 819 97 819 q 60 819 69 819 q 50 819 50 819 l 50 833 l 139 833 m 347 833 l 347 819 q 337 819 347 819 q 326 819 326 819 q 281 803 300 819 q 261 760 261 786 l 258 760 l 258 833 l 347 833 m 776 833 l 776 760 l 774 760 q 754 803 774 786 q 708 819 735 819 q 698 819 708 819 q 688 819 688 819 l 688 833 l 776 833 m 932 833 l 932 819 q 922 819 932 819 q 913 819 913 819 q 867 803 886 819 q 847 760 847 786 l 844 760 l 844 833 l 932 833 z "},"ú":{"ha":975,"x_min":50,"x_max":932,"o":"m 261 833 l 261 308 q 327 101 261 176 q 507 25 393 25 q 703 97 632 25 q 774 293 774 168 l 774 833 l 847 833 l 847 296 q 755 65 847 150 q 500 -19 663 -19 q 231 65 326 -19 q 136 294 136 149 l 136 833 l 261 833 m 139 833 l 139 760 l 136 760 q 116 803 135 786 q 69 819 97 819 q 60 819 69 819 q 50 819 50 819 l 50 833 l 139 833 m 347 833 l 347 819 q 337 819 347 819 q 326 819 326 819 q 281 803 300 819 q 261 760 261 786 l 258 760 l 258 833 l 347 833 m 776 833 l 776 760 l 774 760 q 754 803 774 786 q 708 819 735 819 q 698 819 708 819 q 688 819 688 819 l 688 833 l 776 833 m 932 833 l 932 819 q 922 819 932 819 q 913 819 913 819 q 867 803 886 819 q 847 760 847 786 l 844 760 l 844 833 l 932 833 z "},"û":{"ha":975,"x_min":50,"x_max":932,"o":"m 261 833 l 261 308 q 327 101 261 176 q 507 25 393 25 q 703 97 632 25 q 774 293 774 168 l 774 833 l 847 833 l 847 296 q 755 65 847 150 q 500 -19 663 -19 q 231 65 326 -19 q 136 294 136 149 l 136 833 l 261 833 m 139 833 l 139 760 l 136 760 q 116 803 135 786 q 69 819 97 819 q 60 819 69 819 q 50 819 50 819 l 50 833 l 139 833 m 347 833 l 347 819 q 337 819 347 819 q 326 819 326 819 q 281 803 300 819 q 261 760 261 786 l 258 760 l 258 833 l 347 833 m 776 833 l 776 760 l 774 760 q 754 803 774 786 q 708 819 735 819 q 698 819 708 819 q 688 819 688 819 l 688 833 l 776 833 m 932 833 l 932 819 q 922 819 932 819 q 913 819 913 819 q 867 803 886 819 q 847 760 847 786 l 844 760 l 844 833 l 932 833 z "},"ü":{"ha":975,"x_min":50,"x_max":932,"o":"m 261 833 l 261 308 q 327 101 261 176 q 507 25 393 25 q 703 97 632 25 q 774 293 774 168 l 774 833 l 847 833 l 847 296 q 755 65 847 150 q 500 -19 663 -19 q 231 65 326 -19 q 136 294 136 149 l 136 833 l 261 833 m 139 833 l 139 760 l 136 760 q 116 803 135 786 q 69 819 97 819 q 60 819 69 819 q 50 819 50 819 l 50 833 l 139 833 m 347 833 l 347 819 q 337 819 347 819 q 326 819 326 819 q 281 803 300 819 q 261 760 261 786 l 258 760 l 258 833 l 347 833 m 776 833 l 776 760 l 774 760 q 754 803 774 786 q 708 819 735 819 q 698 819 708 819 q 688 819 688 819 l 688 833 l 776 833 m 932 833 l 932 819 q 922 819 932 819 q 913 819 913 819 q 867 803 886 819 q 847 760 847 786 l 844 760 l 844 833 l 932 833 z "},"ù":{"ha":975,"x_min":50,"x_max":932,"o":"m 261 833 l 261 308 q 327 101 261 176 q 507 25 393 25 q 703 97 632 25 q 774 293 774 168 l 774 833 l 847 833 l 847 296 q 755 65 847 150 q 500 -19 663 -19 q 231 65 326 -19 q 136 294 136 149 l 136 833 l 261 833 m 139 833 l 139 760 l 136 760 q 116 803 135 786 q 69 819 97 819 q 60 819 69 819 q 50 819 50 819 l 50 833 l 139 833 m 347 833 l 347 819 q 337 819 347 819 q 326 819 326 819 q 281 803 300 819 q 261 760 261 786 l 258 760 l 258 833 l 347 833 m 776 833 l 776 760 l 774 760 q 754 803 774 786 q 708 819 735 819 q 698 819 708 819 q 688 819 688 819 l 688 833 l 776 833 m 932 833 l 932 819 q 922 819 932 819 q 913 819 913 819 q 867 803 886 819 q 847 760 847 786 l 844 760 l 844 833 l 932 833 z "},"ű":{"ha":975,"x_min":50,"x_max":932,"o":"m 261 833 l 261 308 q 327 101 261 176 q 507 25 393 25 q 703 97 632 25 q 774 293 774 168 l 774 833 l 847 833 l 847 296 q 755 65 847 150 q 500 -19 663 -19 q 231 65 326 -19 q 136 294 136 149 l 136 833 l 261 833 m 139 833 l 139 760 l 136 760 q 116 803 135 786 q 69 819 97 819 q 60 819 69 819 q 50 819 50 819 l 50 833 l 139 833 m 347 833 l 347 819 q 337 819 347 819 q 326 819 326 819 q 281 803 300 819 q 261 760 261 786 l 258 760 l 258 833 l 347 833 m 776 833 l 776 760 l 774 760 q 754 803 774 786 q 708 819 735 819 q 698 819 708 819 q 688 819 688 819 l 688 833 l 776 833 m 932 833 l 932 819 q 922 819 932 819 q 913 819 913 819 q 867 803 886 819 q 847 760 847 786 l 844 760 l 844 833 l 932 833 z "},"ū":{"ha":975,"x_min":50,"x_max":932,"o":"m 261 833 l 261 308 q 327 101 261 176 q 507 25 393 25 q 703 97 632 25 q 774 293 774 168 l 774 833 l 847 833 l 847 296 q 755 65 847 150 q 500 -19 663 -19 q 231 65 326 -19 q 136 294 136 149 l 136 833 l 261 833 m 139 833 l 139 760 l 136 760 q 116 803 135 786 q 69 819 97 819 q 60 819 69 819 q 50 819 50 819 l 50 833 l 139 833 m 347 833 l 347 819 q 337 819 347 819 q 326 819 326 819 q 281 803 300 819 q 261 760 261 786 l 258 760 l 258 833 l 347 833 m 776 833 l 776 760 l 774 760 q 754 803 774 786 q 708 819 735 819 q 698 819 708 819 q 688 819 688 819 l 688 833 l 776 833 m 932 833 l 932 819 q 922 819 932 819 q 913 819 913 819 q 867 803 886 819 q 847 760 847 786 l 844 760 l 844 833 l 932 833 z "},"ų":{"ha":975,"x_min":50,"x_max":932,"o":"m 261 833 l 261 308 q 327 101 261 176 q 507 25 393 25 q 703 97 632 25 q 774 293 774 168 l 774 833 l 847 833 l 847 296 q 755 65 847 150 q 500 -19 663 -19 q 231 65 326 -19 q 136 294 136 149 l 136 833 l 261 833 m 139 833 l 139 760 l 136 760 q 116 803 135 786 q 69 819 97 819 q 60 819 69 819 q 50 819 50 819 l 50 833 l 139 833 m 347 833 l 347 819 q 337 819 347 819 q 326 819 326 819 q 281 803 300 819 q 261 760 261 786 l 258 760 l 258 833 l 347 833 m 776 833 l 776 760 l 774 760 q 754 803 774 786 q 708 819 735 819 q 698 819 708 819 q 688 819 688 819 l 688 833 l 776 833 m 932 833 l 932 819 q 922 819 932 819 q 913 819 913 819 q 867 803 886 819 q 847 760 847 786 l 844 760 l 844 833 l 932 833 z "},"ů":{"ha":975,"x_min":50,"x_max":932,"o":"m 261 833 l 261 308 q 327 101 261 176 q 507 25 393 25 q 703 97 632 25 q 774 293 774 168 l 774 833 l 847 833 l 847 296 q 755 65 847 150 q 500 -19 663 -19 q 231 65 326 -19 q 136 294 136 149 l 136 833 l 261 833 m 139 833 l 139 760 l 136 760 q 116 803 135 786 q 69 819 97 819 q 60 819 69 819 q 50 819 50 819 l 50 833 l 139 833 m 347 833 l 347 819 q 337 819 347 819 q 326 819 326 819 q 281 803 300 819 q 261 760 261 786 l 258 760 l 258 833 l 347 833 m 776 833 l 776 760 l 774 760 q 754 803 774 786 q 708 819 735 819 q 698 819 708 819 q 688 819 688 819 l 688 833 l 776 833 m 932 833 l 932 819 q 922 819 932 819 q 913 819 913 819 q 867 803 886 819 q 847 760 847 786 l 844 760 l 844 833 l 932 833 z "},"v":{"ha":908,"x_min":-17,"x_max":926,"o":"m 451 -19 l 61 825 l 213 825 l 494 149 l 451 -19 m 451 -19 l 443 99 l 756 829 l 849 829 l 522 133 q 513 113 521 131 q 494 69 504 94 q 474 19 483 43 q 464 -19 465 -4 l 451 -19 m 717 735 q 713 797 732 775 q 668 819 693 819 l 658 819 l 658 833 l 926 833 l 926 819 q 921 819 926 819 q 915 819 915 819 q 856 800 886 819 q 804 735 825 781 l 717 735 m 250 735 l 103 735 q 51 800 82 781 q -7 819 21 819 q -12 819 -7 819 q -17 819 -17 819 l -17 833 l 308 833 l 308 819 l 297 819 q 255 797 274 819 q 250 735 236 775 z "},"w":{"ha":1235,"x_min":-18,"x_max":1250,"o":"m 71 825 l 217 825 l 429 204 l 396 -17 l 71 825 m 658 854 l 675 738 l 439 133 q 432 110 439 133 q 417 53 425 88 q 408 -17 408 18 l 396 -17 l 365 118 l 646 854 l 658 854 m 658 854 l 928 218 l 885 -17 l 597 665 l 658 854 m 1156 825 l 926 133 q 919 109 926 133 q 906 51 913 85 q 897 -17 899 17 l 885 -17 l 861 117 l 1074 825 l 1156 825 m 1047 739 q 1044 801 1061 782 q 1004 819 1026 819 l 993 819 l 993 833 l 1250 833 l 1250 819 q 1245 819 1250 819 q 1240 819 1240 819 q 1170 797 1200 819 q 1128 739 1140 775 l 1047 739 m 247 739 l 106 739 q 63 797 90 775 q -7 819 35 819 q -12 819 -7 819 q -18 819 -18 819 l -18 833 l 303 833 l 303 819 l 292 819 q 251 801 269 819 q 247 739 233 782 z "},"ẃ":{"ha":1235,"x_min":-18,"x_max":1250,"o":"m 71 825 l 217 825 l 429 204 l 396 -17 l 71 825 m 658 854 l 675 738 l 439 133 q 432 110 439 133 q 417 53 425 88 q 408 -17 408 18 l 396 -17 l 365 118 l 646 854 l 658 854 m 658 854 l 928 218 l 885 -17 l 597 665 l 658 854 m 1156 825 l 926 133 q 919 109 926 133 q 906 51 913 85 q 897 -17 899 17 l 885 -17 l 861 117 l 1074 825 l 1156 825 m 1047 739 q 1044 801 1061 782 q 1004 819 1026 819 l 993 819 l 993 833 l 1250 833 l 1250 819 q 1245 819 1250 819 q 1240 819 1240 819 q 1170 797 1200 819 q 1128 739 1140 775 l 1047 739 m 247 739 l 106 739 q 63 797 90 775 q -7 819 35 819 q -12 819 -7 819 q -18 819 -18 819 l -18 833 l 303 833 l 303 819 l 292 819 q 251 801 269 819 q 247 739 233 782 z "},"ŵ":{"ha":1235,"x_min":-18,"x_max":1250,"o":"m 71 825 l 217 825 l 429 204 l 396 -17 l 71 825 m 658 854 l 675 738 l 439 133 q 432 110 439 133 q 417 53 425 88 q 408 -17 408 18 l 396 -17 l 365 118 l 646 854 l 658 854 m 658 854 l 928 218 l 885 -17 l 597 665 l 658 854 m 1156 825 l 926 133 q 919 109 926 133 q 906 51 913 85 q 897 -17 899 17 l 885 -17 l 861 117 l 1074 825 l 1156 825 m 1047 739 q 1044 801 1061 782 q 1004 819 1026 819 l 993 819 l 993 833 l 1250 833 l 1250 819 q 1245 819 1250 819 q 1240 819 1240 819 q 1170 797 1200 819 q 1128 739 1140 775 l 1047 739 m 247 739 l 106 739 q 63 797 90 775 q -7 819 35 819 q -12 819 -7 819 q -18 819 -18 819 l -18 833 l 303 833 l 303 819 l 292 819 q 251 801 269 819 q 247 739 233 782 z "},"ẅ":{"ha":1235,"x_min":-18,"x_max":1250,"o":"m 71 825 l 217 825 l 429 204 l 396 -17 l 71 825 m 658 854 l 675 738 l 439 133 q 432 110 439 133 q 417 53 425 88 q 408 -17 408 18 l 396 -17 l 365 118 l 646 854 l 658 854 m 658 854 l 928 218 l 885 -17 l 597 665 l 658 854 m 1156 825 l 926 133 q 919 109 926 133 q 906 51 913 85 q 897 -17 899 17 l 885 -17 l 861 117 l 1074 825 l 1156 825 m 1047 739 q 1044 801 1061 782 q 1004 819 1026 819 l 993 819 l 993 833 l 1250 833 l 1250 819 q 1245 819 1250 819 q 1240 819 1240 819 q 1170 797 1200 819 q 1128 739 1140 775 l 1047 739 m 247 739 l 106 739 q 63 797 90 775 q -7 819 35 819 q -12 819 -7 819 q -18 819 -18 819 l -18 833 l 303 833 l 303 819 l 292 819 q 251 801 269 819 q 247 739 233 782 z "},"ẁ":{"ha":1235,"x_min":-18,"x_max":1250,"o":"m 71 825 l 217 825 l 429 204 l 396 -17 l 71 825 m 658 854 l 675 738 l 439 133 q 432 110 439 133 q 417 53 425 88 q 408 -17 408 18 l 396 -17 l 365 118 l 646 854 l 658 854 m 658 854 l 928 218 l 885 -17 l 597 665 l 658 854 m 1156 825 l 926 133 q 919 109 926 133 q 906 51 913 85 q 897 -17 899 17 l 885 -17 l 861 117 l 1074 825 l 1156 825 m 1047 739 q 1044 801 1061 782 q 1004 819 1026 819 l 993 819 l 993 833 l 1250 833 l 1250 819 q 1245 819 1250 819 q 1240 819 1240 819 q 1170 797 1200 819 q 1128 739 1140 775 l 1047 739 m 247 739 l 106 739 q 63 797 90 775 q -7 819 35 819 q -12 819 -7 819 q -18 819 -18 819 l -18 833 l 303 833 l 303 819 l 292 819 q 251 801 269 819 q 247 739 233 782 z "},"x":{"ha":881,"x_min":-19,"x_max":900,"o":"m 243 832 l 808 1 l 656 1 l 93 832 l 243 832 m 224 88 q 224 38 206 61 q 268 14 243 14 q 276 14 268 14 q 285 14 285 14 l 285 0 l -19 0 l -19 14 l -1 14 q 73 35 39 14 q 129 83 107 56 l 224 88 m 399 432 l 438 378 l 160 1 l 67 3 l 399 432 m 597 86 l 751 82 q 807 35 772 56 q 882 14 842 14 l 900 14 l 900 0 l 538 0 l 538 14 q 545 14 538 14 q 553 14 553 14 q 597 38 581 14 q 597 86 614 61 m 361 833 l 361 819 q 353 819 361 819 q 344 819 344 819 q 302 796 319 819 q 300 747 285 772 l 150 751 q 94 799 129 779 q 18 819 60 819 l 1 819 l 1 833 l 361 833 m 783 832 l 489 415 l 450 478 l 685 832 l 783 832 m 875 833 l 875 819 l 856 819 q 781 799 815 819 q 726 750 746 779 l 628 746 q 628 796 644 772 q 583 819 611 819 q 576 819 583 819 q 568 819 568 819 l 568 833 l 875 833 z "},"y":{"ha":888,"x_min":-19,"x_max":907,"o":"m 229 832 l 488 376 l 388 338 l 72 832 l 229 832 m 504 365 l 504 0 l 376 0 l 376 364 l 504 365 m 725 832 l 818 832 l 493 336 l 436 350 l 725 832 m 674 746 q 674 796 689 772 q 631 819 660 819 q 622 819 631 819 q 614 819 614 819 l 614 833 l 907 833 l 907 819 l 890 819 q 818 799 851 819 q 765 750 785 778 l 674 746 m 278 746 l 124 750 q 70 801 103 782 q -3 819 38 819 l -19 819 l -19 833 l 336 833 l 336 819 q 328 819 336 819 q 321 819 321 819 q 277 795 290 819 q 278 746 264 771 m 381 89 l 381 0 l 281 0 l 281 14 q 290 14 282 14 q 297 14 297 14 q 353 36 331 14 q 376 89 375 58 l 381 89 m 500 89 l 504 89 q 528 36 506 58 q 583 14 551 14 q 592 14 583 14 q 600 14 600 14 l 600 0 l 500 0 l 500 89 z "},"ý":{"ha":888,"x_min":-19,"x_max":907,"o":"m 229 832 l 488 376 l 388 338 l 72 832 l 229 832 m 504 365 l 504 0 l 376 0 l 376 364 l 504 365 m 725 832 l 818 832 l 493 336 l 436 350 l 725 832 m 674 746 q 674 796 689 772 q 631 819 660 819 q 622 819 631 819 q 614 819 614 819 l 614 833 l 907 833 l 907 819 l 890 819 q 818 799 851 819 q 765 750 785 778 l 674 746 m 278 746 l 124 750 q 70 801 103 782 q -3 819 38 819 l -19 819 l -19 833 l 336 833 l 336 819 q 328 819 336 819 q 321 819 321 819 q 277 795 290 819 q 278 746 264 771 m 381 89 l 381 0 l 281 0 l 281 14 q 290 14 282 14 q 297 14 297 14 q 353 36 331 14 q 376 89 375 58 l 381 89 m 500 89 l 504 89 q 528 36 506 58 q 583 14 551 14 q 592 14 583 14 q 600 14 600 14 l 600 0 l 500 0 l 500 89 z "},"ŷ":{"ha":888,"x_min":-19,"x_max":907,"o":"m 229 832 l 488 376 l 388 338 l 72 832 l 229 832 m 504 365 l 504 0 l 376 0 l 376 364 l 504 365 m 725 832 l 818 832 l 493 336 l 436 350 l 725 832 m 674 746 q 674 796 689 772 q 631 819 660 819 q 622 819 631 819 q 614 819 614 819 l 614 833 l 907 833 l 907 819 l 890 819 q 818 799 851 819 q 765 750 785 778 l 674 746 m 278 746 l 124 750 q 70 801 103 782 q -3 819 38 819 l -19 819 l -19 833 l 336 833 l 336 819 q 328 819 336 819 q 321 819 321 819 q 277 795 290 819 q 278 746 264 771 m 381 89 l 381 0 l 281 0 l 281 14 q 290 14 282 14 q 297 14 297 14 q 353 36 331 14 q 376 89 375 58 l 381 89 m 500 89 l 504 89 q 528 36 506 58 q 583 14 551 14 q 592 14 583 14 q 600 14 600 14 l 600 0 l 500 0 l 500 89 z "},"ÿ":{"ha":888,"x_min":-19,"x_max":907,"o":"m 229 832 l 488 376 l 388 338 l 72 832 l 229 832 m 504 365 l 504 0 l 376 0 l 376 364 l 504 365 m 725 832 l 818 832 l 493 336 l 436 350 l 725 832 m 674 746 q 674 796 689 772 q 631 819 660 819 q 622 819 631 819 q 614 819 614 819 l 614 833 l 907 833 l 907 819 l 890 819 q 818 799 851 819 q 765 750 785 778 l 674 746 m 278 746 l 124 750 q 70 801 103 782 q -3 819 38 819 l -19 819 l -19 833 l 336 833 l 336 819 q 328 819 336 819 q 321 819 321 819 q 277 795 290 819 q 278 746 264 771 m 381 89 l 381 0 l 281 0 l 281 14 q 290 14 282 14 q 297 14 297 14 q 353 36 331 14 q 376 89 375 58 l 381 89 m 500 89 l 504 89 q 528 36 506 58 q 583 14 551 14 q 592 14 583 14 q 600 14 600 14 l 600 0 l 500 0 l 500 89 z "},"ỳ":{"ha":888,"x_min":-19,"x_max":907,"o":"m 229 832 l 488 376 l 388 338 l 72 832 l 229 832 m 504 365 l 504 0 l 376 0 l 376 364 l 504 365 m 725 832 l 818 832 l 493 336 l 436 350 l 725 832 m 674 746 q 674 796 689 772 q 631 819 660 819 q 622 819 631 819 q 614 819 614 819 l 614 833 l 907 833 l 907 819 l 890 819 q 818 799 851 819 q 765 750 785 778 l 674 746 m 278 746 l 124 750 q 70 801 103 782 q -3 819 38 819 l -19 819 l -19 833 l 336 833 l 336 819 q 328 819 336 819 q 321 819 321 819 q 277 795 290 819 q 278 746 264 771 m 381 89 l 381 0 l 281 0 l 281 14 q 290 14 282 14 q 297 14 297 14 q 353 36 331 14 q 376 89 375 58 l 381 89 m 500 89 l 504 89 q 528 36 506 58 q 583 14 551 14 q 592 14 583 14 q 600 14 600 14 l 600 0 l 500 0 l 500 89 z "},"z":{"ha":844,"x_min":63,"x_max":814,"o":"m 739 853 q 739 847 739 853 q 739 840 739 840 l 207 0 l 63 0 l 63 13 l 560 789 l 83 789 l 83 835 l 586 835 q 647 838 615 835 q 705 844 679 840 q 739 853 731 849 m 742 46 l 732 0 l 153 0 l 153 46 l 742 46 m 814 218 l 744 0 l 521 0 l 568 46 q 679 68 636 47 q 751 128 722 89 q 800 218 781 167 l 814 218 m 83 792 l 188 792 l 188 789 q 122 763 146 788 q 97 696 97 738 l 97 679 l 83 679 l 83 792 m 83 857 q 121 848 94 853 q 178 840 147 843 q 238 835 210 836 l 83 821 l 83 857 z "},"ź":{"ha":844,"x_min":63,"x_max":814,"o":"m 739 853 q 739 847 739 853 q 739 840 739 840 l 207 0 l 63 0 l 63 13 l 560 789 l 83 789 l 83 835 l 586 835 q 647 838 615 835 q 705 844 679 840 q 739 853 731 849 m 742 46 l 732 0 l 153 0 l 153 46 l 742 46 m 814 218 l 744 0 l 521 0 l 568 46 q 679 68 636 47 q 751 128 722 89 q 800 218 781 167 l 814 218 m 83 792 l 188 792 l 188 789 q 122 763 146 788 q 97 696 97 738 l 97 679 l 83 679 l 83 792 m 83 857 q 121 848 94 853 q 178 840 147 843 q 238 835 210 836 l 83 821 l 83 857 z "},"ž":{"ha":844,"x_min":63,"x_max":814,"o":"m 739 853 q 739 847 739 853 q 739 840 739 840 l 207 0 l 63 0 l 63 13 l 560 789 l 83 789 l 83 835 l 586 835 q 647 838 615 835 q 705 844 679 840 q 739 853 731 849 m 742 46 l 732 0 l 153 0 l 153 46 l 742 46 m 814 218 l 744 0 l 521 0 l 568 46 q 679 68 636 47 q 751 128 722 89 q 800 218 781 167 l 814 218 m 83 792 l 188 792 l 188 789 q 122 763 146 788 q 97 696 97 738 l 97 679 l 83 679 l 83 792 m 83 857 q 121 848 94 853 q 178 840 147 843 q 238 835 210 836 l 83 821 l 83 857 z "},"ż":{"ha":844,"x_min":63,"x_max":814,"o":"m 739 853 q 739 847 739 853 q 739 840 739 840 l 207 0 l 63 0 l 63 13 l 560 789 l 83 789 l 83 835 l 586 835 q 647 838 615 835 q 705 844 679 840 q 739 853 731 849 m 742 46 l 732 0 l 153 0 l 153 46 l 742 46 m 814 218 l 744 0 l 521 0 l 568 46 q 679 68 636 47 q 751 128 722 89 q 800 218 781 167 l 814 218 m 83 792 l 188 792 l 188 789 q 122 763 146 788 q 97 696 97 738 l 97 679 l 83 679 l 83 792 m 83 857 q 121 848 94 853 q 178 840 147 843 q 238 835 210 836 l 83 821 l 83 857 z "},"ﬁ":{"ha":1206,"x_min":67,"x_max":1140,"o":"m 290 833 l 290 0 l 165 0 l 165 833 l 290 833 m 592 439 l 592 392 l 288 392 l 288 439 l 592 439 m 657 833 l 657 786 l 288 786 l 288 833 l 657 833 m 592 394 l 592 301 l 576 301 l 576 317 q 558 370 576 349 q 503 392 540 392 l 503 394 l 592 394 m 592 529 l 592 436 l 503 436 l 503 439 q 558 461 540 439 q 576 514 576 483 l 576 529 l 592 529 m 657 790 l 657 676 l 642 676 l 642 694 q 618 760 642 735 q 553 786 594 786 l 553 790 l 657 790 m 657 856 l 657 819 l 501 833 q 560 837 529 833 q 618 846 592 840 q 657 856 644 851 m 168 89 l 182 0 l 67 0 l 67 14 q 76 14 67 14 q 86 14 85 14 q 142 36 119 14 q 165 89 164 58 l 168 89 m 168 746 l 165 746 q 142 799 164 778 q 86 819 119 819 q 76 819 85 819 q 67 819 67 819 l 67 833 l 182 833 l 168 746 m 288 89 l 290 89 q 314 36 292 58 q 371 14 336 14 q 380 14 371 14 q 389 14 389 14 l 389 0 l 274 0 l 288 89 m 1032 833 l 1032 0 l 907 0 l 907 833 l 1032 833 m 911 89 l 911 0 l 799 0 l 799 14 q 808 14 799 14 q 818 14 817 14 q 880 36 854 14 q 907 89 906 58 l 911 89 m 1028 89 l 1032 89 q 1059 36 1033 58 q 1122 14 1085 14 q 1131 14 1122 14 q 1139 14 1139 14 l 1140 0 l 1028 0 l 1028 89 m 1028 744 l 1028 833 l 1140 833 l 1139 819 q 1131 819 1139 819 q 1122 819 1122 819 q 1059 798 1085 819 q 1032 744 1033 776 l 1028 744 m 911 744 l 907 744 q 880 798 906 776 q 817 819 854 819 q 808 819 817 819 q 799 819 799 819 l 799 833 l 911 833 l 911 744 z "},"ﬂ":{"ha":1482,"x_min":67,"x_max":1461,"o":"m 290 833 l 290 0 l 165 0 l 165 833 l 290 833 m 592 439 l 592 392 l 288 392 l 288 439 l 592 439 m 657 833 l 657 786 l 288 786 l 288 833 l 657 833 m 592 394 l 592 301 l 576 301 l 576 317 q 558 370 576 349 q 503 392 540 392 l 503 394 l 592 394 m 592 529 l 592 436 l 503 436 l 503 439 q 558 461 540 439 q 576 514 576 483 l 576 529 l 592 529 m 657 790 l 657 676 l 642 676 l 642 694 q 618 760 642 735 q 553 786 594 786 l 553 790 l 657 790 m 657 856 l 657 819 l 501 833 q 560 837 529 833 q 618 846 592 840 q 657 856 644 851 m 168 89 l 182 0 l 67 0 l 67 14 q 76 14 67 14 q 86 14 85 14 q 142 36 119 14 q 165 89 164 58 l 168 89 m 168 746 l 165 746 q 142 799 164 778 q 86 819 119 819 q 76 819 85 819 q 67 819 67 819 l 67 833 l 182 833 l 168 746 m 288 89 l 290 89 q 314 36 292 58 q 371 14 336 14 q 380 14 371 14 q 389 14 389 14 l 389 0 l 274 0 l 288 89 m 1022 833 l 1022 0 l 896 0 l 896 833 l 1022 833 m 1379 47 l 1389 0 l 1019 0 l 1019 47 l 1379 47 m 1461 218 l 1393 0 l 1172 0 l 1218 47 q 1327 69 1283 47 q 1400 129 1371 90 q 1447 218 1429 168 l 1461 218 m 899 89 l 914 0 l 799 0 l 799 14 q 808 14 799 14 q 818 14 817 14 q 873 36 851 14 q 896 89 894 58 l 899 89 m 1018 744 l 1018 833 l 1119 833 l 1119 819 q 1110 819 1118 819 q 1103 819 1103 819 q 1046 798 1069 819 q 1022 744 1022 776 l 1018 744 m 899 744 l 896 744 q 872 798 894 776 q 815 819 849 819 q 807 819 815 819 q 799 819 799 819 l 799 833 l 899 833 l 899 744 z "},"Δ":{"ha":906,"x_min":7,"x_max":899,"o":"m 460 992 l 899 14 l 899 0 l 7 0 l 7 14 l 446 992 l 460 992 m 422 828 l 76 47 l 758 47 l 422 828 z "},"Ω":{"ha":1142,"x_min":64,"x_max":1076,"o":"m 993 0 l 650 0 l 644 121 q 746 188 696 147 q 838 282 796 228 q 905 403 879 336 q 932 549 931 469 q 908 704 935 632 q 833 830 882 776 q 717 914 783 883 q 574 944 651 944 q 431 914 497 944 q 315 829 365 883 q 238 703 265 775 q 210 547 210 631 q 251 360 210 443 q 356 218 292 278 q 492 121 421 158 l 486 0 l 144 0 l 144 110 l 435 110 q 269 186 339 136 q 158 299 200 236 q 95 426 115 361 q 74 549 75 490 q 109 722 72 642 q 214 864 146 803 q 374 958 282 925 q 575 992 467 992 q 769 958 679 992 q 926 863 860 924 q 1031 722 993 803 q 1068 549 1068 642 q 1043 424 1068 490 q 971 294 1018 357 q 856 181 924 231 q 701 110 788 132 l 993 110 l 993 0 m 78 228 q 124 158 103 183 q 173 121 146 132 q 240 110 200 110 l 256 110 l 256 0 l 131 0 l 64 228 l 78 228 m 1076 228 l 1010 0 l 885 0 l 885 110 l 899 110 q 967 121 940 110 q 1016 158 994 132 q 1063 228 1038 183 l 1076 228 z "},"μ":{"ha":1213,"x_min":4,"x_max":1210,"o":"m 972 853 l 985 744 l 643 119 q 632 97 643 119 q 610 41 621 74 q 594 -22 599 8 l 581 -22 l 550 75 l 972 853 m 146 92 l 146 0 l 4 0 l 4 14 q 14 14 4 14 q 24 14 24 14 q 86 34 60 14 q 117 92 113 54 l 146 92 m 193 71 q 203 33 192 53 q 243 13 214 14 l 263 13 l 263 0 l 182 0 l 185 71 l 193 71 m 225 853 l 239 853 l 272 753 l 186 0 l 106 0 l 225 853 m 239 853 l 628 163 l 581 -22 l 210 644 l 239 853 m 985 853 l 1110 0 l 968 0 l 885 635 l 972 853 l 985 853 m 1068 92 l 1096 92 q 1128 34 1101 54 q 1190 14 1156 14 q 1200 14 1190 14 q 1210 14 1210 14 l 1210 0 l 1068 0 l 1068 92 m 958 71 l 968 71 l 971 0 l 889 0 l 889 13 l 910 13 q 951 33 940 14 q 958 71 961 53 z "},"π":{"ha":999,"x_min":68,"x_max":932,"o":"m 288 833 l 288 0 l 160 0 l 160 833 l 288 833 m 164 89 l 164 0 l 68 0 l 68 14 q 76 14 68 14 q 83 14 83 14 q 138 36 115 14 q 160 89 160 58 l 164 89 m 285 89 l 288 89 q 311 36 289 58 q 365 14 333 14 q 372 14 365 14 q 379 14 379 14 l 381 0 l 285 0 l 285 89 m 164 744 l 160 744 q 138 798 160 776 q 83 819 115 819 q 76 819 83 819 q 68 819 68 819 l 68 833 l 164 833 l 164 744 m 840 833 l 840 0 l 713 0 l 713 833 l 840 833 m 715 89 l 715 0 l 619 0 l 621 14 q 628 14 621 14 q 635 14 635 14 q 689 36 667 14 q 713 89 711 58 l 715 89 m 836 89 l 840 89 q 863 36 840 58 q 917 14 886 14 q 924 14 917 14 q 932 14 932 14 l 932 0 l 836 0 l 836 89 m 836 744 l 836 833 l 932 833 l 932 819 q 924 819 932 819 q 917 819 917 819 q 863 798 886 819 q 840 744 840 776 l 836 744 m 744 786 l 715 786 l 715 711 l 713 711 q 690 764 711 742 q 638 786 668 786 l 363 786 q 310 764 332 786 q 288 711 289 742 l 285 711 l 285 786 l 251 786 l 251 833 l 744 833 l 744 786 z "},"⁄":{"ha":769,"x_min":28,"x_max":732,"o":"m 28 6 l 69 -21 l 732 967 l 692 994 l 28 6 z "},"½":{"ha":1131,"x_min":72,"x_max":1075,"o":"m 306 428 l 306 438 l 286 438 q 252 451 267 438 q 238 485 238 465 l 238 992 l 229 992 q 193 966 213 976 q 152 949 174 956 q 110 940 131 943 q 72 935 90 936 l 72 926 l 101 926 q 135 915 124 926 q 147 878 147 903 l 147 485 q 133 451 147 465 q 97 438 118 438 l 79 438 l 79 428 l 306 428 m 138 6 l 179 -21 l 842 967 l 801 994 l 138 6 m 674 389 l 646 504 q 724 549 676 532 q 818 565 771 565 q 926 544 878 565 q 1003 487 974 524 q 1032 399 1032 450 q 1005 294 1032 342 q 938 206 978 246 q 856 135 899 167 q 779 82 813 104 l 958 82 q 1020 100 997 82 q 1067 161 1043 118 l 1075 161 l 1029 0 l 639 0 l 639 10 q 729 98 679 51 q 824 194 779 144 q 899 297 869 244 q 928 400 928 349 q 894 497 928 463 q 806 529 860 531 q 717 490 753 526 q 682 389 682 454 l 674 389 z "},"¼":{"ha":986,"x_min":53,"x_max":951,"o":"m 286 428 l 286 438 l 267 438 q 233 451 247 438 q 218 485 218 465 l 218 992 l 210 992 q 174 966 193 976 q 133 949 154 956 q 91 940 111 943 q 53 935 71 936 l 53 926 l 82 926 q 116 915 104 926 q 128 878 128 903 l 128 485 q 113 451 128 465 q 78 438 99 438 l 60 438 l 60 428 l 286 428 m 125 6 l 167 -21 l 829 967 l 789 994 l 125 6 m 763 450 l 844 565 l 853 565 l 853 1 l 763 1 l 763 450 m 843 565 l 851 521 l 600 229 l 892 229 q 926 235 918 229 q 943 251 935 240 l 953 251 l 931 171 l 507 171 l 507 181 l 843 565 m 853 58 q 867 24 853 39 q 903 10 882 10 l 913 10 l 913 0 l 703 0 l 703 10 l 713 10 q 748 24 733 10 q 763 58 763 38 l 853 58 z "},"¾":{"ha":1024,"x_min":40,"x_max":997,"o":"m 199 989 q 328 955 278 990 q 378 861 378 919 q 351 794 378 824 q 289 750 325 764 q 218 744 253 736 q 299 734 258 749 q 369 688 340 719 q 397 608 397 656 q 368 499 397 544 q 288 426 339 453 q 174 394 238 399 q 40 407 111 389 l 42 417 q 172 436 114 415 q 263 501 229 457 q 297 610 297 546 q 275 681 297 654 q 215 719 253 707 q 126 731 176 731 l 128 739 q 236 774 190 739 q 281 868 282 810 q 251 933 278 911 q 183 954 224 956 q 106 927 132 953 q 82 838 81 901 l 74 838 l 50 938 q 109 976 72 961 q 199 989 146 990 m 210 6 l 251 -21 l 914 967 l 874 994 l 210 6 m 808 450 l 890 565 l 899 565 l 899 1 l 808 1 l 808 450 m 889 565 l 897 521 l 646 229 l 938 229 q 972 235 964 229 q 989 251 981 240 l 999 251 l 976 171 l 553 171 l 553 181 l 889 565 m 899 58 q 913 24 899 39 q 949 10 928 10 l 958 10 l 958 0 l 749 0 l 749 10 l 758 10 q 794 24 779 10 q 808 58 808 38 l 899 58 z "},"¹":{"ha":315,"x_min":53,"x_max":286,"o":"m 286 428 l 286 438 l 267 438 q 233 451 247 438 q 218 485 218 465 l 218 992 l 210 992 q 174 966 193 976 q 133 949 154 956 q 91 940 111 943 q 53 935 71 936 l 53 926 l 82 926 q 116 915 104 926 q 128 878 128 903 l 128 485 q 113 451 128 465 q 78 438 99 438 l 60 438 l 60 428 l 286 428 z "},"²":{"ha":533,"x_min":44,"x_max":481,"o":"m 79 817 l 51 932 q 129 976 82 960 q 224 993 176 993 q 331 972 283 993 q 408 915 379 951 q 438 826 438 878 q 410 722 438 769 q 344 634 383 674 q 261 563 304 594 q 185 510 218 532 l 364 510 q 426 528 403 510 q 472 589 449 546 l 481 589 l 435 428 l 44 428 l 44 438 q 135 526 85 479 q 230 622 185 572 q 304 724 275 672 q 333 828 333 776 q 299 924 333 890 q 211 957 265 958 q 123 918 158 954 q 88 817 88 882 l 79 817 z "},"³":{"ha":449,"x_min":40,"x_max":397,"o":"m 199 989 q 328 955 278 990 q 378 861 378 919 q 351 794 378 824 q 289 750 325 764 q 218 744 253 736 q 299 734 258 749 q 369 688 340 719 q 397 608 397 656 q 368 499 397 544 q 288 426 339 453 q 174 394 238 399 q 40 407 111 389 l 42 417 q 172 436 114 415 q 263 501 229 457 q 297 610 297 546 q 275 681 297 654 q 215 719 253 707 q 126 731 176 731 l 128 739 q 236 774 190 739 q 281 868 282 810 q 251 933 278 911 q 183 954 224 956 q 106 927 132 953 q 82 838 81 901 l 74 838 l 50 938 q 109 976 72 961 q 199 989 146 990 z "},"ª":{"ha":517,"x_min":-1,"x_max":518,"o":"m 260 990 l 476 529 l 378 529 l 233 889 l 260 990 m 125 581 q 126 544 115 557 q 151 532 138 532 l 157 532 l 157 525 l -1 525 l -1 532 q 1 532 -1 532 q 4 532 4 532 q 38 544 21 532 q 67 581 54 556 l 125 581 m 260 990 l 264 899 l 101 526 l 40 526 l 221 904 q 229 924 222 907 q 244 960 236 940 q 253 990 253 981 l 260 990 m 340 696 l 340 661 l 140 661 l 140 696 l 340 696 m 358 581 l 453 581 q 481 544 465 556 q 513 532 497 532 q 515 532 513 532 q 518 532 518 532 l 518 525 l 325 525 l 325 532 l 332 532 q 356 544 346 532 q 358 581 367 557 z "},"º":{"ha":569,"x_min":39,"x_max":531,"o":"m 285 990 q 411 960 356 990 q 499 875 467 929 q 531 753 531 821 q 499 631 531 685 q 411 547 467 578 q 285 515 356 515 q 160 547 215 515 q 72 631 104 578 q 39 753 39 685 q 72 875 39 821 q 160 960 104 929 q 285 990 215 990 m 285 546 q 394 605 353 546 q 436 753 436 664 q 394 902 436 844 q 285 960 353 960 q 206 933 240 960 q 152 860 171 907 q 133 753 133 814 q 152 647 133 693 q 206 573 171 600 q 285 546 240 546 z "},"*":{"ha":538,"x_min":50,"x_max":488,"o":"m 404 658 l 351 644 l 286 763 l 269 835 l 278 840 l 340 803 l 436 704 l 404 658 m 135 658 l 104 703 l 199 803 l 260 840 l 269 835 l 251 763 l 189 644 l 135 658 m 50 914 l 86 957 l 208 899 l 264 851 l 260 840 l 188 835 l 53 860 l 50 914 m 269 1074 l 321 1054 l 303 919 l 275 851 l 264 851 l 236 919 l 218 1054 l 269 1074 m 488 915 l 486 860 l 351 835 l 278 840 l 275 851 l 331 899 l 453 958 l 488 915 m 274 853 l 278 849 l 279 842 l 278 839 l 271 833 q 268 835 269 835 q 267 835 267 835 l 260 840 l 260 843 l 261 851 l 265 853 l 274 853 z "},"\\":{"ha":574,"x_min":11,"x_max":563,"o":"m 61 994 l 563 10 l 513 -19 l 11 968 l 61 994 z "},"•":{"ha":481,"x_min":89,"x_max":390,"o":"m 261 317 q 219 317 240 310 q 168 337 188 328 q 136 358 149 346 q 115 390 124 369 q 94 442 107 410 q 94 482 89 463 q 115 535 107 515 q 136 567 124 556 q 168 588 149 578 q 219 607 188 597 q 261 607 240 617 q 314 588 294 597 q 345 567 333 578 q 366 535 357 556 q 386 482 375 515 q 390 462 390 472 q 386 439 390 451 q 366 388 375 407 q 345 356 357 368 q 314 336 333 344 q 261 317 294 328 z "},":":{"ha":268,"x_min":60,"x_max":210,"o":"m 135 524 q 81 545 103 524 q 60 599 60 567 q 81 652 60 631 q 135 674 103 674 q 188 652 167 674 q 210 599 210 631 q 188 545 210 567 q 135 524 167 524 m 135 -8 q 81 13 103 -8 q 60 67 60 35 q 81 120 60 99 q 135 142 103 142 q 188 120 167 142 q 210 67 210 99 q 188 13 210 35 q 135 -8 167 -8 z "},",":{"ha":278,"x_min":61,"x_max":224,"o":"m 81 114 q 119 140 94 135 q 167 133 143 144 q 204 92 192 121 q 219 6 224 47 q 192 -67 214 -35 q 138 -117 171 -99 q 65 -135 104 -136 l 61 -122 q 114 -85 100 -108 q 124 -34 128 -61 q 103 13 119 -7 q 82 43 92 26 q 71 78 72 60 q 81 114 69 97 z "},"…":{"ha":839,"x_min":60,"x_max":779,"o":"m 425 -8 q 372 13 393 -8 q 350 67 350 35 q 372 120 350 99 q 425 142 393 142 q 478 120 457 142 q 500 67 500 99 q 478 13 500 35 q 425 -8 457 -8 m 704 -8 q 651 13 672 -8 q 629 67 629 35 q 651 120 629 99 q 704 142 672 142 q 758 120 736 142 q 779 67 779 99 q 758 13 779 35 q 704 -8 736 -8 m 135 -8 q 81 13 103 -8 q 60 67 60 35 q 81 120 60 99 q 135 142 103 142 q 188 120 167 142 q 210 67 210 99 q 188 13 210 35 q 135 -8 167 -8 z "},"!":{"ha":338,"x_min":93,"x_max":243,"o":"m 168 -8 q 115 13 136 -8 q 93 67 93 35 q 115 120 93 99 q 168 142 136 142 q 222 120 200 142 q 243 67 243 99 q 222 13 243 35 q 168 -8 200 -8 m 183 253 l 153 253 l 118 549 l 99 975 l 239 975 l 219 549 l 183 253 z "},"¡":{"ha":338,"x_min":94,"x_max":244,"o":"m 169 983 q 223 961 201 983 q 244 908 244 939 q 223 855 244 876 q 169 833 201 833 q 116 855 138 833 q 94 908 94 876 q 116 961 94 939 q 169 983 138 983 m 154 718 l 186 718 l 221 426 l 240 0 l 99 0 l 119 426 l 154 718 z "},"#":{"ha":763,"x_min":28,"x_max":725,"o":"m 294 972 l 347 972 l 176 0 l 124 0 l 294 972 m 572 972 l 625 972 l 454 0 l 401 0 l 572 972 m 725 690 l 725 640 l 89 640 l 89 690 l 725 690 m 664 351 l 664 301 l 28 301 l 28 351 l 664 351 z "},".":{"ha":268,"x_min":60,"x_max":210,"o":"m 135 -8 q 81 13 103 -8 q 60 67 60 35 q 81 120 60 99 q 135 142 103 142 q 188 120 167 142 q 210 67 210 99 q 188 13 210 35 q 135 -8 167 -8 z "},"·":{"ha":258,"x_min":54,"x_max":204,"o":"m 129 413 q 76 434 97 413 q 54 488 54 456 q 76 541 54 519 q 129 563 97 563 q 183 541 161 563 q 204 488 204 519 q 183 434 204 456 q 129 413 161 413 z "},"?":{"ha":596,"x_min":22,"x_max":532,"o":"m 22 868 q 113 958 54 925 q 249 992 171 992 q 457 928 382 992 q 532 754 532 865 q 513 661 532 701 q 465 587 494 621 q 403 522 436 553 q 341 460 369 492 q 294 390 313 428 q 277 347 285 368 q 272 304 269 326 q 292 256 274 282 l 282 249 q 223 314 242 278 q 206 390 204 350 q 226 460 207 428 q 272 524 244 493 q 326 589 299 556 q 371 663 353 622 q 389 756 389 704 q 347 895 389 846 q 231 944 304 944 q 106 889 151 944 q 61 731 60 833 l 47 731 l 22 868 m 263 -8 q 210 13 232 -8 q 188 67 188 35 q 210 120 188 99 q 263 142 232 142 q 316 120 294 142 q 338 67 338 99 q 316 13 338 35 q 263 -8 294 -8 z "},"¿":{"ha":626,"x_min":64,"x_max":574,"o":"m 574 104 q 484 14 543 47 q 349 -19 425 -19 q 140 44 215 -19 q 64 218 64 107 q 83 310 64 269 q 131 385 101 351 q 193 450 160 419 q 255 513 226 481 q 301 582 283 544 q 319 625 313 604 q 325 668 326 646 q 304 717 324 690 l 314 724 q 374 658 354 694 q 392 582 393 622 q 372 512 390 544 q 326 448 353 479 q 272 383 299 417 q 226 310 244 350 q 207 217 207 269 q 250 77 207 126 q 367 28 293 28 q 492 83 446 28 q 535 242 538 139 l 549 242 l 574 104 m 333 981 q 387 959 365 981 q 408 906 408 938 q 387 852 408 874 q 333 831 365 831 q 280 852 301 831 q 258 906 258 874 q 280 959 258 938 q 333 981 301 981 z "},"\"":{"ha":460,"x_min":64,"x_max":397,"o":"m 90 972 l 204 992 q 199 922 204 965 q 181 834 194 879 q 142 751 167 789 q 79 694 118 713 l 64 701 q 87 804 81 763 q 94 884 93 846 q 90 972 94 922 m 282 972 l 397 992 q 392 922 397 965 q 374 834 388 879 q 335 751 360 789 q 271 694 311 713 l 257 701 q 279 804 272 763 q 287 884 286 846 q 282 972 288 922 z "},"'":{"ha":250,"x_min":47,"x_max":188,"o":"m 74 972 l 188 992 q 183 922 188 965 q 164 834 178 879 q 126 751 150 789 q 63 694 101 713 l 47 701 q 70 804 64 763 q 77 884 76 846 q 74 972 78 922 z "},";":{"ha":278,"x_min":60,"x_max":224,"o":"m 81 114 q 119 140 94 135 q 167 133 143 144 q 204 92 192 121 q 219 6 224 47 q 192 -67 214 -35 q 138 -117 171 -99 q 65 -135 104 -136 l 61 -122 q 114 -85 100 -108 q 124 -34 128 -61 q 103 13 119 -7 q 82 43 92 26 q 71 78 72 60 q 81 114 69 97 m 135 563 q 81 584 103 563 q 60 638 60 606 q 81 691 60 669 q 135 713 103 713 q 188 691 167 713 q 210 638 210 669 q 188 584 210 606 q 135 563 167 563 z "},"/":{"ha":574,"x_min":11,"x_max":563,"o":"m 511 994 l 563 968 l 61 -19 l 11 10 l 511 994 z "},"_":{"ha":694,"x_min":0,"x_max":694,"o":"m 0 -83 l 694 -83 l 694 -131 l 0 -131 l 0 -83 z "},"{":{"ha":488,"x_min":118,"x_max":439,"o":"m 189 472 q 190 531 196 490 q 175 622 183 571 q 167 719 167 672 q 195 870 168 803 q 282 978 222 938 q 436 1018 342 1018 l 439 1007 q 345 951 375 990 q 306 855 315 913 q 296 724 297 797 q 294 617 296 665 q 285 533 293 569 q 259 474 278 497 q 204 439 240 450 q 260 406 242 431 q 287 343 279 381 q 295 259 294 306 q 296 160 296 213 q 301 56 297 104 q 317 -28 304 8 q 358 -90 331 -65 q 433 -128 385 -115 l 431 -139 q 278 -99 336 -139 q 194 10 219 -58 q 167 160 168 78 q 174 257 167 207 q 188 347 182 307 q 185 406 193 388 q 157 429 178 424 q 118 436 136 435 l 118 450 q 159 454 138 451 q 189 472 181 457 z "},"}":{"ha":488,"x_min":50,"x_max":371,"o":"m 53 1018 q 208 978 149 1018 q 294 870 267 938 q 321 719 321 803 q 313 622 322 672 q 299 531 304 571 q 300 472 293 490 q 330 454 307 457 q 371 450 353 451 l 371 436 q 332 429 353 435 q 304 406 311 424 q 302 347 297 388 q 315 257 307 307 q 321 160 322 207 q 295 10 321 78 q 212 -99 269 -58 q 58 -139 154 -139 l 56 -128 q 131 -90 104 -115 q 172 -28 158 -65 q 188 56 185 8 q 192 160 192 104 q 193 259 192 213 q 203 343 194 306 q 230 406 211 381 q 285 439 249 431 q 230 474 249 450 q 203 533 211 497 q 193 617 194 569 q 192 724 192 665 q 183 855 192 797 q 144 951 174 913 q 50 1007 115 990 l 53 1018 z "},"[":{"ha":500,"x_min":167,"x_max":444,"o":"m 167 1003 l 440 1003 l 440 989 l 296 953 l 296 -75 l 444 -111 l 444 -125 l 167 -125 l 167 1003 z "},"]":{"ha":500,"x_min":56,"x_max":333,"o":"m 333 1003 l 333 -125 l 56 -125 l 56 -111 l 204 -75 l 204 953 l 60 989 l 60 1003 l 333 1003 z "},"(":{"ha":508,"x_min":124,"x_max":468,"o":"m 468 1006 q 361 901 410 978 q 285 712 313 824 q 258 467 257 600 q 290 205 261 325 q 365 -1 318 85 q 465 -126 411 -87 l 457 -139 q 324 -49 385 -108 q 219 91 264 10 q 151 267 175 172 q 125 464 126 363 q 149 657 124 565 q 218 822 174 749 q 324 947 263 896 q 460 1017 386 997 l 468 1006 z "},")":{"ha":508,"x_min":42,"x_max":385,"o":"m 42 1006 l 50 1017 q 185 947 124 997 q 292 822 246 896 q 361 657 338 749 q 385 464 385 565 q 360 267 385 363 q 290 91 335 172 q 184 -49 244 10 q 53 -139 124 -108 l 44 -126 q 145 -1 99 -87 q 221 205 192 85 q 251 467 250 325 q 225 712 253 600 q 149 901 197 824 q 42 1006 101 978 z "},"—":{"ha":1111,"x_min":0,"x_max":1111,"o":"m 0 435 l 1111 435 l 1111 374 l 0 374 l 0 435 z "},"–":{"ha":694,"x_min":0,"x_max":694,"o":"m 0 435 l 694 435 l 694 374 l 0 374 l 0 435 z "},"-":{"ha":528,"x_min":46,"x_max":482,"o":"m 56 442 l 472 442 l 482 406 l 472 368 l 56 368 l 46 406 l 56 442 z "},"­":{"ha":528,"x_min":46,"x_max":482,"o":"m 56 442 l 472 442 l 482 406 l 472 368 l 56 368 l 46 406 l 56 442 z "},"«":{"ha":654,"x_min":56,"x_max":572,"o":"m 56 406 l 313 125 l 325 132 l 171 406 l 324 674 l 313 681 l 56 406 m 303 406 l 560 125 l 572 132 l 418 406 l 571 674 l 560 681 l 303 406 z "},"»":{"ha":654,"x_min":83,"x_max":600,"o":"m 600 406 l 343 681 l 332 674 l 485 406 l 331 132 l 343 125 l 600 406 m 353 406 l 96 681 l 85 674 l 238 406 l 83 132 l 96 125 l 353 406 z "},"‹":{"ha":407,"x_min":56,"x_max":325,"o":"m 56 406 l 313 125 l 325 132 l 171 406 l 324 674 l 313 681 l 56 406 z "},"›":{"ha":407,"x_min":83,"x_max":353,"o":"m 353 406 l 96 681 l 85 674 l 238 406 l 83 132 l 96 125 l 353 406 z "},"„":{"ha":511,"x_min":61,"x_max":458,"o":"m 301 128 q 343 156 317 150 q 397 149 369 161 q 438 104 424 138 q 453 12 458 57 q 424 -69 447 -33 q 363 -126 400 -106 q 285 -144 326 -146 l 281 -131 q 338 -90 322 -117 q 348 -33 353 -62 q 325 17 343 -4 q 303 50 314 32 q 291 89 293 68 q 301 128 289 110 m 82 128 q 124 156 97 150 q 177 149 150 161 q 218 104 204 138 q 233 12 239 57 q 204 -69 228 -33 q 144 -126 181 -106 q 65 -144 107 -146 l 61 -131 q 118 -90 103 -117 q 128 -33 133 -62 q 106 17 124 -4 q 84 50 94 32 q 72 89 74 68 q 82 128 69 110 z "},"“":{"ha":515,"x_min":51,"x_max":451,"o":"m 431 832 q 390 806 417 811 q 335 813 363 800 q 294 856 308 825 q 280 949 275 904 q 308 1031 285 994 q 369 1087 332 1067 q 447 1106 406 1107 l 451 1092 q 394 1051 410 1078 q 384 994 379 1024 q 407 943 389 965 q 429 910 419 929 q 441 872 439 892 q 431 832 443 853 m 208 832 q 167 806 194 811 q 113 813 140 800 q 72 856 86 825 q 58 949 53 904 q 86 1031 63 994 q 147 1087 110 1067 q 225 1106 183 1107 l 229 1092 q 172 1051 188 1078 q 162 994 157 1024 q 185 943 167 965 q 207 910 197 929 q 219 872 217 892 q 208 832 221 853 z "},"”":{"ha":511,"x_min":61,"x_max":458,"o":"m 301 1072 q 343 1100 317 1094 q 397 1094 369 1106 q 438 1049 424 1082 q 453 956 458 1001 q 424 875 447 911 q 363 819 400 839 q 285 800 326 799 l 281 814 q 338 855 322 828 q 348 911 353 882 q 325 961 343 940 q 303 994 314 976 q 291 1033 293 1013 q 301 1072 289 1054 m 82 1072 q 124 1100 97 1094 q 177 1094 150 1106 q 218 1049 204 1082 q 233 956 239 1001 q 204 875 228 911 q 144 819 181 839 q 65 800 107 799 l 61 814 q 118 855 103 828 q 128 911 133 882 q 106 961 124 940 q 84 994 94 976 q 72 1033 74 1013 q 82 1072 69 1054 z "},"‘":{"ha":292,"x_min":56,"x_max":232,"o":"m 211 832 q 170 806 197 811 q 116 813 143 800 q 75 856 89 825 q 60 949 56 904 q 89 1031 65 994 q 149 1087 113 1067 q 228 1106 186 1107 l 232 1092 q 175 1051 190 1078 q 165 994 160 1024 q 188 943 169 965 q 210 910 200 929 q 222 872 219 892 q 211 832 224 853 z "},"’":{"ha":292,"x_min":61,"x_max":239,"o":"m 82 1072 q 124 1100 97 1094 q 177 1094 150 1106 q 218 1049 204 1082 q 233 956 239 1001 q 204 875 228 911 q 144 819 181 839 q 65 800 107 799 l 61 814 q 118 855 103 828 q 128 911 133 882 q 106 961 124 940 q 84 994 94 976 q 72 1033 74 1013 q 82 1072 69 1054 z "},"‚":{"ha":292,"x_min":61,"x_max":239,"o":"m 82 125 q 124 153 97 147 q 177 147 150 158 q 218 101 204 135 q 233 9 239 54 q 204 -72 228 -36 q 144 -128 181 -108 q 65 -147 107 -149 l 61 -133 q 118 -92 103 -119 q 128 -36 133 -65 q 106 14 124 -7 q 84 47 94 29 q 72 86 74 65 q 82 125 69 107 z "}," ":{"ha":347,"x_min":0,"x_max":0,"o":""}}}
